<?xml version="1.0" encoding="utf-8"?>
<!-- Generator: Adobe Illustrator 17.0.0, SVG Export Plug-In . SVG Version: 6.00 Build 0)  -->
<!DOCTYPE svg PUBLIC "-//W3C//DTD SVG 1.1//EN" "http://www.w3.org/Graphics/SVG/1.1/DTD/svg11.dtd">
<svg version="1.1" id="Capa_1" xmlns="http://www.w3.org/2000/svg" xmlns:xlink="http://www.w3.org/1999/xlink" x="0px" y="0px"
	 width="566.929px" height="566.929px" viewBox="0 0 566.929 566.929" enable-background="new 0 0 566.929 566.929"
	 xml:space="preserve">
<path fill="#F39200" d="M330.333,276.265c0.462,6.915,1.183,13.824,1.331,20.746c0.333,15.526-15.249,26.433-30.42,21.9
	c-2.903-0.867-6.87-0.528-9.6,0.794c-10.608,5.136-21.973,2.751-29.614-6.412c-1.749-2.098-4.628-3.918-7.281-4.482
	c-10.955-2.329-18.77-10.758-19.448-21.752c-0.639-10.359,6.122-20.176,16.666-23.027c4.333-1.172,6.502-3.205,8.457-7.254
	c6.538-13.539,24.102-16.162,35.955-6.168c2.085,1.758,5.727,2.873,8.414,2.514C318.802,251.248,331.831,262.133,330.333,276.265z"
	/>
<g>
	<path fill="#FFFFFF" d="M297.691,280.24c2.851,0,5.596,0.006,8.342-0.003c1.398-0.004,2.797-0.069,4.194-0.045
		c1.737,0.03,2.533,0.876,2.553,2.612c0.016,1.406,0.185,2.874-1.63,3.622c1.19,0.674,1.742,1.575,1.644,2.855
		c-0.097,1.259-0.733,2.067-1.622,2.41c0.149,1.162,0.382,2.222,0.397,3.285c0.018,1.309-0.969,1.896-1.721,2.162
		c0.267,1.093,0.661,2.071,0.713,3.067c0.088,1.683-0.864,2.586-2.575,2.596c-8.749,0.052-17.498,0.083-26.247,0.118
		c-0.234,0.001-0.468-0.035-0.825-0.063c-0.027-0.407-0.075-0.788-0.075-1.169c-0.004-6.712,0.013-13.425-0.018-20.137
		c-0.005-1.173,0.33-1.837,1.533-2.283c2.842-1.053,5.041-2.899,6.919-5.374c2.542-3.349,3.296-7.284,4.461-11.111
		c0.467-1.534,0.496-1.559,2.072-1.201c1.549,0.352,2.625,1.322,2.999,2.79c0.338,1.326,0.535,2.767,0.399,4.118
		c-0.356,3.534-0.929,7.046-1.411,10.567C297.741,279.44,297.726,279.828,297.691,280.24z"/>
	<path fill="#FFFFFF" d="M264.59,291.496c0.001-3.835-0.004-7.671,0.003-11.506c0.003-1.628,0.436-2.068,2.062-2.058
		c3.275,0.018,6.551,0.006,9.824,0.112c1.559,0.051,2.008,0.609,2.067,2.187c0.047,1.237,0.011,2.478,0.011,3.717
		c0,6.394-0.002,12.788,0.001,19.182c0.001,1.416-0.5,1.948-1.954,1.954c-3.357,0.013-6.715,0.013-10.072,0
		c-1.442-0.005-1.934-0.499-1.939-1.956C264.58,299.25,264.589,295.373,264.59,291.496z"/>
</g>
<g>
	<path fill="#F39200" d="M377.311,201.081c19.005,10.039,29.662,26.834,34.475,47.284c1.552,6.596,3.738,10.365,11.085,10.145
		c2.188-0.066,4.44,2.021,6.664,3.12c-1.266,2.418-2.021,5.362-3.882,7.165c-9.713,9.415-19.641,18.61-29.623,27.742
		c-9.149,8.371-15.251,8.05-23.711-1.258c-10.17-11.189-20.308-22.413-30.164-33.878c-1.98-2.303-2.626-5.749-3.887-8.668
		c2.955-0.578,5.898-1.231,8.871-1.69c1.015-0.156,2.128,0.075,3.156,0.308c4.792,1.084,7.182-0.648,8.464-5.578
		c3.891-14.968,0.753-24.692-11.454-34.275c-4.115-3.23-12.094-5.732-8.358-12.129c2.27-3.885,9.717-4.747,14.256-6.714
		C362.529,195.833,370.45,197.456,377.311,201.081z"/>
	<path fill="#F39200" d="M191.027,199.1c10.039-19.005,26.834-29.662,47.284-34.475c6.596-1.552,10.364-3.738,10.145-11.085
		c-0.066-2.188,2.021-4.44,3.12-6.664c2.418,1.266,5.362,2.021,7.165,3.882c9.415,9.713,18.61,19.641,27.742,29.623
		c8.371,9.149,8.05,15.251-1.258,23.711c-11.189,10.17-22.413,20.308-33.878,30.164c-2.303,1.98-5.749,2.626-8.668,3.887
		c-0.578-2.955-1.231-5.898-1.69-8.871c-0.156-1.015,0.075-2.128,0.308-3.156c1.084-4.792-0.648-7.182-5.578-8.464
		c-14.968-3.891-24.692-0.753-34.275,11.454c-3.23,4.115-5.732,12.094-12.129,8.358c-3.885-2.27-4.747-9.717-6.714-14.256
		C185.779,213.883,187.402,205.962,191.027,199.1z"/>
	<path fill="#F39200" d="M189.618,365.848c-19.005-10.039-29.662-26.834-34.475-47.284c-1.552-6.596-3.738-10.365-11.085-10.145
		c-2.188,0.066-4.44-2.021-6.664-3.12c1.266-2.418,2.021-5.362,3.882-7.165c9.713-9.415,19.641-18.61,29.623-27.742
		c9.149-8.371,15.251-8.05,23.711,1.258c10.17,11.189,20.308,22.413,30.164,33.878c1.98,2.303,2.626,5.749,3.887,8.668
		c-2.955,0.578-5.898,1.231-8.871,1.69c-1.015,0.156-2.128-0.075-3.156-0.308c-4.792-1.084-7.182,0.648-8.464,5.578
		c-3.891,14.968-0.753,24.692,11.454,34.275c4.115,3.23,12.094,5.732,8.358,12.129c-2.27,3.885-9.717,4.747-14.256,6.714
		C204.4,371.096,196.479,369.473,189.618,365.848z"/>
	<path fill="#F39200" d="M375.902,367.829c-10.039,19.005-26.834,29.662-47.284,34.475c-6.596,1.552-10.365,3.738-10.145,11.085
		c0.066,2.188-2.021,4.44-3.12,6.664c-2.418-1.266-5.362-2.021-7.165-3.882c-9.415-9.713-18.61-19.641-27.742-29.623
		c-8.371-9.149-8.05-15.251,1.258-23.711c11.189-10.17,22.413-20.308,33.878-30.164c2.303-1.98,5.749-2.626,8.668-3.887
		c0.578,2.955,1.231,5.898,1.69,8.871c0.156,1.015-0.075,2.128-0.308,3.156c-1.084,4.792,0.648,7.182,5.578,8.464
		c14.968,3.891,24.692,0.753,34.275-11.454c3.23-4.115,5.732-12.094,12.129-8.358c3.885,2.27,4.747,9.717,6.714,14.256
		C381.15,353.046,379.527,360.968,375.902,367.829z"/>
</g>
</svg>
