<?xml version="1.0" encoding="utf-8"?>
<!-- Generator: Adobe Illustrator 17.0.0, SVG Export Plug-In . SVG Version: 6.00 Build 0)  -->
<!DOCTYPE svg PUBLIC "-//W3C//DTD SVG 1.1//EN" "http://www.w3.org/Graphics/SVG/1.1/DTD/svg11.dtd">
<svg version="1.1" id="Capa_1" xmlns="http://www.w3.org/2000/svg" xmlns:xlink="http://www.w3.org/1999/xlink" x="0px" y="0px"
	 width="566.929px" height="566.929px" viewBox="0 0 566.929 566.929" enable-background="new 0 0 566.929 566.929"
	 xml:space="preserve">
<g>
	<g>
		<path fill="#F39200" d="M282.158,288.897c1.01,15.133,2.589,30.254,2.913,45.402c0.729,33.977-33.372,57.847-66.573,47.929
			c-6.354-1.898-15.034-1.157-21.009,1.737c-23.215,11.241-48.088,6.021-64.81-14.032c-3.828-4.591-10.129-8.575-15.935-9.809
			c-23.976-5.096-41.078-23.543-42.562-47.604c-1.399-22.67,13.399-44.155,36.473-50.395c9.483-2.565,14.23-7.015,18.509-15.875
			c14.309-29.63,52.747-35.369,78.686-13.499c4.564,3.848,12.534,6.288,18.413,5.501
			C256.923,234.149,285.435,257.969,282.158,288.897z"/>
		<path fill="#FFFFFF" d="M181.041,371.013c-1.32-0.764-2.779-1.365-3.925-2.335c-1.402-1.186-1.94-2.93-2.016-4.859
			c-0.24-0.041-0.489-0.066-0.73-0.126c-1.891-0.471-3.051-2.121-2.858-4.058c0.177-1.776,1.755-3.159,3.678-3.161
			c7.195-0.011,14.39-0.009,21.585-0.002c2.072,0.002,3.663,1.39,3.801,3.275c0.149,2.041-1.112,3.611-3.2,3.984
			c-0.108,0.019-0.215,0.043-0.363,0.073c-0.259,3.829-2.398,6.118-5.971,7.209C187.707,371.013,184.374,371.013,181.041,371.013z"
			/>
		<path fill="#FFFFFF" d="M186.055,341.922c-3.636,0-7.271,0.008-10.907-0.002c-4.096-0.012-7.271-3.17-7.284-7.249
			c-0.012-3.711-0.033-7.423,0.02-11.134c0.012-0.866-0.258-1.342-0.991-1.806c-8.623-5.462-14.334-13.122-16.383-23.131
			c-2.631-12.855,0.747-24.174,10.033-33.473c7.626-7.636,17.056-10.951,27.81-10.438c15.648,0.747,29.723,12.687,33.122,28.035
			c3.433,15.5-2.883,30.619-16.353,39.057c-0.709,0.444-0.929,0.919-0.92,1.727c0.043,3.711,0.028,7.423,0.017,11.134
			c-0.012,4.094-3.171,7.264-7.256,7.278C193.326,341.932,189.691,341.922,186.055,341.922z M196.951,334.601
			c0-0.498,0-0.908,0-1.318c0-4.051,0.149-8.11-0.059-12.15c-0.115-2.243,0.385-3.734,2.596-4.508
			c0.732-0.256,1.368-0.794,2.041-1.214c10.042-6.269,15.216-17.928,13.122-29.568c-3.532-19.64-25.596-29.952-42.932-20.104
			c-10.221,5.806-16.373,17.688-14.355,29.857c1.065,6.417,3.85,11.954,8.705,16.254c2.439,2.161,5.303,3.856,8.05,5.646
			c0.779,0.508,1.037,0.988,1.029,1.87c-0.04,4.354-0.018,8.708-0.018,13.062c0,0.709,0,1.417,0,2.172
			C182.43,334.601,189.609,334.601,196.951,334.601z"/>
		<path fill="#FFFFFF" d="M186.041,352.831c-3.519,0-7.038,0.004-10.557-0.001c-2.394-0.004-3.996-1.481-3.986-3.661
			c0.01-2.126,1.607-3.604,3.926-3.606c7.076-0.005,14.151-0.005,21.227,0c2.318,0.002,3.917,1.478,3.932,3.603
			c0.015,2.172-1.597,3.66-3.985,3.663C193.079,352.835,189.56,352.831,186.041,352.831z"/>
		<g id="T0bjTK_1_">
			<g>
				<path fill="#FFFFFF" d="M155.913,247.794c2.578-1.487,5.049-2.913,7.649-4.413c1.53,2.654,3.017,5.236,4.486,7.785
					c-2.579,1.502-5.043,2.937-7.61,4.433C158.959,253.05,157.485,250.506,155.913,247.794z"/>
				<path fill="#FFFFFF" d="M204.024,251.17c1.487-2.577,2.956-5.122,4.491-7.783c2.561,1.476,5.023,2.895,7.627,4.395
					c-1.514,2.63-2.999,5.207-4.502,7.817C209.111,254.128,206.652,252.698,204.024,251.17z"/>
				<path fill="#FFFFFF" d="M138.28,268.662c1.514-2.622,2.941-5.091,4.417-7.645c2.64,1.526,5.191,3,7.805,4.51
					c-1.475,2.543-2.919,5.034-4.42,7.622C143.527,271.68,140.976,270.213,138.28,268.662z"/>
				<path fill="#FFFFFF" d="M226.008,273.148c-1.503-2.578-2.939-5.042-4.437-7.611c2.547-1.478,5.091-2.954,7.794-4.522
					c1.466,2.532,2.909,5.022,4.425,7.641C231.133,270.189,228.553,271.679,226.008,273.148z"/>
				<path fill="#FFFFFF" d="M238.542,286.833c0,2.88,0,5.684,0,8.584c-3.039,0-6.058,0-8.933,0c0-2.849,0-5.676,0-8.584
					C232.416,286.833,235.403,286.833,238.542,286.833z"/>
				<path fill="#FFFFFF" d="M181.705,247.548c0-2.868,0-5.823,0-8.878c2.862,0,5.704,0,8.629,0c0,2.993,0,5.981,0,8.878
					C187.49,247.548,184.66,247.548,181.705,247.548z"/>
				<path fill="#FFFFFF" d="M133.54,295.42c0-2.921,0-5.725,0-8.597c3.047,0,6.03,0,8.921,0c0,2.856,0,5.68,0,8.597
					C139.661,295.42,136.646,295.42,133.54,295.42z"/>
				<path fill="#FFFFFF" d="M229.382,321.245c-2.436-1.407-4.785-2.764-7.189-4.153c1.214-2.709,2.394-5.341,3.619-8.075
					c2.655,1.526,5.24,3.011,7.969,4.58C232.306,316.162,230.872,318.655,229.382,321.245z"/>
				<path fill="#FFFFFF" d="M146.217,309.03c1.222,2.752,2.392,5.385,3.598,8.1c-2.37,1.37-4.678,2.705-7.113,4.113
					c-1.464-2.527-2.889-4.984-4.42-7.626C140.922,312.091,143.527,310.585,146.217,309.03z"/>
			</g>
		</g>
	</g>
	<g id="_x33_t1gbQ_1_">
		<g>
			<path fill="#F39200" d="M466.016,338.479c-1.833-4.18-3.439-8.142-5.338-11.958c-0.455-0.914-1.966-1.945-2.842-1.826
				c-0.881,0.12-1.973,1.483-2.291,2.513c-2.481,8.02-4.16,16.349-7.299,24.09c-6.139,15.138-15.959,20.46-31.848,16.698
				c-8.593-2.034-16.808-5.922-24.945-9.537c-4.539-2.016-5.868-7.353-3.874-11.699c2.053-4.476,6.809-6.336,11.787-4.707
				c6.329,2.071,12.607,4.355,19.044,6.015c6.502,1.677,8.601,0.382,9.648-6.249c1.436-9.094,3.85-18.446,2.975-27.407
				c-1.791-18.35-0.207-37.193-6.775-54.981c-0.944-2.559-2.134-4.12-4.879-5.103c-17.344-6.207-34.641-12.552-51.842-19.146
				c-2.498-0.958-5.28-3.104-6.289-5.417c-0.832-1.908,0.15-5.268,1.434-7.279c1.831-2.868,5.215-2.882,8.377-2.107
				c7.781,1.907,15.541,3.895,23.328,5.774c10.254,2.473,20.503,4.978,30.798,7.273c9.742,2.172,17.686-0.776,23.454-9.038
				c9.561-13.697,19.07-27.431,28.607-41.146c0.837-1.204,1.61-2.479,2.601-3.546c2.574-2.772,6.427-3.35,9.478-1.431
				c3.278,2.061,4.112,5.139,3.125,8.712c-0.385,1.393-1.162,2.69-1.851,3.983c-7.914,14.853-15.787,29.728-23.834,44.509
				c-1.238,2.274-1.161,3.962-0.115,6.254c8.603,18.841,12.859,38.68,13.319,59.37c0.035,1.551,0.586,3.104,0.989,4.632
				c3.16,11.981,6.654,23.886,9.358,35.968c1.025,4.579,0.66,9.602,0.194,14.351c-0.785,7.994-6.885,11.94-14.587,9.659
				c-8.149-2.413-12.874-8.432-15.286-16.197C459.186,344.844,461.475,341.212,466.016,338.479z"/>
			<path fill="#F39200" d="M426.409,229.018c-14.031-0.104-25.071-11.546-24.997-25.909c0.067-13.223,11.716-24.746,25.016-24.744
				c14.535,0.002,25.82,11.545,25.577,26.164C451.779,218.068,440.229,229.119,426.409,229.018z"/>
		</g>
	</g>
	<path fill="#F39200" d="M305.641,292.971c9.254-11.142,21.805-15.842,35.958-16.183c4.565-0.11,7.353-1.029,8.226-5.905
		c0.26-1.452,1.948-2.648,2.981-3.962c1.419,1.17,3.256,2.075,4.187,3.553c4.863,7.71,9.551,15.531,14.19,23.379
		c4.252,7.193,3.196,11.173-4.115,15.462c-8.788,5.156-17.594,10.287-26.52,15.197c-1.793,0.986-4.155,0.935-6.255,1.362
		c0.028-2.029,0.005-4.06,0.115-6.084c0.038-0.691,0.344-1.393,0.64-2.039c1.379-3.01,0.568-4.826-2.506-6.354
		c-9.332-4.64-16.179-3.918-24.19,2.804c-2.7,2.266-5.456,7.181-9.156,3.831c-2.248-2.035-1.784-7.066-2.452-10.331
		C300.132,301.992,302.3,296.994,305.641,292.971z"/>
</g>
</svg>
