<?xml version="1.0" encoding="utf-8"?>
<!-- Generator: Adobe Illustrator 17.0.0, SVG Export Plug-In . SVG Version: 6.00 Build 0)  -->
<!DOCTYPE svg PUBLIC "-//W3C//DTD SVG 1.1//EN" "http://www.w3.org/Graphics/SVG/1.1/DTD/svg11.dtd">
<svg version="1.1" id="Capa_1" xmlns="http://www.w3.org/2000/svg" xmlns:xlink="http://www.w3.org/1999/xlink" x="0px" y="0px"
	 width="566.929px" height="566.929px" viewBox="0 0 566.929 566.929" enable-background="new 0 0 566.929 566.929"
	 xml:space="preserve">
<g>
	<path fill="#F39200" stroke="#FFFFFF" stroke-width="2" stroke-miterlimit="10" d="M174.917,366.622
		c-0.688-16.052-1.054-32.464-4.73-47.974c-7.791-32.878-26.631-50.879-57.037-55.37c18.712-5.472,32.911-22.784,33.535-43.195
		c0.77-25.137-20.227-46.749-45.647-46.983c-25.209-0.231-45.641,19.648-46.098,44.85c-0.386,21.289,13.184,39.262,32.227,45.115
		c-15.755,2.411-29.566,9.979-40.284,24.175c-10.158,13.454-15.882,28.928-17.763,45.376c-1.478,12.927-1.483,26.196-0.438,39.176
		c0.651,8.087,9.285,12.744,17.168,11.604c7.56-1.093,11-5.604,11.038-14.621c0.034-7.946-0.709-15.969,0.15-23.821
		c1.035-9.452,3.402-18.759,5.192-28.129c0.681,0.158,1.362,1.329,2.042,1.487c0,35.221,1.034,50.239,1.437,75.854h72.298
		c-0.804-20.896-1.569-43.273-2.015-71.824c-0.043-2.737-0.006-5.981-0.006-8.719c0.749-0.073,1.497-0.397,2.246-0.47
		c1.42,4.334,3.672,8.46,4.106,12.89c1.44,14.656,2.342,29.306,3.215,44.012c0.523,8.828,5.597,13.947,13.935,13.508
		C168.452,383.093,175.346,376.637,174.917,366.622z"/>
	<path fill="#F39200" stroke="#FFFFFF" stroke-width="2" stroke-miterlimit="10" d="M139.761,395.517H64.053l-0.026-1.659
		c-0.148-9.391-0.386-17.514-0.616-25.371c-0.37-12.635-0.752-25.664-0.812-44.952c-0.149,0.711-0.297,1.418-0.444,2.119
		c-1.339,6.377-2.725,12.972-3.439,19.487c-0.566,5.174-0.417,10.572-0.273,15.792c0.07,2.572,0.144,5.231,0.133,7.852
		c-0.042,9.883-4.008,15.058-12.483,16.282c-0.861,0.125-1.746,0.187-2.629,0.187c-7.459,0-15.763-4.67-16.46-13.325
		c-1.116-13.873-0.967-27.163,0.444-39.503c1.988-17.389,8.075-32.934,18.092-46.201c9.25-12.251,21.185-20.196,35.538-23.677
		c-7.373-3.365-13.871-8.648-18.672-15.262c-6.179-8.512-9.343-18.667-9.149-29.366c0.473-26.079,21.271-46.507,47.347-46.507
		l0.451,0.002c12.663,0.116,25.065,5.532,34.027,14.858c8.954,9.318,13.674,21.344,13.29,33.862
		c-0.565,18.451-12.134,35.169-28.837,42.594c27.757,6.064,44.892,24.288,52.295,55.531c3.377,14.251,3.994,29.318,4.591,43.89
		c0.06,1.469,0.12,2.936,0.183,4.399c0.446,10.455-6.553,18.141-17.021,18.692c-9.231,0.488-15.122-5.239-15.706-15.097
		c-0.923-15.569-1.802-29.623-3.21-43.957c-0.273-2.78-1.339-5.483-2.467-8.344c-0.177-0.447-0.355-0.899-0.531-1.356
		c-0.007,1.916-0.014,3.881,0.014,5.66c0.421,26.944,1.11,48.116,2.013,71.617L139.761,395.517z M67.369,392.146h68.89
		c-0.873-22.832-1.538-43.639-1.949-69.944c-0.03-1.902,0.07-3.995,0.078-6.018c0.004-0.905,0.098-1.795,0.098-2.644v-1.531
		l1.432-0.147c0.26-0.025,0.524-0.098,0.851-0.177c0.403-0.096,0.837-0.204,1.325-0.251l1.332-0.13l0.415,1.283
		c0.437,1.337,0.973,2.701,1.493,4.019c1.164,2.951,2.366,6.003,2.685,9.252c1.414,14.394,2.293,28.483,3.219,44.087
		c0.476,8.038,4.839,12.316,12.163,11.93c8.642-0.456,14.199-6.557,13.831-15.183c-0.063-1.465-0.123-2.935-0.183-4.406
		c-0.59-14.412-1.2-29.314-4.503-43.251c-7.58-31.987-25.782-49.68-55.644-54.091l-7.614-1.124l7.387-2.16
		c18.447-5.394,31.738-22.512,32.323-41.629c0.356-11.605-4.03-22.764-12.351-31.424c-8.338-8.677-19.865-13.715-31.627-13.823
		l-0.42-0.002c-24.221,0-43.537,18.975-43.976,43.197c-0.366,20.184,12.107,37.655,31.037,43.474l7.037,2.163l-7.277,1.114
		c-16.079,2.46-29.265,10.375-39.194,23.525c-9.649,12.78-15.515,27.769-17.434,44.553c-1.386,12.123-1.531,25.194-0.432,38.85
		c0.535,6.641,7.148,10.224,13.1,10.224c0.722,0,1.445-0.051,2.148-0.154c6.69-0.967,9.56-4.843,9.593-12.961
		c0.011-2.568-0.062-5.199-0.131-7.745c-0.148-5.333-0.299-10.849,0.292-16.251c0.732-6.679,2.135-13.356,3.491-19.813
		c0.582-2.77,1.184-5.634,1.722-8.45l0.329-1.724l1.709,0.4c0.739,0.173,1.289,0.642,1.73,1.019
		c0.123,0.104,0.186,0.256,0.284,0.322l1.1,0.283v1.337c0,22.268,0.531,36.488,0.934,50.24
		C66.882,375.79,67.22,383.429,67.369,392.146z"/>
</g>
<g>
	<path fill="#F39200" stroke="#FFFFFF" stroke-width="2" stroke-miterlimit="10" d="M349.837,366.622
		c-0.688-16.052-1.054-32.464-4.73-47.974c-7.791-32.878-26.631-50.879-57.037-55.37c18.712-5.472,32.911-22.784,33.535-43.195
		c0.77-25.137-20.227-46.749-45.647-46.983c-25.209-0.231-45.641,19.648-46.098,44.85c-0.386,21.289,13.184,39.262,32.227,45.115
		c-15.755,2.411-29.566,9.979-40.284,24.175c-10.158,13.454-15.882,28.928-17.763,45.376c-1.478,12.927-1.483,26.196-0.438,39.176
		c0.651,8.087,9.285,12.744,17.168,11.604c7.56-1.093,11-5.604,11.038-14.621c0.034-7.946-0.709-15.969,0.15-23.821
		c1.035-9.452,3.402-18.759,5.192-28.129c0.681,0.158,1.362,1.329,2.042,1.487c0,35.219,1.034,50.238,1.437,75.853h72.298
		c-0.804-20.896-1.569-43.273-2.015-71.824c-0.043-2.737-0.006-5.981-0.006-8.719c0.749-0.073,1.497-0.397,2.246-0.47
		c1.42,4.334,3.672,8.46,4.107,12.89c1.44,14.656,2.342,29.306,3.215,44.012c0.523,8.828,5.597,13.947,13.935,13.508
		C343.372,383.093,350.266,376.637,349.837,366.622z"/>
	<path fill="#F39200" stroke="#FFFFFF" stroke-width="2" stroke-miterlimit="10" d="M314.681,395.517h-75.709l-0.026-1.659
		c-0.148-9.391-0.386-17.514-0.616-25.371c-0.37-12.635-0.752-25.664-0.812-44.952c-0.149,0.711-0.297,1.418-0.444,2.119
		c-1.339,6.377-2.725,12.972-3.439,19.487c-0.566,5.174-0.417,10.572-0.273,15.792c0.07,2.572,0.144,5.231,0.133,7.852
		c-0.042,9.883-4.008,15.058-12.483,16.282c-0.861,0.125-1.746,0.187-2.629,0.187c-7.459,0-15.763-4.67-16.46-13.325
		c-1.116-13.873-0.967-27.163,0.444-39.503c1.988-17.389,8.075-32.934,18.092-46.201c9.25-12.251,21.185-20.196,35.538-23.677
		c-7.373-3.365-13.871-8.648-18.672-15.262c-6.179-8.512-9.343-18.667-9.149-29.366c0.473-26.079,21.271-46.507,47.347-46.507
		l0.451,0.002c12.663,0.116,25.065,5.532,34.027,14.858c8.954,9.318,13.674,21.344,13.29,33.862
		c-0.565,18.451-12.134,35.169-28.837,42.594c27.757,6.064,44.892,24.288,52.295,55.531c3.377,14.251,3.994,29.318,4.591,43.89
		c0.06,1.469,0.12,2.936,0.183,4.399c0.446,10.455-6.553,18.141-17.021,18.692c-9.242,0.488-15.122-5.239-15.706-15.097
		c-0.923-15.569-1.802-29.623-3.21-43.957c-0.273-2.78-1.339-5.483-2.467-8.344c-0.177-0.447-0.355-0.899-0.531-1.356
		c-0.007,1.916-0.014,3.881,0.014,5.66c0.421,26.944,1.11,48.116,2.013,71.617L314.681,395.517z M242.289,392.146h68.89
		c-0.873-22.832-1.538-43.639-1.949-69.944c-0.03-1.902,0.07-3.995,0.078-6.018c0.004-0.905,0.098-1.795,0.098-2.644v-1.531
		l1.432-0.147c0.26-0.025,0.524-0.098,0.851-0.177c0.403-0.096,0.837-0.204,1.325-0.251l1.332-0.13l0.415,1.283
		c0.437,1.337,0.973,2.701,1.493,4.019c1.164,2.951,2.366,6.003,2.685,9.252c1.414,14.394,2.293,28.483,3.219,44.087
		c0.476,8.038,4.835,12.316,12.163,11.93c8.642-0.456,14.199-6.557,13.831-15.183c-0.063-1.465-0.123-2.935-0.183-4.406
		c-0.59-14.412-1.2-29.314-4.503-43.251c-7.58-31.987-25.782-49.68-55.644-54.091l-7.614-1.124l7.387-2.16
		c18.447-5.394,31.738-22.512,32.323-41.629c0.356-11.605-4.03-22.764-12.351-31.424c-8.338-8.677-19.865-13.715-31.627-13.823
		l-0.42-0.002c-24.221,0-43.537,18.975-43.976,43.197c-0.366,20.184,12.107,37.655,31.037,43.474l7.037,2.163l-7.277,1.114
		c-16.079,2.46-29.265,10.375-39.194,23.525c-9.649,12.78-15.515,27.769-17.434,44.553c-1.386,12.123-1.531,25.194-0.432,38.85
		c0.535,6.641,7.148,10.224,13.1,10.224c0.722,0,1.445-0.051,2.148-0.154c6.69-0.967,9.56-4.843,9.593-12.961
		c0.011-2.568-0.062-5.199-0.131-7.745c-0.148-5.333-0.299-10.849,0.292-16.251c0.732-6.679,2.135-13.356,3.491-19.813
		c0.582-2.77,1.184-5.634,1.722-8.45l0.329-1.724l1.709,0.4c0.739,0.173,1.289,0.642,1.73,1.019
		c0.123,0.104,0.186,0.256,0.284,0.322l1.1,0.283v1.337c0,22.268,0.531,36.488,0.934,50.24
		C241.802,375.79,242.14,383.429,242.289,392.146z"/>
</g>
<g>
	<path fill="#F39200" stroke="#FFFFFF" stroke-width="2" stroke-miterlimit="10" d="M535.924,366.622
		c-0.688-16.052-1.054-32.464-4.73-47.974c-7.791-32.878-26.631-50.879-57.037-55.37c18.712-5.472,32.911-22.784,33.535-43.195
		c0.77-25.137-20.227-46.749-45.647-46.983c-25.209-0.231-45.641,19.648-46.098,44.85c-0.386,21.289,13.184,39.262,32.227,45.115
		c-15.755,2.411-29.566,9.979-40.284,24.175c-10.158,13.454-15.882,28.928-17.763,45.376c-1.478,12.927-1.483,26.196-0.438,39.176
		c0.651,8.087,9.285,12.744,17.168,11.604c7.56-1.093,11-5.604,11.038-14.621c0.034-7.946-0.709-15.969,0.15-23.821
		c1.035-9.452,3.402-18.759,5.192-28.129c0.681,0.158,1.362,1.329,2.042,1.487c0,35.219,1.034,50.238,1.437,75.853h72.298
		c-0.804-20.896-1.569-43.273-2.015-71.824c-0.043-2.737-0.006-5.981-0.006-8.719c0.749-0.073,1.497-0.397,2.246-0.47
		c1.42,4.334,3.672,8.46,4.106,12.89c1.44,14.656,2.342,29.306,3.215,44.012c0.523,8.828,5.597,13.947,13.935,13.508
		C529.458,383.093,536.353,376.637,535.924,366.622z"/>
	<path fill="#F39200" stroke="#FFFFFF" stroke-width="2" stroke-miterlimit="10" d="M500.768,395.517h-75.709l-0.026-1.659
		c-0.148-9.391-0.386-17.514-0.616-25.371c-0.37-12.635-0.752-25.664-0.812-44.952c-0.149,0.711-0.297,1.418-0.444,2.119
		c-1.339,6.377-2.725,12.972-3.439,19.487c-0.566,5.174-0.417,10.572-0.273,15.792c0.07,2.572,0.144,5.231,0.133,7.852
		c-0.042,9.883-4.008,15.058-12.483,16.282c-0.861,0.125-1.746,0.187-2.629,0.187c-7.459,0-15.763-4.67-16.46-13.325
		c-1.116-13.873-0.967-27.163,0.444-39.503c1.988-17.389,8.075-32.934,18.092-46.201c9.25-12.251,21.185-20.196,35.538-23.677
		c-7.373-3.365-13.871-8.648-18.672-15.262c-6.179-8.512-9.343-18.667-9.149-29.366c0.473-26.079,21.271-46.507,47.347-46.507
		l0.451,0.002c12.663,0.116,25.065,5.532,34.027,14.858c8.954,9.318,13.674,21.344,13.29,33.862
		c-0.565,18.451-12.134,35.169-28.837,42.594c27.757,6.064,44.892,24.288,52.295,55.531c3.377,14.251,3.994,29.318,4.591,43.89
		c0.06,1.469,0.12,2.936,0.183,4.399c0.446,10.455-6.553,18.141-17.021,18.692c-9.243,0.488-15.122-5.239-15.706-15.097
		c-0.923-15.569-1.802-29.623-3.21-43.957c-0.273-2.78-1.339-5.483-2.467-8.344c-0.177-0.447-0.355-0.899-0.531-1.356
		c-0.007,1.916-0.014,3.881,0.014,5.66c0.421,26.944,1.11,48.116,2.013,71.617L500.768,395.517z M428.376,392.146h68.89
		c-0.873-22.832-1.538-43.639-1.949-69.944c-0.03-1.902,0.07-3.995,0.078-6.018c0.004-0.905,0.098-1.795,0.098-2.644v-1.531
		l1.432-0.147c0.26-0.025,0.524-0.098,0.851-0.177c0.403-0.096,0.837-0.204,1.325-0.251l1.332-0.13l0.415,1.283
		c0.437,1.337,0.973,2.701,1.493,4.019c1.164,2.951,2.366,6.003,2.685,9.252c1.414,14.394,2.293,28.483,3.219,44.087
		c0.477,8.038,4.825,12.316,12.163,11.93c8.642-0.456,14.199-6.557,13.831-15.183c-0.063-1.465-0.123-2.935-0.183-4.406
		c-0.59-14.412-1.2-29.314-4.503-43.251c-7.58-31.987-25.782-49.68-55.644-54.091l-7.614-1.124l7.387-2.16
		c18.447-5.394,31.738-22.512,32.323-41.629c0.356-11.605-4.03-22.764-12.351-31.424c-8.338-8.677-19.865-13.715-31.627-13.823
		l-0.42-0.002c-24.221,0-43.537,18.975-43.976,43.197c-0.366,20.184,12.107,37.655,31.037,43.474l7.037,2.163l-7.277,1.114
		c-16.079,2.46-29.265,10.375-39.194,23.525c-9.649,12.78-15.515,27.769-17.434,44.553c-1.386,12.123-1.531,25.194-0.432,38.85
		c0.535,6.641,7.148,10.224,13.1,10.224c0.722,0,1.445-0.051,2.148-0.154c6.69-0.967,9.56-4.843,9.594-12.961
		c0.011-2.568-0.062-5.199-0.131-7.745c-0.148-5.333-0.299-10.849,0.292-16.251c0.732-6.679,2.135-13.356,3.491-19.813
		c0.582-2.77,1.184-5.634,1.722-8.45l0.329-1.724l1.709,0.4c0.739,0.173,1.289,0.642,1.73,1.019
		c0.123,0.104,0.186,0.256,0.284,0.322l1.1,0.283v1.337c0,22.268,0.531,36.488,0.934,50.24
		C427.889,375.79,428.227,383.429,428.376,392.146z"/>
</g>
<g>
	<path fill="#F39200" d="M195.224,250.164h17.211v16.01h-17.211v17.31h-16.01v-17.31h-17.211v-16.01h17.211v-17.31h16.01V250.164z"
		/>
</g>
<g>
	<path fill="#F39200" d="M383.077,250.164h17.211v16.01h-17.211v17.31h-16.01v-17.31h-17.211v-16.01h17.211v-17.31h16.01V250.164z"
		/>
</g>
</svg>
