<?xml version="1.0" encoding="utf-8"?>
<!-- Generator: Adobe Illustrator 17.0.0, SVG Export Plug-In . SVG Version: 6.00 Build 0)  -->
<!DOCTYPE svg PUBLIC "-//W3C//DTD SVG 1.1//EN" "http://www.w3.org/Graphics/SVG/1.1/DTD/svg11.dtd">
<svg version="1.1" id="Capa_1" xmlns="http://www.w3.org/2000/svg" xmlns:xlink="http://www.w3.org/1999/xlink" x="0px" y="0px"
	 width="566.929px" height="566.929px" viewBox="0 0 566.929 566.929" enable-background="new 0 0 566.929 566.929"
	 xml:space="preserve">
<g>
	<path fill="#F39200" d="M208.732,533.034c0-14.106,0-27.659,0-42.144c-14.846,4.327-28.81,8.703-42.96,12.359
		c-5.162,1.334-11.032,2.204-16.123,1.13c-20.291-4.281-28.075-26.526-15.56-43.938c22.309-31.036,44.85-61.904,67.303-92.837
		c3.079-4.243,5.693-8.988,9.421-12.565c7.263-6.97,16.316-9.906,26.466-9.87c30.767,0.11,61.535,0.075,92.303,0.025
		c15.492-0.025,25.831,7.478,34.605,20.087c22.327,32.09,45.801,63.38,68.634,95.122c12.527,17.416,4.784,39.618-15.495,43.978
		c-4.899,1.053-10.541,0.336-15.502-0.915c-12.33-3.105-24.462-6.994-36.681-10.545c-2.046-0.595-4.123-1.076-6.916-1.799
		c0,14.217,0,27.772,0,41.91C308.352,533.034,259.082,533.034,208.732,533.034z M337.287,486.037
		c-19.916-11.156-25.254-21.36-19.81-36.414c5.561-15.38,15.318-18.98,39.924-14.526c0-18.509,0-36.947,0-55.92
		c-2.573,0.769-4.454,1.29-6.31,1.893c-20.664,6.711-41.273,13.589-62.029,20c-3.466,1.07-7.836,1.039-11.309-0.035
		c-20.962-6.487-41.782-13.435-62.659-20.195c-1.763-0.571-3.606-0.891-5.616-1.378c0,18.989,0,37.288,0,55.686
		c21.199-4.128,32.81-1.211,38.016,9.729c3.767,7.916,6.698,16.699,1.317,24.493c-4.591,6.651-11.332,11.819-16.905,17.424
		c15.36,5.101,31.786,10.62,48.273,15.945c1.911,0.617,4.351,0.708,6.242,0.099C303.114,497.459,319.738,491.866,337.287,486.037z"
		/>
	<path fill="#F39200" d="M347.155,286.619c-1.036,35.464-29.13,62.356-64.267,61.519c-34.52-0.823-62.142-29.614-61.269-63.864
		c0.905-35.528,29.669-62.541,65.326-61.351C321.227,224.067,348.15,252.548,347.155,286.619z"/>
</g>
<path fill="#F39200" d="M510.794,120.24c0.594,8.907,1.524,17.807,1.715,26.722c0.429,19.998-19.642,34.048-39.183,28.21
	c-3.74-1.117-8.849-0.681-12.366,1.023c-13.664,6.616-28.304,3.544-38.146-8.259c-2.253-2.702-5.962-5.047-9.379-5.773
	c-14.112-3-24.178-13.857-25.051-28.019c-0.823-13.343,7.886-25.988,21.467-29.661c5.582-1.51,8.376-4.129,10.894-9.344
	c8.422-17.44,31.046-20.818,46.313-7.945c2.686,2.265,7.377,3.701,10.838,3.238C495.941,88.016,512.723,102.036,510.794,120.24z"/>
<path fill="#F39200" d="M309.263,67.996c0.595,8.907,1.524,17.807,1.715,26.722c0.429,19.998-19.642,34.048-39.183,28.21
	c-3.74-1.117-8.849-0.681-12.366,1.023c-13.664,6.616-28.304,3.544-38.146-8.259c-2.253-2.702-5.962-5.047-9.379-5.773
	c-14.112-3-24.178-13.857-25.051-28.019c-0.823-13.343,7.886-25.988,21.467-29.661c5.582-1.51,8.376-4.129,10.894-9.344
	c8.422-17.44,31.046-20.818,46.313-7.945c2.686,2.265,7.377,3.701,10.838,3.238C294.41,35.773,311.192,49.793,309.263,67.996z"/>
<path fill="#F39200" d="M141.212,183.971c0.594,8.907,1.524,17.807,1.715,26.722c0.429,19.998-19.642,34.048-39.183,28.21
	c-3.74-1.117-8.849-0.681-12.366,1.023c-13.664,6.616-28.304,3.544-38.146-8.259c-2.253-2.702-5.962-5.047-9.379-5.773
	c-14.112-3-24.178-13.857-25.051-28.019c-0.823-13.343,7.886-25.988,21.467-29.661c5.582-1.51,8.376-4.129,10.894-9.344
	c8.422-17.44,31.046-20.818,46.313-7.945c2.686,2.265,7.377,3.701,10.838,3.238C126.359,151.747,143.141,165.767,141.212,183.971z"
	/>
<text transform="matrix(1 0 0 1 67.8356 212.6731)" fill="#FFFFFF" font-family="'ITCAvantGardeStd-Bold'" font-size="52">A</text>
<text transform="matrix(1 0 0 1 240.4177 96.5902)" fill="#FFFFFF" font-family="'ITCAvantGardeStd-Bold'" font-size="52">B</text>
<text transform="matrix(1 0 0 1 437.823 151.1236)" fill="#FFFFFF" font-family="'ITCAvantGardeStd-Bold'" font-size="52">C</text>
<ellipse fill="#F39200" cx="173.805" cy="212.673" rx="20.999" ry="19.032"/>
<ellipse fill="#F39200" cx="283.465" cy="151.124" rx="20.999" ry="19.032"/>
<ellipse fill="#F39200" cx="409.329" cy="207.135" rx="20.999" ry="19.032"/>
<ellipse fill="#F39200" cx="208.303" cy="243.353" rx="11.585" ry="10.5"/>
<ellipse fill="#F39200" cx="284.39" cy="193.244" rx="11.585" ry="10.5"/>
<ellipse fill="#F39200" cx="371.408" cy="232.853" rx="11.585" ry="10.5"/>
</svg>
