<?xml version="1.0" encoding="utf-8"?>
<!-- Generator: Adobe Illustrator 17.0.0, SVG Export Plug-In . SVG Version: 6.00 Build 0)  -->
<!DOCTYPE svg PUBLIC "-//W3C//DTD SVG 1.1//EN" "http://www.w3.org/Graphics/SVG/1.1/DTD/svg11.dtd">
<svg version="1.1" id="Capa_1" xmlns="http://www.w3.org/2000/svg" xmlns:xlink="http://www.w3.org/1999/xlink" x="0px" y="0px"
	 width="566.929px" height="566.929px" viewBox="0 0 566.929 566.929" enable-background="new 0 0 566.929 566.929"
	 xml:space="preserve">
<path fill="#F39200" d="M513.98,266.104c0.725,10.861,1.858,21.713,2.091,32.584c0.523,24.385-23.951,41.516-47.778,34.397
	c-4.56-1.362-10.79-0.83-15.078,1.247c-16.661,8.067-34.512,4.321-46.513-10.07c-2.747-3.295-7.269-6.154-11.436-7.04
	c-17.207-3.658-29.481-16.896-30.546-34.164c-1.004-16.27,9.616-31.689,26.176-36.167c6.806-1.841,10.213-5.034,13.283-11.393
	c10.27-21.265,37.856-25.384,56.471-9.688c3.275,2.762,8.995,4.513,13.215,3.948C495.869,226.812,516.332,243.908,513.98,266.104z"
	/>
<g id="yepTit_1_">
	<g>
		<path fill="#F39200" d="M118.343,357.928c-1.058-0.266-1.464-1.026-1.732-2.025c-0.599-2.24-1.321-4.446-1.954-6.677
			c-0.232-0.817-0.615-1.317-1.527-1.467c-0.856-0.14-1.747-0.369-2.497-0.784c-1.723-0.954-3.033-0.474-4.42,0.74
			c-1.553,1.36-3.253,2.564-4.967,3.72c-0.428,0.289-1.308,0.386-1.719,0.138c-1.5-0.907-2.877-2.016-4.326-3.011
			c-0.735-0.505-0.763-1.046-0.454-1.842c0.913-2.354,1.687-4.762,2.622-7.107c0.344-0.862,0.248-1.443-0.39-2.067
			c-0.44-0.43-0.9-0.912-1.139-1.463c-0.95-2.194-2.597-2.782-4.856-2.491c-1.791,0.23-3.62,0.145-5.423,0.301
			c-1.086,0.094-1.73-0.178-2.029-1.31c-0.471-1.79-1.795-3.75-1.382-5.262c0.371-1.358,2.465-2.483,4.029-3.226
			c3.298-1.568,4.61-3.968,3.874-7.488c-0.13-0.622-0.443-1.375-0.922-1.726c-2-1.467-4.058-2.864-6.171-4.162
			c-0.995-0.611-1.191-1.283-0.816-2.292c0.628-1.688,0.786-3.911,1.979-4.917c0.976-0.823,3.24-0.511,4.811-0.158
			c3.767,0.847,6.202-0.478,8.031-3.763c0.61-1.095,0.936-1.848,0.428-3.038c-0.828-1.941-1.395-3.993-2.223-5.935
			c-0.508-1.192-0.46-1.986,0.721-2.701c1.323-0.802,2.516-1.826,3.859-2.588c0.436-0.247,1.319-0.195,1.736,0.095
			c2.165,1.507,4.218,3.173,6.377,4.689c0.445,0.312,1.196,0.371,1.764,0.281c0.749-0.118,1.447-0.692,2.184-0.729
			c2.657-0.136,3.608-1.764,4.086-4.091c0.361-1.758,1.061-3.444,1.503-5.189c0.203-0.802,0.533-1.11,1.364-1.084
			c1.708,0.053,3.42,0.044,5.13,0.007c0.986-0.021,1.455,0.373,1.716,1.352c0.651,2.438,1.373,4.861,2.198,7.244
			c0.19,0.549,0.856,0.992,1.396,1.34c0.414,0.267,1.035,0.208,1.459,0.467c2.536,1.552,4.61,0.807,6.55-1.133
			c0.689-0.689,1.552-1.203,2.337-1.796c0.784-0.592,1.569-1.184,2.54-1.917c1.742,1.252,3.566,2.491,5.283,3.863
			c0.307,0.245,0.365,1.106,0.21,1.575c-0.759,2.299-1.58,4.581-2.48,6.829c-0.417,1.039-0.349,1.824,0.475,2.609
			c0.48,0.457,0.948,1.007,1.202,1.609c0.926,2.19,2.637,2.372,4.695,2.158c2.208-0.229,4.44-0.23,6.903-0.341
			c0.781,2.295,1.551,4.554,2.341,6.873c-2.6,1.748-5.063,3.443-7.571,5.067c-0.764,0.495-1.011,1.001-0.842,1.915
			c0.177,0.956,0.261,1.985,0.099,2.934c-0.218,1.276,0.211,1.987,1.277,2.638c1.984,1.212,3.843,2.63,5.836,3.826
			c0.952,0.572,1.125,1.148,0.762,2.119c-0.486,1.301-0.934,2.622-1.297,3.962c-0.337,1.243-1.092,1.495-2.278,1.411
			c-2.426-0.171-4.861-0.266-7.292-0.249c-0.578,0.004-1.293,0.448-1.7,0.906c-0.923,1.041-1.62,2.283-2.552,3.314
			c-0.663,0.734-0.661,1.342-0.33,2.197c1.022,2.638,1.96,5.309,2.99,8.129c-1.731,1.201-3.483,2.385-5.197,3.622
			c-0.674,0.487-1.13,0.349-1.749-0.138c-2.032-1.6-4.141-3.105-6.184-4.691c-0.679-0.527-1.271-0.668-2.101-0.312
			c-1.132,0.485-2.313,0.972-3.517,1.139c-1.27,0.176-1.733,0.845-2.033,1.938c-0.614,2.236-1.259,4.466-1.988,6.667
			c-0.185,0.56-0.731,1.001-1.111,1.496C122.074,357.928,120.208,357.928,118.343,357.928z M121.147,337.183
			c10.331,0.03,18.715-8.293,18.737-18.6c0.022-10.296-8.308-18.669-18.641-18.737c-10.216-0.067-18.749,8.404-18.779,18.641
			C102.434,328.745,110.836,337.153,121.147,337.183z"/>
		<path fill="#F39200" d="M145.102,241.801c-0.639,1.711-1.352,3.4-1.89,5.142c-0.347,1.122-0.982,1.361-2.051,1.293
			c-2.478-0.156-4.962-0.274-7.443-0.259c-0.583,0.003-1.282,0.478-1.715,0.936c-0.703,0.746-1.101,1.808-1.861,2.468
			c-1.451,1.259-1.302,2.562-0.645,4.122c0.798,1.896,1.392,3.877,2.174,5.781c0.334,0.812,0.274,1.36-0.443,1.86
			c-1.685,1.176-3.357,2.37-5.015,3.542c-2.519-1.876-4.855-3.677-7.271-5.363c-0.478-0.334-1.304-0.408-1.901-0.281
			c-1.2,0.254-2.33,0.898-3.532,1.069c-1.378,0.196-1.852,0.913-2.169,2.151c-0.562,2.191-1.378,4.316-1.956,6.504
			c-0.246,0.929-0.738,1.287-1.592,1.366c-0.052,0.005-0.104,0.013-0.155,0.011c-1.805-0.079-3.73,0.206-5.385-0.335
			c-1.969-0.643-1.672-3.008-2.034-4.595c-0.757-3.326-2.074-5.632-5.79-6.178c-1.256-0.184-2.164-0.384-3.218,0.5
			c-1.782,1.495-3.658,2.89-5.582,4.196c-0.451,0.306-1.405,0.347-1.868,0.072c-1.417-0.841-2.692-1.918-4.055-2.855
			c-0.717-0.493-0.858-0.988-0.528-1.829c0.921-2.35,1.797-4.723,2.543-7.132c0.186-0.6-0.117-1.395-0.326-2.059
			c-0.115-0.366-0.594-0.607-0.75-0.973c-1.184-2.766-3.321-3.453-6.12-3.042c-1.63,0.24-3.304,0.168-4.95,0.316
			c-0.801,0.072-1.244-0.172-1.491-0.936c-0.63-1.951-1.298-3.889-1.967-5.88c2.467-1.654,4.788-3.293,7.198-4.788
			c1.1-0.682,1.398-1.478,1.207-2.688c-0.143-0.907-0.211-1.871-0.061-2.767c0.167-0.996-0.189-1.549-0.958-2.056
			c-2.416-1.592-4.809-3.218-7.385-4.948c0.732-2.168,1.465-4.34,2.103-6.232c3.157,0,6.054-0.035,8.949,0.02
			c0.929,0.018,1.531-0.228,2.02-1.055c0.603-1.019,1.246-2.069,2.09-2.878c1.033-0.991,1.041-1.883,0.525-3.121
			c-0.871-2.09-1.491-4.284-2.352-6.379c-0.402-0.977-0.207-1.491,0.633-2.025c1.176-0.747,2.347-1.527,3.405-2.429
			c1.098-0.937,1.922-0.697,2.94,0.14c1.797,1.478,3.717,2.806,5.547,4.246c0.714,0.562,1.363,0.79,2.222,0.334
			c0.539-0.286,1.15-0.555,1.745-0.595c2.862-0.193,3.952-1.985,4.447-4.531c0.313-1.611,0.93-3.161,1.358-4.752
			c0.234-0.87,0.637-1.29,1.62-1.231c1.498,0.089,3.004,0.027,4.507,0.023c1.098-0.003,1.781,0.355,2.088,1.574
			c0.591,2.343,1.318,4.659,2.135,6.933c0.212,0.589,0.889,1.151,1.49,1.431c1.112,0.519,2.362,0.737,3.485,1.238
			c1.002,0.447,1.733,0.214,2.537-0.411c1.96-1.524,3.992-2.957,5.936-4.5c0.647-0.513,1.11-0.541,1.749-0.063
			c1.281,0.96,2.587,1.888,3.911,2.787c0.883,0.599,1.121,1.212,0.666,2.288c-0.941,2.228-1.767,4.512-2.488,6.821
			c-0.189,0.604,0.056,1.44,0.334,2.066c0.285,0.643,0.991,1.1,1.274,1.743c0.956,2.173,2.633,2.59,4.79,2.34
			c1.899-0.22,3.829-0.165,5.736-0.328c0.912-0.078,1.332,0.315,1.583,1.087c0.493,1.518,0.989,3.035,1.493,4.55
			c0.288,0.866,0.019,1.454-0.753,1.951c-2.086,1.342-4.175,2.687-6.174,4.152c-0.518,0.38-0.885,1.165-1.027,1.826
			c-0.775,3.611,0.636,6.064,4,7.593c1.573,0.715,2.98,1.796,4.462,2.711C145.102,241.593,145.102,241.697,145.102,241.801z
			 M105.566,251.624c10.273,0.019,18.736-8.373,18.772-18.616c0.037-10.305-8.353-18.774-18.722-18.896
			c-10.232-0.121-18.782,8.417-18.795,18.767C86.81,243.282,95.132,251.605,105.566,251.624z"/>
		<path fill="#F39200" d="M195.88,233.505c2.047,1.465,4.048,2.898,6.101,4.368c-1.061,2.92-2.109,5.699-3.057,8.513
			c-0.157,0.465,0.001,1.137,0.231,1.606c0.289,0.591,0.965,1.01,1.191,1.61c1.057,2.803,3.306,2.773,5.687,2.552
			c1.132-0.105,2.269-0.185,3.406-0.219c2.819-0.085,2.819-0.072,3.801,2.671c1.506,4.21,1.506,4.21-2.105,6.63
			c-0.257,0.172-0.523,0.331-0.776,0.51c-1.382,0.981-3.285,1.691-3.989,3.03c-0.674,1.284-0.16,3.227-0.039,4.871
			c0.034,0.456,0.431,1.014,0.826,1.292c2.109,1.485,4.26,2.911,6.42,4.323c0.689,0.45,1.028,0.868,0.677,1.766
			c-0.671,1.72-0.723,4.099-1.939,5.07c-1.171,0.934-3.533,0.754-5.288,0.497c-3.427-0.503-5.792,0.367-7.592,3.533
			c-0.731,1.287-0.966,2.118-0.464,3.392c0.943,2.391,1.79,4.819,2.768,7.477c-1.994,1.417-4.033,2.866-6.09,4.328
			c-2.526-1.884-4.902-3.709-7.349-5.434c-0.444-0.313-1.198-0.356-1.771-0.271c-0.749,0.111-1.444,0.616-2.191,0.7
			c-2.276,0.258-3.425,1.414-3.853,3.711c-0.411,2.204-1.262,4.327-1.947,6.574c-2.306,0-4.581,0.046-6.85-0.046
			c-0.377-0.015-0.927-0.568-1.062-0.982c-0.802-2.441-1.519-4.91-2.233-7.379c-0.246-0.851-0.629-1.397-1.605-1.57
			c-1.053-0.186-2.151-0.459-3.07-0.977c-1.228-0.691-2.054-0.284-3.009,0.468c-2.146,1.688-4.35,3.301-6.627,5.016
			c-1.766-1.265-3.472-2.506-5.2-3.714c-0.719-0.502-0.795-1.026-0.474-1.848c0.936-2.393,1.809-4.814,2.595-7.259
			c0.163-0.507-0.044-1.223-0.287-1.746c-0.276-0.596-0.911-1.03-1.169-1.629c-0.954-2.213-2.591-2.687-4.849-2.393
			c-1.939,0.252-3.932,0.063-5.897,0.148c-0.793,0.034-1.228-0.202-1.472-0.965c-0.637-1.996-1.321-3.977-1.984-5.958
			c2.635-1.772,5.144-3.398,7.569-5.142c0.461-0.332,0.717-1.101,0.836-1.713c0.113-0.583-0.262-1.279-0.102-1.833
			c0.697-2.41-0.703-3.539-2.498-4.59c-1.644-0.963-3.17-2.126-4.796-3.122c-0.75-0.459-0.851-0.901-0.643-1.75
			c1.428-5.842,1.861-6.181,7.774-5.615c0.257,0.025,0.511,0.079,0.767,0.12c2.222,0.353,3.734-0.216,5.292-2.206
			c1.831-2.338,2.009-4.24,0.78-6.727c-0.816-1.65-1.304-3.462-1.932-5.204c-0.031-0.086-0.004-0.192-0.004-0.487
			c1.601-1.112,3.323-2.245,4.97-3.478c0.778-0.582,1.347-0.472,2.053,0.072c2.088,1.607,4.188,3.201,6.339,4.721
			c0.402,0.284,1.081,0.339,1.596,0.261c0.699-0.106,1.35-0.585,2.046-0.652c2.573-0.245,3.759-1.697,4.195-4.157
			c0.303-1.711,1.04-3.34,1.447-5.038c0.245-1.022,0.773-1.342,1.742-1.293c2.012,0.101,4.474-0.515,5.907,0.435
			c1.284,0.851,1.723,3.362,2.023,5.223c0.492,3.055,1.96,4.667,5.043,5.311c1.551,0.324,2.636,0.408,3.885-0.637
			C191.571,236.648,193.648,235.193,195.88,233.505z M174.992,285.835c10.287-0.005,18.588-8.25,18.604-18.478
			c0.015-10.237-8.393-18.603-18.684-18.589c-10.18,0.014-18.594,8.449-18.544,18.59
			C156.418,277.588,164.736,285.84,174.992,285.835z"/>
	</g>
</g>
<g>
	<rect x="241.711" y="241.371" fill="#F39200" width="84.529" height="21.29"/>
</g>
<g>
	<rect x="241.711" y="292.162" fill="#F39200" width="84.529" height="21.29"/>
</g>
<g>
	<path fill="#FFFFFF" d="M462.711,272.348c4.477,0,8.79,0.009,13.102-0.004c2.196-0.007,4.392-0.108,6.587-0.07
		c2.728,0.047,3.979,1.376,4.01,4.103c0.025,2.208,0.29,4.514-2.561,5.688c1.87,1.058,2.737,2.473,2.582,4.485
		c-0.152,1.977-1.152,3.247-2.548,3.785c0.234,1.826,0.6,3.49,0.623,5.159c0.028,2.056-1.522,2.978-2.702,3.396
		c0.419,1.716,1.039,3.253,1.12,4.817c0.138,2.643-1.357,4.062-4.045,4.078c-13.741,0.082-27.483,0.13-41.224,0.185
		c-0.367,0.001-0.735-0.055-1.295-0.099c-0.043-0.64-0.118-1.238-0.118-1.837c-0.007-10.542,0.021-21.085-0.028-31.627
		c-0.008-1.843,0.518-2.885,2.407-3.585c4.463-1.655,7.917-4.553,10.867-8.44c3.992-5.261,5.177-11.441,7.007-17.452
		c0.733-2.409,0.778-2.449,3.254-1.886c2.433,0.553,4.123,2.076,4.711,4.381c0.531,2.082,0.84,4.347,0.627,6.468
		c-0.559,5.55-1.46,11.066-2.215,16.597C462.789,271.091,462.765,271.7,462.711,272.348z"/>
	<path fill="#FFFFFF" d="M410.721,290.026c0.001-6.024-0.006-12.048,0.005-18.072c0.005-2.557,0.685-3.247,3.239-3.233
		c5.144,0.029,10.29,0.01,15.429,0.177c2.449,0.079,3.153,0.957,3.247,3.434c0.074,1.943,0.017,3.892,0.017,5.838
		c0,10.043-0.004,20.086,0.001,30.128c0.001,2.224-0.785,3.059-3.068,3.068c-5.273,0.021-10.546,0.02-15.82,0
		c-2.265-0.009-3.038-0.784-3.046-3.073C410.706,302.205,410.719,296.115,410.721,290.026z"/>
</g>
</svg>
