<?xml version="1.0" encoding="utf-8"?>
<!-- Generator: Adobe Illustrator 17.0.0, SVG Export Plug-In . SVG Version: 6.00 Build 0)  -->
<!DOCTYPE svg PUBLIC "-//W3C//DTD SVG 1.1//EN" "http://www.w3.org/Graphics/SVG/1.1/DTD/svg11.dtd">
<svg version="1.1" id="Capa_1" xmlns="http://www.w3.org/2000/svg" xmlns:xlink="http://www.w3.org/1999/xlink" x="0px" y="0px"
	 width="566.929px" height="566.929px" viewBox="0 0 566.929 566.929" enable-background="new 0 0 566.929 566.929"
	 xml:space="preserve">
<g>
	<path fill="#F39200" d="M148.545,133.612c0.594,8.907,1.524,17.807,1.715,26.722c0.429,19.998-19.642,34.048-39.183,28.21
		c-3.74-1.117-8.849-0.681-12.366,1.023c-13.664,6.616-28.304,3.544-38.146-8.259c-2.253-2.702-5.962-5.047-9.379-5.773
		c-14.112-3-24.178-13.857-25.051-28.019c-0.823-13.343,7.886-25.988,21.467-29.661c5.582-1.51,8.376-4.129,10.894-9.344
		c8.422-17.44,31.046-20.818,46.313-7.945c2.686,2.265,7.377,3.701,10.838,3.238C133.692,101.389,150.474,115.409,148.545,133.612z"
		/>
	<g>
		<text transform="matrix(1 0 0 1 74.2887 148.9226)" fill="#FFFFFF" font-family="'ITCAvantGardeStd-Bold'" font-size="30">HI!</text>
	</g>
	<path fill="#F39200" d="M539.127,127.828c0.594,8.907,1.524,17.807,1.715,26.722c0.429,19.998-19.642,34.048-39.183,28.21
		c-3.74-1.117-8.849-0.681-12.366,1.023c-13.664,6.616-28.304,3.544-38.146-8.259c-2.253-2.702-5.962-5.047-9.379-5.773
		c-14.112-3-24.178-13.857-25.051-28.019c-0.823-13.343,7.886-25.989,21.467-29.661c5.582-1.51,8.376-4.129,10.894-9.344
		c8.422-17.44,31.046-20.818,46.313-7.945c2.686,2.265,7.377,3.701,10.838,3.238C524.273,95.605,541.056,109.625,539.127,127.828z"
		/>
	<text transform="matrix(1 0 0 1 426.7834 148.9225)" fill="#FFFFFF" font-family="'ITCAvantGardeStd-Bold'" font-size="30">¡HOLA!</text>
	<ellipse fill="#F39200" cx="485.988" cy="207.237" rx="13.517" ry="12.251"/>
	<ellipse fill="#F39200" cx="106.568" cy="207.817" rx="13.517" ry="12.251"/>
	<ellipse fill="#F39200" cx="463.855" cy="236.01" rx="8.379" ry="7.594"/>
	<ellipse fill="#F39200" cx="120.085" cy="228.416" rx="8.379" ry="7.594"/>
	<g>
		<path fill="#F39200" d="M154.408,236.011c4.381,1.302,8.786,2.527,13.139,3.917c26.824,8.572,42.636,34.995,37.638,62.831
			c-4.644,25.866-29.334,45.579-55.985,44.698c-26.888-0.888-50.251-22.18-52.828-48.146c-2.907-29.292,14.57-54.368,42.324-60.8
			c2.944-0.682,5.82-1.66,8.728-2.501C149.752,236.011,152.08,236.011,154.408,236.011z"/>
		<path fill="#F39200" d="M412.16,236.011c4.381,1.302,8.786,2.527,13.139,3.917c26.824,8.572,42.636,34.995,37.638,62.831
			c-4.644,25.866-29.334,45.579-55.985,44.698c-26.888-0.888-50.251-22.18-52.828-48.146c-2.907-29.292,14.57-54.368,42.324-60.8
			c2.944-0.682,5.82-1.66,8.728-2.501C407.504,236.011,409.832,236.011,412.16,236.011z"/>
		<path fill="#F39200" d="M351.031,320.27c-1.723,3.495-2.637,9.064-5.581,10.517c-5.542,2.734-6.925-3.707-9.25-7.155
			c-6.49-9.622-13.601-12.515-24.912-10.587c-4.018,0.685-5.818,2.197-5.209,6.292c0.177,1.192,0.297,2.482,0.03,3.631
			c-0.425,1.831-1.195,3.583-1.819,5.368c-1.732-0.753-3.898-1.08-5.128-2.328c-8.815-8.948-17.543-17.988-26.087-27.195
			c-5.353-5.768-5.088-10.915,0.703-16.399c7.943-7.522,16.009-14.92,24.192-22.18c1.29-1.144,3.582-1.916,5.194-1.631
			c0.847,0.15,1.882,3.046,1.691,4.558c-0.688,5.436,1.656,7.64,6.761,9.238c15.298,4.79,27.555,13.814,34.225,28.79
			C348.332,306.785,349.15,313.128,351.031,320.27z"/>
		<path fill="#F39200" d="M206.95,329.991c1.763-3.338,2.855-8.953,5.944-10.452c5.086-2.467,6.521,3.75,8.737,7.07
			c6.575,9.849,13.788,12.807,25.404,10.725c3.826-0.686,5.284-2.403,4.74-6.112c-0.117-0.796-0.227-1.656-0.049-2.419
			c0.523-2.235,1.193-4.436,1.806-6.65c2.147,1.131,4.731,1.825,6.367,3.466c8.144,8.17,16.088,16.542,24.004,24.935
			c6.585,6.982,6.471,11.643-0.434,18.112c-7.533,7.058-15.111,14.072-22.843,20.909c-1.481,1.31-3.765,1.712-5.679,2.533
			c-0.706-1.756-2.161-3.592-1.983-5.253c0.598-5.577-2.141-7.461-7.068-9.029c-15.275-4.861-27.427-13.954-33.95-29.001
			C209.591,343.393,208.821,337.271,206.95,329.991z"/>
		<g>
			<path fill="#F39200" d="M145.654,467.413c0.621-8.684,1.55-17.391,2.41-26.861c6.021,2.998,10.565,5.602,15.378,7.574
				c27.728,11.363,54.92,6.149,81.838-3.19c11.83-4.104,17.797-16.156,14.06-27.23c-3.541-10.494-15.213-16.045-27.057-13.003
				c-8.831,2.268-17.624,4.833-26.583,6.429c-27.466,4.891-43.241-8.048-43.775-35.455c-0.304-15.609-11.242-29.34-26.516-33.29
				c-14.834-3.835-31.07,2.483-38.795,15.79c-3.159,5.443-5.459,11.594-7.37,17.622c-10.745,33.89-14.6,69.137-14.955,104.137
				h70.481C145.066,475.936,145.357,471.557,145.654,467.413z"/>
			<path fill="#F39200" d="M485.641,474.047c-1.216-36.956-5.274-73.557-18.551-108.424c-6.93-18.198-24.014-27.457-41.711-23.448
				c-17.551,3.975-28.461,19.864-27.265,39.306c0.194,3.158-0.171,6.61-1.295,9.539c-5.398,14.065-16.325,21.487-30.909,20.446
				c-13.37-0.955-26.581-4.502-39.786-7.268c-10.671-2.235-22.126,3.59-25.477,13.482c-3.419,10.095,1.727,22.057,11.707,26.374
				c4.551,1.969,9.378,3.364,14.166,4.71c28.383,7.985,56.233,9.424,82.564-7.024c0.543-0.339,1.484,0.048,2.572,0.048
				c1.242,12.737,2.648,25.146,3.908,38.146h70.424C485.845,477.936,485.702,475.914,485.641,474.047z"/>
		</g>
	</g>
</g>
</svg>
