<?xml version="1.0" encoding="utf-8"?>
<!-- Generator: Adobe Illustrator 17.0.0, SVG Export Plug-In . SVG Version: 6.00 Build 0)  -->
<!DOCTYPE svg PUBLIC "-//W3C//DTD SVG 1.1//EN" "http://www.w3.org/Graphics/SVG/1.1/DTD/svg11.dtd">
<svg version="1.1" id="Capa_1" xmlns="http://www.w3.org/2000/svg" xmlns:xlink="http://www.w3.org/1999/xlink" x="0px" y="0px"
	 width="566.929px" height="566.929px" viewBox="0 0 566.929 566.929" enable-background="new 0 0 566.929 566.929"
	 xml:space="preserve">
<g>
	<g>
		<path fill="#F39200" d="M436.749,479.965H180.728c-10.195,0-18.489-8.294-18.489-18.489V105.454
			c0-10.195,8.294-18.489,18.489-18.489h256.021c10.195,0,18.489,8.294,18.489,18.489v356.021
			C455.239,471.671,446.945,479.965,436.749,479.965z M180.728,100.965c-2.476,0-4.489,2.014-4.489,4.489v356.021
			c0,2.476,2.014,4.489,4.489,4.489h256.021c2.476,0,4.489-2.014,4.489-4.489V105.454c0-2.476-2.014-4.489-4.489-4.489H180.728z"/>
	</g>
	<g>
		<rect x="203.969" y="442.395" fill="#F39200" width="219.27" height="7"/>
	</g>
	<g>
		<rect x="203.969" y="421.465" fill="#F39200" width="219.27" height="7"/>
	</g>
	<g>
		<rect x="203.969" y="400.534" fill="#F39200" width="219.27" height="7"/>
	</g>
	<g>
		<rect x="203.969" y="379.603" fill="#F39200" width="219.27" height="7"/>
	</g>
	<g>
		<rect x="203.969" y="358.673" fill="#F39200" width="219.27" height="7"/>
	</g>
	<g>
		<rect x="203.969" y="337.742" fill="#F39200" width="219.27" height="7"/>
	</g>
	<g>
		<rect x="203.969" y="316.811" fill="#F39200" width="219.27" height="7"/>
	</g>
	<g>
		<rect x="203.969" y="295.881" fill="#F39200" width="219.27" height="7"/>
	</g>
	<g>
		<rect x="203.969" y="274.95" fill="#F39200" width="219.27" height="7"/>
	</g>
	<g>
		<rect x="203.969" y="254.019" fill="#F39200" width="219.27" height="7"/>
	</g>
	<g>
		<rect x="203.969" y="233.088" fill="#F39200" width="219.27" height="7"/>
	</g>
	<g>
		<rect x="203.969" y="212.157" fill="#F39200" width="219.27" height="7"/>
	</g>
	<g>
		<rect x="203.969" y="191.227" fill="#F39200" width="219.27" height="7"/>
	</g>
	<g>
		<rect x="245.239" y="139.965" fill="#F39200" width="178" height="21"/>
	</g>
	<g>
		<path fill="#F39200" d="M149.653,435.547c10.812-34.86,36.489-62.386,47.301-97.246c0.323-1.182,0.449-2.404,0.43-3.641
			c48.99,9.823,99.8-16.054,119.517-63.953c22.378-54.365-3.646-116.799-58.01-139.176s-116.798,3.645-139.176,58.01
			c-19.716,47.899-1.845,102.046,39.863,129.558c-0.884,0.865-1.655,1.822-2.258,2.889c-16.861,32.37-18.003,69.995-34.864,102.366
			c-4.307,7.628-1.62,16.354,7.607,20.153C139.291,448.303,147.342,443.996,149.653,435.547z"/>
	</g>
	<g>
		<path fill="#FFFFFF" d="M145.97,200.347c16.419-39.888,62.226-58.981,102.114-42.562s58.981,62.226,42.562,102.114
			c-16.419,39.888-62.226,58.981-102.114,42.562S129.551,240.235,145.97,200.347z"/>
	</g>
</g>
</svg>
