<?xml version="1.0" encoding="utf-8"?>
<!-- Generator: Adobe Illustrator 19.0.1, SVG Export Plug-In . SVG Version: 6.00 Build 0)  -->
<svg version="1.1" id="Capa_1" xmlns="http://www.w3.org/2000/svg" xmlns:xlink="http://www.w3.org/1999/xlink" x="0px" y="0px"
	 viewBox="-55 147 500 500" style="enable-background:new -55 147 500 500;" xml:space="preserve">
<style type="text/css">
	.st0{fill:#662D91;}
	.st1{fill:#C1272D;}
	.st2{fill:#F38B00;}
	.st3{fill:#FFFFFF;}
	.st4{fill:none;}
</style>
<g>
	<g>
		<path class="st0" d="M195.5,396.9l0.3-0.5l-0.5,0.4L195.1,160c0,0,0,0-0.1,0C64.2,160-41.9,265.9-41.9,396.7S64.2,633.5,195,633.5
			c130.7,0,236.6-105.8,236.9-236.4L195.5,396.9z"/>
	</g>
	<g>
		<path class="st1" d="M409.8,296.5l-214.1,99.9l-0.3,0.5l236.4,0.1c0-0.2,0-0.3,0-0.5C431.9,360.8,424,326.9,409.8,296.5z"/>
	</g>
	<g>
		<path class="st2" d="M295.7,182.1c-30.5-14.4-64.6-22.4-100.6-22.4l0.1,237l0.5-0.3l214.1-99.9
			C386.4,246.3,345.8,205.7,295.7,182.1z"/>
	</g>
</g>
<g>
	<g>
		<path class="st2" d="M195.1,248.2C113,248.2,46.3,315,46.3,397S113,545.8,195.1,545.8S343.9,479,343.9,397
			S277.1,248.2,195.1,248.2z"/>
		<path class="st3" d="M195.1,547.8c-83.1,0-150.8-67.6-150.8-150.8c0-83.1,67.6-150.8,150.8-150.8S345.9,313.9,345.9,397
			S278.2,547.8,195.1,547.8z M195.1,250.2c-80.9,0-146.8,65.8-146.8,146.8s65.8,146.8,146.8,146.8c80.9,0,146.8-65.8,146.8-146.8
			S276,250.2,195.1,250.2z"/>
	</g>
	<g>
		<path class="st3" d="M310.4,397c0,8.2-0.9,16.1-2.5,23.8l-106.7-26.3l60.1-91.9C291,323.5,310.4,358,310.4,397z"/>
		<path class="st3" d="M309.5,423.3l-111.4-27.4l62.7-96l1.7,1.2c31.3,22,49.9,57.9,49.9,96c0,8.1-0.9,16.3-2.5,24.2L309.5,423.3z
			 M204.5,393.3l101.9,25.1c1.3-7,2-14.2,2-21.4c0-36.1-17.4-70.2-46.6-91.5L204.5,393.3z"/>
	</g>
	<g>
		<path class="st3" d="M254.9,298.4l-59.7,91.4l-57.6-92.7c17-9.8,36.6-15.4,57.6-15.4C217,281.7,237.4,287.8,254.9,298.4z"/>
		<path class="st3" d="M195.1,393.5l-60.4-97.2l1.8-1c17.7-10.3,38-15.7,58.6-15.7c21.5,0,42.5,5.9,60.9,17l1.8,1.1L195.1,393.5z
			 M140.3,297.8l54.9,88.3l56.9-87c-17.3-10.1-36.9-15.4-57-15.4C175.9,283.7,157,288.5,140.3,297.8z"/>
	</g>
	<g>
		<path class="st3" d="M131,301.2l58,93.4L82.2,420.8c-1.6-7.7-2.5-15.7-2.5-23.8C79.7,357.1,100.1,321.9,131,301.2z"/>
		<path class="st3" d="M80.7,423.3l-0.4-2c-1.7-7.9-2.5-16.1-2.5-24.2c0-39.1,19.5-75.6,52.1-97.5l1.7-1.2l60.6,97.5L80.7,423.3z
			 M130.4,304c-30.5,21.3-48.6,55.9-48.6,93c0,7.2,0.7,14.4,2,21.4l102.1-25.1L130.4,304z"/>
	</g>
	<g>
		<path class="st3" d="M84.1,428.3l107.2-26.4l0.1,110.4C140.2,510.7,97.4,475.6,84.1,428.3z"/>
		<path class="st3" d="M193.4,514.3l-2.1-0.1c-25.3-0.8-49.1-9.5-69-25.3c-19.5-15.5-33.4-36.3-40.2-60.1l-0.6-2l111.7-27.5
			L193.4,514.3z M86.6,429.8c6.6,21.9,20.2,41.8,38.2,56.1c18.6,14.8,40.9,23.2,64.6,24.3l-0.1-105.7L86.6,429.8z"/>
	</g>
	<g>
		<path class="st3" d="M199.1,512.3l-0.1-110.3l107.2,26.4C292.8,475.5,250.1,510.5,199.1,512.3z"/>
		<path class="st3" d="M197.1,514.3l-0.1-115l111.6,27.5l-0.6,2c-6.7,23.8-20.6,44.6-40.1,60c-19.8,15.7-43.6,24.5-68.8,25.4
			L197.1,514.3z M200.9,404.5l0.1,105.7c23.6-1.2,45.8-9.6,64.4-24.4c18.3-14.5,31.4-33.9,38.1-56L200.9,404.5z"/>
	</g>
	<g id="Ojtaj1_1_">
		<g>
			<g>
				<path class="st2" d="M209.7,372.7c-0.1,2.1-0.3,4.2-0.3,6.2c0,24.5,0,49,0,73.4c0,1.6,0,3.2-0.1,4.8c-0.3,4.2-2.2,6.9-6.7,6.8
					c-4.5-0.1-6.3-2.9-6.4-7.1c0-12.2,0-24.5,0-36.7c0-3.8,0-7.6,0-11.5c-0.6,0-1.2,0-1.8,0c-0.1,1.8-0.3,3.7-0.3,5.5
					c0,13.6-0.1,27.3,0,40.9c0,4.7-0.9,8.7-6.5,8.8c-5.7,0.1-6.6-3.9-6.6-8.6c0.1-25.5,0-51,0-76.4c0-2.1,0-4.2,0-6.3
					c-0.5,0-1.1-0.1-1.6-0.1c-0.2,1.4-0.7,2.7-0.7,4.1c-0.1,8.4-0.1,16.9,0,25.3c0,3.4-0.7,6.3-4.6,6.4c-4.3,0.1-5.1-2.9-5.1-6.5
					c0.1-10.6-0.1-21.3,0.1-31.9c0.1-8.8,5.3-14.6,13.9-15.1c8.2-0.4,16.5-0.4,24.7,0.1c8.1,0.5,13.3,6.1,13.4,14.2
					c0.2,11,0.1,22.1,0.1,33.1c0,3.4-0.9,6.2-4.9,6.2c-3.9-0.1-4.9-2.9-4.9-6.2c0-7.8,0-15.7,0-23.5c0-1.9,0-3.8,0-5.7
					C210.8,372.8,210.2,372.8,209.7,372.7z"/>
			</g>
			<g>
				<path class="st2" d="M195.8,330c6.1,0.4,10.7,5.5,10.5,11.6c-0.3,6.1-5.4,10.9-11.5,10.7c-6.4-0.2-11.1-5.5-10.7-12
					C184.5,334.2,189.6,329.6,195.8,330z"/>
			</g>
		</g>
	</g>
</g>
<g id="fyBgk0_1_">
	<g>
		<g>
			<path class="st2" d="M274.8,347.4c-0.3-0.7-0.6-1.5-0.9-2.2c0-0.1,0-0.3,0-0.4c-0.6-2.9-0.1-5.6,1.7-8c0.8-1.1,2-1.9,3-2.8
				c0.8-0.3,1.6-0.6,2.4-1c0.1,0,0.2,0,0.3,0c2.2-0.5,4.3-0.2,6.4,0.7c8.7,3.7,17.3,7.3,26,10.9c0.2,0.1,0.5,0.2,0.8,0.3
				c0.1-0.3,0.2-0.5,0.4-0.8c3.7-8.8,7.4-17.5,11.1-26.3c0.4-0.8,0.8-1.7,1.4-2.4c0.8-0.9,1.8-1.7,2.7-2.5c0.8-0.3,1.6-0.6,2.4-1
				c0.2,0,0.3,0,0.5-0.1c2.9-0.6,5.5-0.1,7.8,1.7c1.1,0.8,1.9,2,2.8,3c0.3,0.7,0.6,1.5,0.9,2.2c0,0.1,0,0.3,0,0.4
				c0.5,2,0.3,4-0.5,5.9c-6.1,14.6-12.3,29.3-18.5,43.9c-0.2,0.4-0.3,0.9-0.5,1.3c-0.1,0-0.2,0.1-0.3,0.1c-0.3-0.1-0.5-0.3-0.8-0.4
				c-14.7-6.2-29.5-12.4-44.2-18.6c-1.6-0.7-3-1.7-4.1-3.1C275.4,348.2,275.1,347.8,274.8,347.4z"/>
			<path class="st3" d="M324.7,372.9l-1.1-0.6c-0.1-0.1-0.2-0.1-0.3-0.2c-14.7-6.2-29.5-12.4-44.2-18.6c-2-0.8-3.7-2.1-4.9-3.7
				c-0.2-0.3-0.4-0.6-0.6-0.9l-0.4-0.6l-1.1-2.7l0-0.5c0,0,0,0,0,0.1c-0.8-3.5,0-6.9,2.1-9.6c0.7-0.9,1.5-1.6,2.3-2.2
				c0.3-0.3,0.6-0.5,0.9-0.8l0.3-0.2l3.1-1.3l0.5,0c2.4-0.5,4.8-0.2,7.3,0.8c6.5,2.8,13.1,5.5,19.6,8.2l5.3,2.2l2.3-5.5
				c2.8-6.6,5.5-13.2,8.3-19.8c0.5-1.2,1.1-2.2,1.7-2.9c0.7-0.8,1.4-1.4,2.1-2c0.3-0.2,0.5-0.5,0.8-0.7l0.3-0.2l2.9-1.2l0.7-0.1
				c0.8-0.2,1.7-0.3,2.6-0.3c2.5,0,4.8,0.8,6.9,2.4c0.9,0.7,1.6,1.5,2.3,2.4c0.3,0.3,0.5,0.6,0.8,0.9l0.2,0.3l1.2,2.9l0,0.5l0,0
				c0.5,2.4,0.3,4.8-0.6,7.1l-18.5,43.9c-0.1,0.2-0.2,0.5-0.3,0.8l-0.5,1.3L324.7,372.9z M276.6,346.5l0.1,0.2
				c0.2,0.3,0.4,0.5,0.5,0.7c0.8,1.1,1.9,1.9,3.3,2.5c14.4,6.1,28.9,12.1,43.3,18.2l18.3-43.5c0.6-1.5,0.8-3.1,0.4-4.7
				c0-0.2-0.1-0.3-0.1-0.5l-0.6-1.6c-0.2-0.3-0.4-0.5-0.7-0.8c-0.6-0.7-1.1-1.3-1.7-1.7c-1.8-1.4-3.8-1.8-6.2-1.3
				c-0.1,0-0.3,0.1-0.5,0.1l-1.8,0.7c-0.2,0.2-0.4,0.4-0.6,0.5c-0.6,0.5-1.2,1-1.7,1.6c-0.4,0.4-0.7,1-1.1,1.8
				c-2.8,6.6-5.6,13.2-8.3,19.8l-2.7,6.5c-0.1,0.2-0.2,0.4-0.3,0.6l-0.9,2l-2-0.8c-0.2-0.1-0.4-0.2-0.6-0.2l-6.4-2.7
				c-6.5-2.7-13.1-5.5-19.6-8.2c-1.8-0.8-3.5-1-5.1-0.6l-0.4,0.1l-1.6,0.7c-0.3,0.2-0.5,0.4-0.8,0.7c-0.7,0.5-1.3,1.1-1.7,1.6
				c-1.4,1.8-1.9,3.9-1.4,6.3c0,0.1,0,0.3,0.1,0.4L276.6,346.5z"/>
		</g>
	</g>
</g>
<g>
	<path class="st3" d="M12.3,503.7L8.2,496c-1.1-2.1-1.6-4.1-1.3-5.8c0.3-1.7,1.3-3.1,3.1-4c1.6-0.9,3.6-1,5.5,0.2
		c-0.6-4,2.2-5.6,3-6c1.7-0.9,3.9-1.2,5.6-0.5c2.6,1.1,3.6,2.3,5.4,5.9l3.6,6.9L12.3,503.7z M17.4,494.1l-1-1.9
		c-0.2-0.4-0.5-0.9-0.9-1.3c-0.5-0.4-1.1-0.5-1.9-0.1c-0.8,0.4-1,1-1,1.6c0,0.6,0.3,1.1,0.6,1.5l1,1.9L17.4,494.1z M25.7,489.7
		l-1.3-2.5c-0.2-0.3-0.5-1-1.1-1.4c-0.6-0.5-1.3-0.7-2.3-0.1c-0.9,0.5-1.1,1.2-1,1.9c0.1,0.7,0.4,1.3,0.6,1.8l1.3,2.5L25.7,489.7z"
		/>
	<path class="st3" d="M2.1,483.5l-2.3-5.6l17-7l-2.7-6.5l4.9-2l5,12.1L2.1,483.5z"/>
	<path class="st3" d="M7.8,466.2c-7.4,2.2-13.7-2.1-15.6-8.4c-2.1-7,1.9-13.6,8.2-15.5c6.3-1.9,13.3,1.5,15.4,8.5
		C17.9,458,13.6,464.5,7.8,466.2L7.8,466.2z M5.8,460.5c3.5-1,6-4.4,4.9-8.3c-1.2-4.1-5.6-5-8.5-4.1c-2.9,0.9-6.1,4-4.9,8.2
		C-1.5,460.3,2.6,461.5,5.8,460.5L5.8,460.5z"/>
	<path class="st3" d="M7.9,411.5c0.1,0.4,0.2,0.9,0.3,1.5c0.5,3.2-0.4,5-1,5.8c2.1,2.5,2.6,4.8,2.8,6.3c1.1,7.6-4.3,13.3-10.2,14.2
		c-6.1,0.9-13-2.9-14.1-10.5s4.1-13.4,10.1-14.3c3.9-0.6,6.1,0.5,7.1,0.9c0.6-0.8,0.5-1.8,0.3-3.2L7.9,411.5z M-9,427.9
		c0.4,2.8,2.4,4.8,5.4,5.3c0.3,0,0.6,0.1,1,0.1c-0.3-0.7-0.9-1.8-1.2-3.4c-0.3-1.7-0.1-3.2,0.8-5.2c0.8-1.7,1.6-2.8,2.7-4.2
		c-0.8-0.3-1.9-0.4-3.1-0.2C-7.4,421-9.6,424.4-9,427.9L-9,427.9z M4.8,425.8c-0.1-0.9-0.5-1.9-0.8-2.3c-0.8,0.9-1.4,1.6-1.8,2.3
		c-0.8,1.4-1,2.8-0.8,4c0.2,1,0.4,1.7,0.7,2.1C4.3,430.6,5.1,427.8,4.8,425.8L4.8,425.8z"/>
	<path class="st3" d="M-16.1,404.2l14.3-0.3c0.8,0,1.9-0.1,2.8-0.5c0.9-0.4,1.6-1.2,1.6-2.7c0-1.5-0.7-2.3-1.6-2.6
		c-0.9-0.4-2.1-0.3-3-0.3l-14.3,0.3l-0.1-6l14.3-0.3c4-0.1,5.7,0.7,7.3,2.2c1.6,1.5,2.6,3.6,2.7,6.6c0,1.7-0.3,4.9-2.4,6.9
		c-2.1,2-3.8,2.4-7.2,2.5l-14.3,0.3L-16.1,404.2z"/>
	<path class="st3" d="M-16.1,386l1.1-13.4l5.3,0.4l-0.6,7.3l3.7,0.3l0.6-7.1l5.3,0.4l-0.6,7.1l4.1,0.3l0.6-7.3l5.3,0.4l-1.1,13.4
		L-16.1,386z"/>
	<path class="st3" d="M-10.9,349.2c1-4.3,2-5.7,3.3-6.7c1.9-1.5,4.4-1.8,6.7-1.3c2.3,0.5,4.6,2.1,5.5,3.8c1,1.9,1.3,3.6,0.5,7.2
		l-0.5,2.3l7.2,1.7l-1.4,5.9l-23.1-5.3L-10.9,349.2z M-0.6,353.3l0.5-2.2c0.1-0.6,0.3-1.5,0.2-2.4c-0.2-0.9-0.7-1.6-2.1-2
		c-1.4-0.3-2.2,0.2-2.7,0.9c-0.5,0.7-0.8,1.7-0.9,2.4l-0.4,1.9L-0.6,353.3z"/>
	<path class="st3" d="M-7.3,335.1l2.5-7.3c1.2-3.5,2.6-5.5,4-6.4c2.1-1.4,4.6-1.5,7-0.6c1.7,0.6,2.9,1.5,3.7,2.5
		c0.9,1.2,1.3,2.5,1.4,3.7l9.8-1.8l-2,5.9l-12.8,2.1l0.3-0.9c0.5-1.5,0.8-2.7,0.6-3.7c-0.2-0.9-1.1-1.8-2.3-2.2
		c-1.2-0.4-2.3-0.2-3.1,0.4c-0.6,0.5-1.1,1.3-1.4,2.1l-0.7,2.1l17.4,6l-2,5.7L-7.3,335.1z"/>
	<path class="st3" d="M10.8,319.6c-7-3.4-8.6-10.9-5.8-16.7c3.2-6.6,10.6-8.7,16.5-5.8s8.8,10.1,5.5,16.7
		C23.8,320.5,16.3,322.3,10.8,319.6L10.8,319.6z M13.2,314.1c3.2,1.6,7.4,0.9,9.2-2.8c1.9-3.9-0.7-7.4-3.4-8.8
		c-2.8-1.4-7.2-1.2-9.1,2.7C7.9,309,10.2,312.6,13.2,314.1L13.2,314.1z"/>
	<path class="st3" d="M13.8,287.4l6.9-10.9l4.5,2.9l-3.7,5.8l3.4,2.2l3.6-5.6l4.5,2.9l-3.6,5.6L37,295l-3.3,5.1L13.8,287.4z"/>
	<path class="st3" d="M23.6,272.6l8.1-10.7l4.2,3.2l-4.5,5.9l2.9,2.2l4.3-5.7l4.2,3.2l-4.3,5.7l3.2,2.5l4.5-5.9l4.2,3.2l-8.1,10.7
		L23.6,272.6z"/>
	<path class="st3" d="M49.8,265.2c2,1.9,3.5,0.9,4,0.4c1-1.1,0.7-2.5-0.1-3.2c-0.9-0.8-1.9-0.4-5.5,1.3c-1.6,0.8-5.6,2.7-8.9-0.3
		c-3.5-3.2-2.5-8.1,0.2-11c2.2-2.4,6.5-4.7,10.8-0.9l-4,4.4c-0.7-0.4-1.9-1.3-3.2,0c-0.7,0.8-0.9,2,0,2.8c0.8,0.7,1.4,0.5,5.7-1.4
		c4.4-1.9,6.7-1.4,8.7,0.5c2.8,2.6,4.3,6.6,0,11.2c-4.2,4.6-8.6,4-11.9,0.7L49.8,265.2z"/>
	<path class="st3" d="M48.5,243.7l4.4-4.1l16.2,17.2l-4.4,4.1L48.5,243.7z"/>
	<path class="st3" d="M63.9,245.5c-4.7-6.1-3-13.6,2.2-17.6c5.8-4.5,13.4-3.2,17.4,2s3.4,12.9-2.4,17.4
		C75.2,252,67.6,250.3,63.9,245.5L63.9,245.5z M68.5,241.6c2.2,2.9,6.2,4,9.5,1.5c3.4-2.6,2.6-7,0.8-9.4c-1.9-2.4-5.9-4.3-9.4-1.6
		C66,234.7,66.4,238.9,68.5,241.6L68.5,241.6z"/>
	<path class="st3" d="M100.7,222.8l-7.4-12.4l5-2.9l11.9,20.5l-4.5,2.6l-15-7.8l7.3,12.3l-5,2.9l-11.9-20.5l4.5-2.6L100.7,222.8z"/>
	<path class="st3" d="M117.8,224.5l-6,2.6l-0.6-25.5l4.8-2l17.6,18.2l-6.1,2.6l-2.4-2.7l-7.6,3.2L117.8,224.5z M116.1,207.3l0.9,8.6
		l4.8-2L116.1,207.3z"/>
	<path class="st3" d="M128.6,194.8l5.8-1.8l5.4,17.6l6.7-2.1l1.6,5.1l-12.5,3.9L128.6,194.8z"/>
	<path class="st3" d="M203.5,191.9l5.7,0.3c1.6,0.1,2.9,0.5,3.7,1.3c0.9,0.7,1.3,1.8,1.2,3.1c-0.1,1.2-0.7,2.4-2,3
		c2.4,1,2.4,3.1,2.3,3.8c-0.1,1.2-0.6,2.6-1.6,3.3c-1.5,1.1-2.5,1.2-5.2,1l-5.1-0.3L203.5,191.9z M206.7,204.1l1.9,0.1
		c0.3,0,0.8,0,1.2-0.1c0.5-0.2,0.8-0.5,0.9-1.3c0-0.7-0.3-1-0.7-1.2c-0.4-0.2-0.9-0.2-1.2-0.2l-1.9-0.1L206.7,204.1z M207.1,198
		l1.4,0.1c0.3,0,0.7,0,1.1-0.1c0.4-0.1,0.7-0.4,0.7-1.1c0-0.6-0.2-0.9-0.5-1.1c-0.3-0.2-0.7-0.2-1.1-0.2l-1.4-0.1L207.1,198z"/>
	<path class="st3" d="M217.7,192.9l3.9,0.5l-1.4,12l4.6,0.5l-0.4,3.5l-8.5-1L217.7,192.9z"/>
	<path class="st3" d="M225.5,201.7c0.9-5,5.4-7.4,9.6-6.6c4.7,0.9,7.4,5.2,6.6,9.4s-4.8,7.3-9.6,6.4
		C227.3,210,224.8,205.6,225.5,201.7L225.5,201.7z M229.4,202.2c-0.4,2.3,0.7,4.8,3.4,5.3c2.8,0.5,4.6-1.7,5-3.7
		c0.4-2-0.5-4.8-3.3-5.3C231.7,198,229.8,200.1,229.4,202.2L229.4,202.2z"/>
	<path class="st3" d="M257.7,217.4c-0.3-0.1-0.6-0.1-1-0.2c-2.1-0.6-2.9-1.6-3.2-2.2c-2,0.6-3.5,0.2-4.5,0c-4.8-1.4-6.8-6.2-5.7-10
		c1.1-3.9,5.3-7,10.1-5.6c4.8,1.4,6.9,6.1,5.8,9.9c-0.7,2.5-1.9,3.5-2.5,4c0.3,0.6,0.9,0.8,1.8,1.1L257.7,217.4z M249.9,211.6
		c0.6,0.2,1.2,0.2,1.6,0.1c-0.3-0.7-0.6-1.3-0.9-1.7c-0.6-0.9-1.4-1.4-2.1-1.6c-0.6-0.2-1.1-0.2-1.5-0.2
		C247.2,210,248.7,211.3,249.9,211.6L249.9,211.6z M252.4,202.8c-1.8-0.5-3.5,0.1-4.6,1.8c-0.1,0.2-0.3,0.3-0.3,0.6
		c0.5,0,1.3-0.1,2.3,0.2c1.1,0.3,2,0.8,2.9,1.9c0.8,1,1.2,1.7,1.7,2.8c0.4-0.4,0.7-1,0.9-1.8C256.1,205.6,254.7,203.4,252.4,202.8
		L252.4,202.8z"/>
	<path class="st3" d="M268,204.5l-3.3,8.8c-0.2,0.5-0.4,1.2-0.4,1.8c0,0.7,0.3,1.3,1.2,1.6c0.9,0.4,1.6,0.1,2-0.3
		c0.4-0.5,0.7-1.2,0.9-1.7l3.4-8.8l3.7,1.4l-3.4,8.8c-0.9,2.4-1.9,3.3-3.2,3.9c-1.3,0.6-2.9,0.7-4.7,0c-1.1-0.4-2.9-1.4-3.6-3.1
		c-0.7-1.8-0.6-2.9,0.3-5l3.3-8.8L268,204.5z"/>
	<path class="st3" d="M278.6,208.8l8,3.7l-1.5,3.2l-4.4-2l-1,2.2l4.3,2l-1.5,3.2l-4.3-2l-1.1,2.4l4.4,2l-1.5,3.2l-8-3.7L278.6,208.8
		z"/>
	<path class="st3" d="M289.6,231.6l-3.7-2.2l13.2-10.3l3,1.7l-2.7,16.4l-3.8-2.2l0.5-2.3l-4.7-2.8L289.6,231.6z M298,224l-4.2,3.8
		l3,1.7L298,224z"/>
	<path class="st3" d="M311.4,238.4l5.4-7.8l3.1,2.2l-8.9,12.7l-2.8-2l0.5-11.1l-5.3,7.7l-3.1-2.2l8.9-12.7l2.8,2L311.4,238.4z"/>
	<path class="st3" d="M315.2,248.9l-3.3-2.8l14.7-8l2.6,2.2l-5.4,15.8l-3.3-2.8l0.9-2.2l-4.2-3.5L315.2,248.9z M324.7,242.7
		l-4.8,3.1l2.6,2.2L324.7,242.7z M333,236.6l-0.7,2.6l-5.4-1.5l0.6-2.2L333,236.6z"/>
	<path class="st3" d="M324.7,256.9l10.9-11.1l2.8,2.8l-4.1,4.2l3.6,3.6l4.1-4.2l2.8,2.8L334,266l-2.8-2.8l4.4-4.4l-3.6-3.6l-4.4,4.4
		L324.7,256.9z"/>
	<path class="st3" d="M349.9,260.5l-7.1,6.2c-0.4,0.3-0.9,0.8-1.2,1.4c-0.3,0.6-0.3,1.3,0.3,2c0.6,0.7,1.3,0.8,1.9,0.6
		c0.6-0.2,1.2-0.7,1.6-1.1l7.1-6.2l2.6,3l-7.1,6.2c-2,1.7-3.2,2-4.6,2c-1.4-0.1-2.9-0.7-4.1-2.2c-0.7-0.9-1.9-2.6-1.7-4.5
		c0.2-1.9,0.9-2.8,2.6-4.3l7.1-6.2L349.9,260.5z"/>
	<path class="st3" d="M346.3,280.4l-2.6-3.4l16.1-4.4l2.1,2.7l-8.9,14.1l-2.6-3.5l1.4-1.9l-3.3-4.4L346.3,280.4z M356.9,276.6
		l-5.3,1.9l2.1,2.7L356.9,276.6z"/>
	<path class="st3" d="M366.1,299.2c-3.6,1.2-7.4-0.2-9.4-3.4c-2.6-4.1-1.1-9,2.4-11.2c3.4-2.1,8.4-1.7,11.2,2.6
		c2.6,4.1,0.8,8.3-1,10l-2.2-3.5c0.7-1,1.4-2.8,0.3-4.6c-1.4-2.3-4.2-2.3-6.1-1.1c-2,1.3-3,3.8-1.7,6c1.3,2.1,3.6,1.8,4.2,1.8
		L366.1,299.2z"/>
</g>
<g>
	<path class="st3" d="M74.4,466.7l-4.5-8.4l3.4-1.8l2.4,4.4l2.6-1.4l-2.3-4.3l3.4-1.8l2.3,4.3l5.8-3.1l2.1,3.9L74.4,466.7z"/>
	<path class="st3" d="M76.6,452.2c-5.3,2-10.2-0.8-11.9-5.3c-1.9-5,0.6-10.1,5.1-11.8c4.5-1.7,9.8,0.3,11.7,5.4
		C83.5,445.6,80.8,450.6,76.6,452.2L76.6,452.2z M74.8,448.1c2.5-0.9,4.2-3.5,3.1-6.3c-1.1-2.9-4.3-3.3-6.4-2.5
		c-2.1,0.8-4.3,3.3-3.1,6.2C69.5,448.4,72.5,449,74.8,448.1L74.8,448.1z"/>
	<path class="st3" d="M60.7,434l-1.3-5.5c-0.6-2.7-0.5-4.4,0-5.5c0.8-1.7,2.3-2.7,4.2-3.1c1.3-0.3,2.4-0.2,3.3,0.1
		c1,0.4,1.8,1.1,2.3,1.8l5.4-4.9l1,4.5l-7.2,6.3l-0.2-0.7c-0.3-1.1-0.6-2-1.1-2.5c-0.5-0.4-1.4-0.7-2.3-0.5
		c-0.9,0.2-1.5,0.8-1.7,1.5c-0.2,0.5-0.2,1.3-0.1,1.9l0.4,1.6l13.1-3l1,4.3L60.7,434z"/>
	<path class="st3" d="M74.3,415.7L57,417.1l-0.5-5.9l10.9-4.1L56,404.7l-0.5-5.9l17.3-1.3l0.3,4.1l-13,0.9l13.3,2.7l0.2,2.9
		L61,412.8l12.9-1.1L74.3,415.7z"/>
	<path class="st3" d="M73.3,391.4l-0.4,4.8L56.1,388l0.3-3.8l17.8-5.3l-0.4,4.8l-2.6,0.6l-0.5,6.1L73.3,391.4z M61.5,386.7l5.9,2.3
		l0.3-3.8L61.5,386.7z"/>
	<path class="st3" d="M71.6,360.8c3.8,1.9,5.7,5.9,4.8,10c-1.2,5.3-6.2,8-10.8,7c-4.3-0.9-8.1-5.3-6.8-10.8c1.2-5.3,5.9-7.3,8.6-7.2
		l-1,4.5c-1.4,0.2-3.3,1.1-3.9,3.5c-0.6,2.9,1.6,5.1,4,5.6c2.6,0.6,5.4-0.6,6-3.5c0.6-2.7-1.4-4.3-2-4.7L71.6,360.8z"/>
	<path class="st3" d="M62.3,355l1.4-4.2l16.5,5.5l-1.4,4.2L62.3,355z"/>
	<path class="st3" d="M63.9,333.6l3,0l-0.1,6.3l-2.6,0L63.9,333.6z M72.8,350.7c-5.2-2.4-6.5-7.8-4.5-12.2c2.2-4.9,7.6-6.6,12-4.5
		s6.6,7.2,4.3,12.1C82.4,351.1,76.9,352.6,72.8,350.7L72.8,350.7z M74.5,346.6c2.4,1.1,5.4,0.5,6.7-2.2c1.3-2.9-0.6-5.4-2.7-6.4
		c-2-0.9-5.3-0.8-6.6,2.1C70.6,343,72.3,345.6,74.5,346.6L74.5,346.6z"/>
	<path class="st3" d="M89.4,323.6l-8.9-5.8l2.3-3.5l14.5,9.6l-2.1,3.2l-12.4-0.2l8.8,5.7l-2.3,3.5l-14.5-9.6l2.1-3.2L89.4,323.6z"/>
	<path class="st3" d="M90.9,304.6l3-3.3l12.8,11.7l-3,3.3L90.9,304.6z"/>
	<path class="st3" d="M111.8,298.9l-7.1-7.8l3.2-2.8l11.6,13l-2.9,2.6l-11.9-3.4l7,7.8l-3.2,2.8l-11.6-13l2.9-2.5L111.8,298.9z"/>
	<path class="st3" d="M115.7,287.4l-2.8,2l-2.2-3.2l9.2-6.5l2.2,3.2l-2.8,2l7.7,11l-3.6,2.5L115.7,287.4z"/>
	<path class="st3" d="M122.5,278.1l8.6-4.8l1.9,3.4l-4.7,2.7l1.3,2.3l4.6-2.6l1.9,3.4l-4.6,2.6l1.5,2.6l4.7-2.7l1.9,3.4l-8.6,4.8
		L122.5,278.1z"/>
	<path class="st3" d="M148.4,272c-0.4-0.3-0.8-0.6-1.3-0.7c-0.9-0.3-2-0.4-3.1,0.1c-2,0.8-3.8,3.3-2.5,6.5c1.4,3.4,4.4,3.9,6.4,3
		c1-0.4,1.8-1,2.2-1.7c0.5-0.7,0.7-1.5,0.6-2.4l-4.8,1.9l-1.3-3.3l9.5-3.9c0.6,1.1,1.2,3.1,1.1,4.9c-0.1,4.2-3.2,7-5.9,8
		c-4.9,2-10.1-0.3-12-5c-1.9-4.8,0.5-9.9,5.3-11.8c3.8-1.6,8.2-0.3,10.4,2.4L148.4,272z"/>
	<path class="st3" d="M155.4,263.4l5.5-1.4c2.6-0.7,4.4-0.6,5.5-0.1c1.7,0.7,2.7,2.2,3.2,4.1c0.3,1.3,0.2,2.4-0.1,3.3
		c-0.3,1-1,1.8-1.7,2.3l5,5.3l-4.4,1.1l-6.4-7l0.7-0.2c1.1-0.3,2-0.6,2.5-1.1c0.4-0.5,0.7-1.4,0.4-2.3c-0.2-0.9-0.8-1.5-1.5-1.7
		c-0.6-0.2-1.3-0.2-1.9,0l-1.6,0.4l3.3,13.1l-4.3,1.1L155.4,263.4z"/>
	<path class="st3" d="M177.5,276.4l-4.8,0.5l4.9-18l3.8-0.4l8.6,16.5l-4.8,0.5l-1.1-2.4l-6,0.7L177.5,276.4z M179.9,264l-1.2,6.2
		l3.8-0.4L179.9,264z"/>
	<path class="st3" d="M191.7,257.8l4.4,0.1l-0.2,13.5l5.1,0.1l-0.1,3.9l-9.6-0.2L191.7,257.8z"/>
</g>
<circle class="st4" cx="195" cy="397" r="189.3"/>
<circle class="st4" cx="195" cy="397" r="207.8"/>
<g>
	<path d="M164.9,302.9h5v2h-2.8v1.4h2.7v2h-2.7v1.5h2.8v2h-5V302.9z"/>
	<path d="M173,308.8c0,1,0.6,1.2,0.9,1.2c0.5,0,0.9-0.4,0.9-0.9c0-0.5-0.4-0.6-1.7-1.2c-0.6-0.3-2.2-0.9-2.2-2.5
		c0-1.8,1.6-2.7,3.1-2.7c1.2,0,2.9,0.6,3,2.8h-2.2c0-0.3-0.1-0.9-0.8-0.9c-0.4,0-0.8,0.3-0.8,0.7c0,0.4,0.2,0.5,1.8,1.2
		c1.7,0.7,2.1,1.5,2.1,2.5c0,1.4-0.7,2.8-3.1,2.8c-2.3,0-3.3-1.4-3.2-3.1L173,308.8L173,308.8z"/>
	<path d="M181,302.9c1.6,0,2.3,0.3,2.7,0.6c0.7,0.6,1,1.5,1,2.4c0,0.9-0.4,1.8-0.9,2.3c-0.6,0.5-1.2,0.8-2.6,0.8h-0.9v2.8h-2.3v-8.9
		H181z M180.4,307h0.8c0.2,0,0.6,0,0.9-0.1c0.3-0.1,0.5-0.4,0.5-0.9c0-0.5-0.3-0.8-0.6-0.9c-0.3-0.1-0.7-0.1-0.9-0.1h-0.7L180.4,307
		L180.4,307z"/>
	<path d="M185.8,302.9h2.3v8.9h-2.3V302.9z"/>
	<path d="M189.6,302.9h2.9c1.4,0,2.3,0.3,2.7,0.6c0.7,0.6,1.1,1.5,1.1,2.4c0,0.7-0.2,1.2-0.4,1.6c-0.3,0.5-0.7,0.8-1.2,0.9l1.8,3.3
		h-2.3l-2.3-4.3h0.4c0.6,0,1.1,0,1.4-0.2c0.3-0.2,0.5-0.6,0.5-1.1c0-0.5-0.2-0.8-0.5-1c-0.3-0.2-0.6-0.2-0.9-0.2h-0.8v6.9h-2.3
		L189.6,302.9L189.6,302.9z"/>
	<path d="M197.5,302.9h2.3v8.9h-2.3V302.9z"/>
	<path d="M202.4,304.9h-1.8v-2h5.8v2h-1.7v6.9h-2.3L202.4,304.9L202.4,304.9z"/>
	<path d="M209.6,302.9v5.4c0,0.3,0,0.7,0.2,1.1c0.2,0.3,0.4,0.6,1,0.6c0.6,0,0.9-0.3,1-0.6c0.1-0.3,0.1-0.8,0.1-1.1v-5.4h2.3v5.4
		c0,1.5-0.3,2.1-0.9,2.7c-0.6,0.6-1.4,1-2.5,1c-0.6,0-1.8-0.2-2.6-0.9c-0.7-0.8-0.9-1.4-0.9-2.7v-5.4H209.6z"/>
	<path d="M217,311.8h-2.5l3.5-8.9h2l3.4,8.9h-2.5l-0.4-1.3h-3.1L217,311.8z M218.9,305.6l-1,3.1h2L218.9,305.6z"/>
	<path d="M224.4,302.9h2.3v6.9h2.6v2h-4.9V302.9z"/>
</g>
<g>
	<path d="M95.1,379.3v-8.9h2.3v3.3h2.9v-3.3h2.3v8.9h-2.3v-3.5h-2.9v3.5H95.1z"/>
	<path d="M106.4,370.4v5.4c0,0.3,0,0.7,0.2,1.1c0.2,0.3,0.4,0.6,1,0.6c0.6,0,0.9-0.3,1-0.6c0.1-0.3,0.1-0.8,0.1-1.1v-5.4h2.3v5.4
		c0,1.5-0.3,2.1-0.9,2.7c-0.6,0.6-1.4,1-2.5,1c-0.6,0-1.8-0.2-2.6-0.9c-0.7-0.8-0.9-1.4-0.9-2.7v-5.4L106.4,370.4L106.4,370.4z"/>
	<path d="M112.5,379.3v-8.9h3l1.7,5.7l1.6-5.7h3v8.9h-2.1l0.1-6.6l-1.9,6.6h-1.5l-1.9-6.6l0.1,6.6H112.5z"/>
	<path d="M125.3,379.3h-2.5l3.5-8.9h2l3.4,8.9h-2.5l-0.4-1.3h-3.1L125.3,379.3z M127.2,373.1l-1,3.1h2L127.2,373.1z"/>
	<path d="M138,375.8l0-5.4h2.2v8.9h-2l-3.4-5.3l0,5.3h-2.2v-8.9h2L138,375.8z"/>
	<path d="M143.5,379.3H141l3.5-8.9h2l3.4,8.9h-2.5L147,378h-3.1L143.5,379.3z M145.4,373.1l-1,3.1h2L145.4,373.1z"/>
</g>
<g>
	<path d="M236.1,376.3c0,1,0.6,1.2,0.9,1.2c0.5,0,0.9-0.4,0.9-0.9c0-0.5-0.4-0.6-1.7-1.2c-0.6-0.3-2.2-0.9-2.2-2.5
		c0-1.8,1.6-2.7,3.1-2.7c1.2,0,3,0.6,3,2.8h-2.2c0-0.3-0.1-0.9-0.8-0.9c-0.4,0-0.8,0.3-0.8,0.7c0,0.4,0.2,0.5,1.8,1.2
		c1.7,0.7,2.1,1.5,2.1,2.5c0,1.4-0.7,2.8-3.1,2.8c-2.3,0-3.3-1.4-3.2-3.1L236.1,376.3L236.1,376.3z"/>
	<path d="M240.9,374.9c0-2.9,2.2-4.7,4.7-4.7c2.7,0,4.7,2.1,4.7,4.6c0,2.5-1.9,4.6-4.7,4.6C242.7,379.4,240.9,377.2,240.9,374.9
		L240.9,374.9z M243.1,374.8c0,1.4,0.9,2.6,2.4,2.6c1.6,0,2.4-1.5,2.4-2.6c0-1.2-0.8-2.6-2.4-2.6C244,372.2,243.1,373.6,243.1,374.8
		L243.1,374.8L243.1,374.8z"/>
	<path d="M260.3,376c-0.5,2.1-2.3,3.5-4.5,3.5c-2.8,0-4.7-2.2-4.7-4.6c0-2.3,1.8-4.6,4.7-4.6c2.8,0,4.3,2.1,4.5,3.5h-2.4
		c-0.3-0.7-0.9-1.5-2.1-1.5c-1.5,0-2.4,1.3-2.4,2.6c0,1.3,0.9,2.6,2.4,2.6c1.4,0,2-1.2,2.1-1.5L260.3,376L260.3,376z"/>
	<path d="M261.4,370.4h2.3v8.9h-2.3V370.4z"/>
	<path d="M267.1,379.3h-2.5l3.5-8.9h2l3.4,8.9H271l-0.4-1.3h-3.1L267.1,379.3z M269,373.1l-1,3.1h2L269,373.1z"/>
	<path d="M274.5,370.4h2.3v6.9h2.6v2h-4.9V370.4z"/>
</g>
<g>
	<path d="M99.1,434.8h2.3v8.9h-2.3V434.8z"/>
	<path d="M108.3,440.2l0-5.4h2.2v8.9h-2l-3.4-5.3l0,5.3H103v-8.9h2L108.3,440.2z"/>
	<path d="M113.1,436.8h-1.8v-2h5.8v2h-1.7v6.9h-2.3V436.8z"/>
	<path d="M118.1,434.8h5v2h-2.8v1.4h2.7v2h-2.7v1.5h2.8v2h-5V434.8z"/>
	<path d="M124.5,434.8h2.3v6.9h2.6v2h-4.9V434.8z"/>
	<path d="M130.2,434.8h5v2h-2.8v1.4h2.7v2h-2.7v1.5h2.8v2h-5V434.8z"/>
	<path d="M145.4,440.4c-0.5,2.1-2.3,3.5-4.5,3.5c-2.8,0-4.7-2.2-4.7-4.6c0-2.3,1.8-4.6,4.7-4.6c2.8,0,4.3,2.1,4.5,3.5H143
		c-0.3-0.7-0.9-1.5-2.1-1.5c-1.5,0-2.4,1.3-2.4,2.6c0,1.3,0.9,2.6,2.4,2.6c1.4,0,2-1.2,2.1-1.5H145.4z"/>
	<path d="M147.6,436.8h-1.8v-2h5.8v2h-1.7v6.9h-2.3V436.8z"/>
	<path d="M154.8,434.8v5.4c0,0.3,0,0.7,0.2,1.1c0.2,0.3,0.4,0.6,1,0.6c0.6,0,0.9-0.3,1-0.6c0.1-0.3,0.1-0.8,0.1-1.1v-5.4h2.3v5.4
		c0,1.5-0.3,2.1-0.9,2.7c-0.6,0.6-1.4,1-2.5,1c-0.6,0-1.8-0.2-2.6-0.9c-0.7-0.8-0.9-1.4-0.9-2.7v-5.4L154.8,434.8L154.8,434.8z"/>
	<path d="M162.2,443.7h-2.5l3.5-8.9h2l3.4,8.9h-2.5l-0.4-1.3h-3.1L162.2,443.7z M164.1,437.5l-1,3.1h2L164.1,437.5z"/>
	<path d="M169.6,434.8h2.3v6.9h2.6v2h-4.9V434.8z"/>
</g>
<g>
	<path d="M219.6,434.8c1.6,0,2.3,0.3,2.7,0.6c0.7,0.6,1,1.5,1,2.4c0,0.9-0.4,1.8-0.9,2.3c-0.6,0.5-1.2,0.8-2.6,0.8H219v2.8h-2.3
		v-8.9L219.6,434.8L219.6,434.8z M219,438.9h0.8c0.2,0,0.6,0,0.9-0.1s0.5-0.4,0.5-0.9c0-0.5-0.3-0.8-0.6-0.9
		c-0.3-0.1-0.7-0.1-0.9-0.1H219L219,438.9L219,438.9z"/>
	<path d="M224.3,434.8h2.9c1.4,0,2.3,0.3,2.7,0.6c0.7,0.6,1.1,1.5,1.1,2.4c0,0.7-0.2,1.2-0.4,1.6c-0.3,0.5-0.7,0.8-1.2,0.9l1.8,3.3
		H229l-2.3-4.3h0.4c0.6,0,1.1,0,1.4-0.2c0.3-0.2,0.5-0.6,0.5-1.1c0-0.5-0.2-0.8-0.5-1c-0.3-0.2-0.6-0.2-0.9-0.2h-0.8v6.9h-2.3V434.8
		z"/>
	<path d="M231.7,439.3c0-2.9,2.2-4.7,4.7-4.7c2.7,0,4.7,2.1,4.7,4.6s-1.9,4.6-4.7,4.6C233.6,443.8,231.7,441.6,231.7,439.3
		L231.7,439.3z M234,439.2c0,1.4,0.9,2.6,2.4,2.6c1.6,0,2.4-1.5,2.4-2.6c0-1.2-0.8-2.6-2.4-2.6C234.8,436.6,234,438,234,439.2
		L234,439.2L234,439.2z"/>
	<path d="M242.3,434.8h4.8v2h-2.6v1.5h2.5v2h-2.5v3.4h-2.3V434.8z"/>
	<path d="M248.4,434.8h5v2h-2.8v1.4h2.7v2h-2.7v1.5h2.8v2h-5V434.8z"/>
	<path d="M256.5,440.7c0,1,0.6,1.2,0.9,1.2c0.5,0,0.9-0.4,0.9-0.9c0-0.5-0.4-0.6-1.7-1.2c-0.6-0.3-2.2-0.9-2.2-2.5
		c0-1.8,1.6-2.7,3.1-2.7c1.2,0,3,0.6,3,2.8h-2.2c0-0.3-0.1-0.9-0.8-0.9c-0.4,0-0.8,0.3-0.8,0.7c0,0.4,0.2,0.5,1.8,1.2
		c1.7,0.7,2.1,1.5,2.1,2.5c0,1.4-0.7,2.8-3.1,2.8c-2.3,0-3.3-1.4-3.2-3.1L256.5,440.7L256.5,440.7z"/>
	<path d="M261.6,434.8h2.3v8.9h-2.3V434.8z"/>
	<path d="M265.1,439.3c0-2.9,2.2-4.7,4.7-4.7c2.7,0,4.7,2.1,4.7,4.6s-1.9,4.6-4.7,4.6C267,443.8,265.1,441.6,265.1,439.3
		L265.1,439.3z M267.4,439.2c0,1.4,0.9,2.6,2.4,2.6c1.6,0,2.4-1.5,2.4-2.6c0-1.2-0.8-2.6-2.4-2.6C268.2,436.6,267.4,438,267.4,439.2
		L267.4,439.2z"/>
	<path d="M281.1,440.2l0-5.4h2.2v8.9h-2l-3.4-5.3l0,5.3h-2.2v-8.9h2L281.1,440.2z"/>
	<path d="M286.6,443.7h-2.5l3.5-8.9h2l3.4,8.9h-2.5l-0.4-1.3H287L286.6,443.7z M288.5,437.5l-1,3.1h2L288.5,437.5z"/>
	<path d="M294,434.8h2.3v6.9h2.6v2H294V434.8z"/>
</g>
<g>
	<path class="st3" d="M397.7,310.3l2,5.1c0.6,1.4,0.7,2.7,0.4,3.7c-0.3,1-1,1.8-2.2,2.3c-1.1,0.4-2.3,0.4-3.4-0.5
		c0.1,2.5-1.7,3.3-2.3,3.5c-1.1,0.4-2.5,0.5-3.5-0.1c-1.6-0.8-2.1-1.7-3-4l-1.8-4.5L397.7,310.3z M388.5,318.1l0.7,1.7
		c0.1,0.2,0.3,0.7,0.6,1c0.3,0.3,0.8,0.5,1.4,0.2c0.6-0.2,0.8-0.7,0.8-1.1c0-0.4-0.2-0.9-0.3-1.1l-0.7-1.7L388.5,318.1z
		 M393.9,315.9l0.5,1.2c0.1,0.2,0.2,0.6,0.5,0.9c0.3,0.3,0.7,0.4,1.2,0.2c0.5-0.2,0.7-0.6,0.7-0.9s-0.1-0.7-0.3-1L396,315
		L393.9,315.9z"/>
	<path class="st3" d="M402.7,323l1.2,3.6l-10.9,3.7l1.4,4.1l-3.1,1.1l-2.6-7.7L402.7,323z"/>
	<path class="st3" d="M398.3,333.4c4.7-1.3,8.5,1.5,9.6,5.5c1.2,4.4-1.4,8.5-5.4,9.6c-4,1.1-8.3-1.1-9.5-5.6
		C391.9,338.4,394.6,334.4,398.3,333.4L398.3,333.4z M399.5,337c-2.2,0.6-3.8,2.6-3.2,5.1c0.7,2.6,3.4,3.2,5.2,2.7
		c1.9-0.5,3.9-2.4,3.2-5C404,337.3,401.5,336.5,399.5,337L399.5,337z"/>
	<path class="st3" d="M398.4,367.7c-0.1-0.3-0.1-0.6-0.2-0.9c-0.4-2,0.2-3.2,0.5-3.6c-1.4-1.5-1.7-2.9-1.9-3.9
		c-0.9-4.7,2.4-8.4,6.1-9.1c3.8-0.7,8.2,1.5,9,6.2c0.9,4.7-2.3,8.5-6,9.1c-2.4,0.4-3.8-0.2-4.4-0.4c-0.3,0.5-0.3,1.1-0.1,2
		L398.4,367.7z M400.1,358.6c0.1,0.6,0.3,1.2,0.6,1.4c0.5-0.6,0.8-1,1.1-1.5c0.5-0.9,0.6-1.8,0.4-2.5c-0.1-0.6-0.3-1-0.5-1.3
		C400.3,355.6,399.8,357.4,400.1,358.6L400.1,358.6z M408.7,357c-0.3-1.7-1.6-2.9-3.5-3.2c-0.2,0-0.4-0.1-0.6,0
		c0.2,0.4,0.6,1.1,0.8,2.1c0.2,1.1,0.2,2-0.4,3.3c-0.5,1.1-0.9,1.8-1.6,2.7c0.5,0.2,1.2,0.2,1.9,0.1
		C407.8,361.3,409.1,359.2,408.7,357L408.7,357z"/>
	<path class="st3" d="M413.9,371l-8.9,1c-0.5,0.1-1.2,0.1-1.7,0.5c-0.5,0.3-1,0.8-0.9,1.8c0.1,0.9,0.6,1.4,1.1,1.5
		c0.6,0.2,1.3,0.1,1.9,0l8.9-1l0.4,3.8l-8.9,1c-2.5,0.3-3.6-0.1-4.7-1c-1.1-0.8-1.8-2.1-2-3.9c-0.1-1.1-0.1-3.1,1.1-4.4
		c1.2-1.4,2.2-1.7,4.4-2l8.9-1L413.9,371z"/>
	<path class="st3" d="M414.9,381.9l0.4,8.4l-3.3,0.2l-0.2-4.6l-2.3,0.1l0.2,4.5l-3.3,0.2l-0.2-4.5l-2.5,0.1l0.2,4.6l-3.3,0.2
		l-0.4-8.4L414.9,381.9z"/>
</g>
<g>
	<path class="st3" d="M376.2,319.3l2.5,6.2l-2.5,1l-1.4-3.4l-1.7,0.7l1.4,3.3l-2.5,1l-1.4-3.3l-1.9,0.8l1.4,3.4l-2.5,1l-2.5-6.2
		L376.2,319.3z"/>
	<path class="st3" d="M379.5,327.5l1,2.8l-8.6,3.1l1.2,3.3l-2.5,0.9l-2.2-6.1L379.5,327.5z"/>
	<path class="st3" d="M382.2,335.2l2,6.4l-2.5,0.8l-1.1-3.5l-1.8,0.5l1.1,3.4l-2.5,0.8l-1.1-3.4l-1.9,0.6l1.1,3.5l-2.5,0.8l-2-6.4
		L382.2,335.2z"/>
	<path class="st3" d="M380.5,357c-2.9,0-5.3-1.9-6-4.7c-0.9-3.6,1.4-6.8,4.5-7.5c2.9-0.7,6.5,0.8,7.4,4.5c0.9,3.6-1.4,6.2-3.1,7
		l-0.8-3.1c0.8-0.5,1.7-1.7,1.3-3.3c-0.5-2-2.5-2.6-4.1-2.2c-1.7,0.4-3.1,2-2.6,3.9c0.5,1.8,2.2,2.2,2.6,2.3L380.5,357z"/>
	<path class="st3" d="M385.7,359.1l-0.4-2.3l2.6-0.5l1.4,7.5l-2.6,0.5l-0.4-2.3l-9,1.7l-0.6-3L385.7,359.1z"/>
	<path class="st3" d="M389.5,365.4l0.5,3l-11.7,1.8l-0.5-3L389.5,365.4z"/>
	<path class="st3" d="M390.3,370.1l0.3,3.1l-8,3.3l8.5,1.5l0.3,3.1l-12.2-2.7l-0.3-3.1L390.3,370.1z"/>
	<path class="st3" d="M385.5,382c3.9-0.2,6.4,2.7,6.5,6c0.2,3.6-2.6,6.4-5.9,6.5c-3.3,0.1-6.3-2.3-6.4-6
		C379.6,384.8,382.5,382.2,385.5,382L385.5,382z M385.8,385.1c-1.8,0.1-3.4,1.4-3.4,3.4c0.1,2.1,2.1,3.1,3.6,3
		c1.5-0.1,3.5-1.2,3.4-3.4C389.3,386,387.5,385,385.8,385.1L385.8,385.1z"/>
</g>
</svg>
