<?xml version="1.0" encoding="utf-8"?>
<!-- Generator: Adobe Illustrator 17.0.0, SVG Export Plug-In . SVG Version: 6.00 Build 0)  -->
<!DOCTYPE svg PUBLIC "-//W3C//DTD SVG 1.1//EN" "http://www.w3.org/Graphics/SVG/1.1/DTD/svg11.dtd">
<svg version="1.1" id="Capa_1" xmlns="http://www.w3.org/2000/svg" xmlns:xlink="http://www.w3.org/1999/xlink" x="0px" y="0px"
	 width="1845.185px" height="826.28px" viewBox="2373.586 369.856 1845.185 826.28"
	 enable-background="new 2373.586 369.856 1845.185 826.28" xml:space="preserve">
<radialGradient id="SVGID_1_" cx="3389.4705" cy="-5410.4888" r="789.131" gradientTransform="matrix(-0.1825 0.0348 -0.008 -0.0047 4014.9617 783.1843)" gradientUnits="userSpaceOnUse">
	<stop  offset="0" style="stop-color:#505052"/>
	<stop  offset="0.0149" style="stop-color:#555556"/>
	<stop  offset="0.198" style="stop-color:#888889"/>
	<stop  offset="0.3782" style="stop-color:#B3B3B4"/>
	<stop  offset="0.5517" style="stop-color:#D4D4D4"/>
	<stop  offset="0.7168" style="stop-color:#ECECEC"/>
	<stop  offset="0.8701" style="stop-color:#FAFAFA"/>
	<stop  offset="1" style="stop-color:#FFFFFF"/>
</radialGradient>
<path opacity="0.5" fill="url(#SVGID_1_)" enable-background="new    " d="M3446.151,930.5
	c30.959-5.897,59.179-11.624,81.854-16.542c-7.013-1.766-13.411-3.426-19.095-4.953c-22.424,3.79-48.443,8.469-75.911,13.701
	c-79.212,15.088-140.47,29.061-136.839,31.213C3299.794,956.071,3366.938,945.587,3446.151,930.5z"/>
<radialGradient id="SVGID_2_" cx="-4342.3027" cy="47459.3281" r="1038.4711" gradientTransform="matrix(-0.1463 -0.0255 0.0071 -0.0056 2189.5474 1086.6805)" gradientUnits="userSpaceOnUse">
	<stop  offset="0" style="stop-color:#505052"/>
	<stop  offset="0.0149" style="stop-color:#555556"/>
	<stop  offset="0.198" style="stop-color:#888889"/>
	<stop  offset="0.3782" style="stop-color:#B3B3B4"/>
	<stop  offset="0.5517" style="stop-color:#D4D4D4"/>
	<stop  offset="0.7168" style="stop-color:#ECECEC"/>
	<stop  offset="0.8701" style="stop-color:#FAFAFA"/>
	<stop  offset="1" style="stop-color:#FFFFFF"/>
</radialGradient>
<path opacity="0.5" fill="url(#SVGID_2_)" enable-background="new    " d="M3153.064,937.852
	c83.471,14.547,154.583,23.627,158.819,20.275c4.233-3.351-60.015-17.861-143.487-32.409c-29.417-5.127-57.295-9.573-81.252-13.037
	c-6.557,2.617-13.839,5.452-21.748,8.468C3089.459,926.239,3119.726,932.042,3153.064,937.852z"/>
<g>
	<g>
		
			<linearGradient id="SVGID_3_" gradientUnits="userSpaceOnUse" x1="2334.3564" y1="73.4954" x2="2545.3374" y2="73.4954" gradientTransform="matrix(1 0 0 1 965.325 716.37)">
			<stop  offset="0" style="stop-color:#29ABE2"/>
			<stop  offset="0.2705" style="stop-color:#22A2DC"/>
			<stop  offset="0.7187" style="stop-color:#0F88CB"/>
			<stop  offset="1" style="stop-color:#0075BE"/>
		</linearGradient>
		<path fill="url(#SVGID_3_)" d="M3301.917,626.183c-0.857,0.111-1.285,0.167-2.142,0.279c2.142-0.279-0.094,327.086-0.094,327.086
			l210.981-43.074"/>
		<g>
			<path fill="#FFFFFF" d="M3342.133,880.525c1.527-0.472,3.13-0.092,4.613,1.183c1.483,1.274,2.846,3.445,3.906,6.434
				c1.073,3.028,1.373,5.552,1.005,7.44c-0.369,1.889-1.42,3.104-2.973,3.542c-0.515,0.145-0.772,0.218-1.287,0.363
				c1.475,4.066,2.235,6.124,3.802,10.292c-1.362,0.361-2.043,0.541-3.403,0.902c-3.566-9.525-6.975-19.108-10.236-28.741
				C3339.385,881.374,3340.3,881.091,3342.133,880.525z M3345.426,894.006c0.494-0.144,0.741-0.216,1.236-0.359
				c0.662-0.193,1.033-0.629,1.124-1.359c0.087-0.703-0.069-1.699-0.574-3.13c-0.518-1.469-1.008-2.344-1.538-2.86
				c-0.521-0.508-1.097-0.643-1.755-0.444c-0.491,0.148-0.736,0.222-1.227,0.37C3343.761,889.309,3344.307,890.864,3345.426,894.006
				z"/>
			<path fill="#FFFFFF" d="M3349.704,878.192c3.159-0.971,4.742-1.456,7.915-2.427c0.746,2.146,1.125,3.226,1.895,5.403
				c-1.84,0.551-2.759,0.826-4.595,1.377c0.774,2.197,1.167,3.303,1.966,5.531c1.844-0.539,2.767-0.809,4.614-1.348
				c0.796,2.209,1.199,3.321,2.021,5.563c-1.855,0.527-2.782,0.79-4.634,1.317c1.035,2.834,1.562,4.264,2.641,7.151
				c1.863-0.509,2.795-0.764,4.66-1.273c0.857,2.285,1.292,3.436,2.178,5.757c-3.243,0.855-4.864,1.282-8.1,2.137
				C3356.594,897.706,3353.075,887.974,3349.704,878.192z"/>
			<path fill="#FFFFFF" d="M3360.552,874.868c1.694-0.518,2.542-0.777,4.239-1.294c2.32-0.708,4.177-0.116,5.402,1.153
				c1.478,1.531,2.708,3.478,3.745,6.347c0.576,1.593,0.992,3.206,1.144,4.631c0.22,2.075,0,3.489-0.497,4.482
				c3.031,4.447,4.581,6.719,7.763,11.375c-1.535,0.404-2.302,0.605-3.837,1.009c-3.898-5.937-5.782-8.816-9.441-14.43
				c0.379-0.109,0.581-0.17,0.833-0.283c0.565-0.255,1.11-0.729,1.262-1.604c0.194-1.114-0.08-2.454-0.497-3.607
				c-0.517-1.431-1.135-2.606-2.057-3.329c-0.55-0.431-1.19-0.514-2.01-0.269c-0.31,0.093-0.466,0.139-0.776,0.232
				c3.34,9.392,5.118,14.232,8.963,24.269c-1.371,0.361-2.056,0.541-3.427,0.902C3367.665,894.623,3364.01,884.786,3360.552,874.868
				z"/>
			<path fill="#FFFFFF" d="M3382.972,890.649c1.238,3.172,2.404,4.535,3.89,4.133c1.26-0.341,1.372-2.003,0.54-4.214
				c-1.052-2.794-3.107-2.934-5.346-3.707c-2.266-0.782-4.773-2.189-6.57-7.167c-2.013-5.576-1.318-9.623,1.806-10.575
				c3.034-0.925,5.601,1.104,8.218,6.827c-1.318,0.388-1.977,0.583-3.295,0.971c-0.827-2.15-1.944-3.214-3.033-2.889
				c-1.066,0.319-1.203,1.932-0.556,3.726c1.007,2.791,2.987,2.802,5.248,3.584c2.262,0.782,4.774,2.274,6.999,8.179
				c2.194,5.821,1.282,10.129-1.903,10.963c-3.818,1-7.005-2.459-9.407-8.884C3380.927,891.217,3381.608,891.028,3382.972,890.649z"
				/>
			<path fill="#FFFFFF" d="M3389.879,882.413c-3.517-9.5-3.578-15.995,0.452-17.222s8.112,4.115,11.72,13.793
				c3.608,9.678,4.227,16.966,0.115,18.042c-4.111,1.076-8.738-5.029-12.271-14.571
				C3389.888,882.438,3389.885,882.43,3389.879,882.413z M3393.397,881.5c2.712,7.311,4.69,9.961,6.445,9.486
				c1.755-0.475,1.476-3.612-1.275-11.007c-2.751-7.396-4.506-9.729-6.238-9.213c-1.733,0.516-1.674,3.341,1.053,10.693
				C3393.388,881.476,3393.391,881.484,3393.397,881.5z"/>
			<path fill="#FFFFFF" d="M3412.99,878.91c-2.799-7.407-4.121-10.997-6.635-17.979c1.181-0.36,1.772-0.54,2.951-0.899
				c3.842,10.487,7.775,20.927,11.794,31.348c-1.224,0.322-1.837,0.483-3.062,0.805c-5.158-7.929-7.625-11.719-12.376-19.027
				c2.901,7.847,4.433,11.89,7.688,20.259c-1.208,0.318-1.813,0.476-3.022,0.794c-3.944-10.293-7.85-20.592-11.566-30.969
				c1.362-0.414,2.042-0.621,3.403-1.035C3406.337,868.652,3408.496,871.981,3412.99,878.91z"/>
			<path fill="#FFFFFF" d="M3426.117,890.06c-1.385,0.364-2.077,0.547-3.463,0.911c-2.594-10.898-5.062-21.799-7.393-32.756
				c1.228-0.375,1.842-0.563,3.068-0.938c5.542,10.162,11.118,20.302,16.722,30.43c-1.38,0.364-2.071,0.546-3.453,0.91
				c-1.345-2.461-2.008-3.676-3.315-6.079c-1.518,0.414-2.278,0.622-3.799,1.036C3425.123,886.145,3425.449,887.442,3426.117,890.06
				z M3420.126,866.659c1.092,4.166,1.658,6.281,2.836,10.58c0.837-0.235,1.255-0.353,2.09-0.588
				C3423.032,872.577,3422.048,870.58,3420.126,866.659z"/>
		</g>
		<g>
			<g>
				<path fill="#FFFFFF" d="M3354.854,791.633c-3.451-10.346-8.923-22.815-19.429-27.66c0,0-11.089-4.507-17.265,7.345
					c-3.547,10.54-1.204,22.191,1.255,32.693c1.278,5.933,7.259,3.82,6.01-2.032c-1.478-6.954-1.838-17.534-1.215-23.841
					c0.916,3.796,1.372,5.706,2.289,9.557c0.788,11.307,1.638,22.603,2.557,33.9c2.192-0.752,3.292-1.129,5.501-1.881
					c3.096,10.342,4.694,15.644,8.167,26.642c0.935,2.961,3.043,4.954,4.912,4.337c1.869-0.617,2.604-3.56,1.662-6.529
					c-3.501-11.028-5.107-16.334-8.197-26.672c1.192-0.403,1.789-0.605,2.984-1.008c2.673,8.962,5.415,17.904,8.248,26.815
					c2.048,6.441,8.201,4.423,6.141-2.035c-2.846-8.918-5.594-17.869-8.263-26.843c2.295-0.771,3.444-1.156,5.745-1.927
					c-4.867-9.884-9.738-19.765-14.635-29.634c-0.832-2.912-3.416-6.89-3.932-8.673c4.15,4.849,8.718,12.759,11.261,19.477
					C3350.729,799.156,3356.933,797.175,3354.854,791.633z"/>
				<path fill="#FFFFFF" d="M3321.361,746.167c3.513-0.959,7.506,1.856,8.859,6.318s-0.347,8.928-3.749,9.936
					c-3.399,1.007-7.284-1.862-8.748-6.373C3316.26,751.537,3317.852,747.125,3321.361,746.167z"/>
			</g>
			<g>
				<path fill="#FFFFFF" d="M3385.046,753.094c-1.583,0.485-2.378,0.728-3.973,1.214c-5.413,1.65-8.157,2.479-13.671,4.142
					c-1.625,0.49-2.44,0.735-4.071,1.227c-1.795,0.541-2.76,2.891-2.138,5.27c2.812,10.64,5.692,21.252,8.651,31.852
					c0.727,2.558,2.743,4.191,4.476,3.614c1.732-0.577,2.531-3.144,1.81-5.698c-2.611-9.266-5.103-18.566-7.492-27.892
					c0.326-0.101,0.489-0.152,0.815-0.254c2.359,9.237,4.821,18.447,7.402,27.624c0.082,0.293,0.124,0.439,0.206,0.732
					c3.219,11.404,6.635,22.752,10.25,34.036c0.908,2.835,3.078,4.715,4.809,4.146c1.729-0.568,2.358-3.377,1.444-6.219
					c-3.628-11.283-7.048-22.632-10.25-34.044c0.316-0.105,0.475-0.158,0.791-0.264c3.2,11.412,6.62,22.762,10.251,34.045
					c0.914,2.842,3.086,4.73,4.806,4.163c1.722-0.568,2.336-3.383,1.416-6.231c-3.647-11.281-7.077-22.632-10.264-34.051
					c-0.082-0.292-0.122-0.438-0.203-0.729c-2.531-9.104-4.907-18.251-7.131-27.435c0.32-0.101,0.48-0.151,0.799-0.251
					c2.237,9.266,4.632,18.495,7.188,27.678c0.708,2.543,2.687,4.171,4.382,3.599c1.696-0.573,2.468-3.127,1.764-5.665
					c-2.806-10.428-5.542-20.854-7.967-31.379C3388.61,753.996,3386.791,752.56,3385.046,753.094z"/>
				<path fill="#FFFFFF" d="M3364.037,747.087c-1.29-5.273,1.15-10.435,5.369-11.587c4.219-1.151,8.464,2.082,9.605,7.283
					c1.142,5.202-1.128,10.475-5.198,11.698C3369.744,755.704,3365.327,752.36,3364.037,747.087z"/>
			</g>
		</g>
	</g>
	
		<linearGradient id="SVGID_4_" gradientUnits="userSpaceOnUse" x1="2116.3694" y1="73.1624" x2="2334.6946" y2="73.1624" gradientTransform="matrix(1 0 0 1 965.325 716.37)">
		<stop  offset="0" style="stop-color:#29ABE2"/>
		<stop  offset="0.2705" style="stop-color:#22A2DC"/>
		<stop  offset="0.7187" style="stop-color:#0F88CB"/>
		<stop  offset="1" style="stop-color:#0075BE"/>
	</linearGradient>
	<polygon fill="url(#SVGID_4_)" points="3081.694,913.656 3300.02,624.144 3300.02,954.921 	"/>
	<g>
		<g>
			
				<linearGradient id="SVGID_5_" gradientUnits="userSpaceOnUse" x1="2061.3694" y1="2338.6636" x2="2278.0464" y2="2338.6636" gradientTransform="matrix(1 0 0 -1 1021.325 3128.3701)">
				<stop  offset="0" style="stop-color:#29ABE2"/>
				<stop  offset="0.2705" style="stop-color:#22A2DC"/>
				<stop  offset="0.7187" style="stop-color:#0F88CB"/>
				<stop  offset="1" style="stop-color:#0075BE"/>
			</linearGradient>
			<path fill="url(#SVGID_5_)" d="M3082.694,913.111l216.373,41.119l0.304-329.047L3082.694,913.111z"/>
			<g>
				<path fill="#FFFFFF" d="M3158.853,846.625c4.054-13.057,8.085-26.121,12.045-39.207c3.16,0.633,4.714,0.945,7.782,1.561
					c-1.252,9.843-1.972,14.954-3.633,25.645c4.851-9.992,7.201-14.759,11.821-23.999c2.995,0.603,4.475,0.9,7.408,1.49
					c-4.279,13.2-8.593,26.389-12.918,39.575c-1.925-0.434-2.894-0.653-4.85-1.094c3.295-9.993,6.585-19.987,9.855-29.988
					c-4.808,9.635-9.521,19.315-14.217,29.005c-1.427-0.322-2.146-0.484-3.594-0.81c1.652-10.304,3.263-20.605,4.647-30.95
					c-3.017,9.989-6.079,19.964-9.149,29.937C3161.994,847.328,3160.957,847.095,3158.853,846.625z"/>
				<path fill="#FFFFFF" d="M3198.123,812.888c2.163,0.434,3.238,0.65,5.378,1.079c-4.423,13.242-8.867,26.478-13.318,39.711
					c-2.045-0.46-3.073-0.691-5.142-1.158C3189.417,839.314,3193.784,826.106,3198.123,812.888z"/>
				<path fill="#FFFFFF" d="M3202.412,841.684c-1.618,4.711-0.487,5.891,0.159,6.034c1.211,0.267,2.653-1.633,3.304-3.505
					c0.747-2.148,0.161-3.054-2.063-6.264c-0.997-1.44-3.589-5.077-1.129-12.36c2.637-7.807,7.769-10.991,11.241-10.303
					c2.856,0.566,5.974,3.917,2.741,13.328c-2.058-0.425-3.086-0.639-5.146-1.067c0.347-1.339,1.035-3.828-0.572-4.158
					c-0.914-0.188-2.212,0.824-2.842,2.659c-0.612,1.783-0.204,2.369,2.324,6.33c2.619,4.102,2.345,7.76,0.674,12.497
					c-2.293,6.499-6.331,12.927-11.559,11.76c-5.175-1.155-5.069-8.167-2.249-16.07
					C3199.349,841.014,3200.373,841.238,3202.412,841.684z"/>
				<path fill="#FFFFFF" d="M3223.312,817.903c2.111,0.415,3.168,0.622,5.286,1.035c-4.83,13.349-9.645,26.703-14.455,40.059
					c-2.024-0.441-3.032-0.662-5.048-1.106C3213.829,844.56,3218.565,831.23,3223.312,817.903z"/>
				<path fill="#FFFFFF" d="M3224.177,839.486c2.922-8.766,9.981-19.104,18.613-18.593c5.793,0.342,7.745,11.425,3.486,22.637
					c-2.934,7.724-10.353,20.156-19.137,19.125c-5.9-0.693-6.726-12.818-2.982-23.114
					C3224.166,839.518,3224.169,839.508,3224.177,839.486z M3229.562,840.081c-2.259,6.126-2.341,12.49,1.177,13.227
					c3.713,0.778,8.126-5.64,10.086-10.811c1.981-5.226,2.583-12.136-1.278-12.895c-3.719-0.731-7.886,4.787-9.965,10.425
					C3229.575,840.048,3229.572,840.059,3229.562,840.081z M3251.126,808.217c-0.288,2.5-0.436,3.759-0.74,6.294
					c-3.734,1.716-5.58,2.574-9.237,4.296c0.22-2.127,0.327-3.185,0.535-5.286C3245.425,811.394,3247.311,810.334,3251.126,808.217z
					"/>
				<path fill="#FFFFFF" d="M3260.939,851.189c3.876-9.982,5.776-14.852,9.524-24.406c2.274,0.407,3.423,0.612,5.753,1.023
					c-5.417,13.545-10.8,27.103-16.154,40.674c-2.061-0.4-3.078-0.599-5.088-0.995c0.509-10.848,0.744-16.147,1.122-26.478
					c-3.726,9.686-5.623,14.637-9.504,24.809c-2.134-0.43-3.188-0.644-5.275-1.07c5.174-13.485,10.371-26.961,15.594-40.427
					c1.946,0.359,2.927,0.539,4.907,0.901C3261.543,835.346,3261.358,840.541,3260.939,851.189z"/>
			</g>
		</g>
	</g>
</g>
</svg>
