<?xml version="1.0" encoding="utf-8"?>
<!-- Generator: Adobe Illustrator 17.0.0, SVG Export Plug-In . SVG Version: 6.00 Build 0)  -->
<!DOCTYPE svg PUBLIC "-//W3C//DTD SVG 1.1//EN" "http://www.w3.org/Graphics/SVG/1.1/DTD/svg11.dtd">
<svg version="1.1" id="Capa_1" xmlns="http://www.w3.org/2000/svg" xmlns:xlink="http://www.w3.org/1999/xlink" x="0px" y="0px"
	 width="1845.185px" height="822.404px" viewBox="4311.78 369.856 1845.185 822.404"
	 enable-background="new 4311.78 369.856 1845.185 822.404" xml:space="preserve">
<radialGradient id="SVGID_1_" cx="-880.2297" cy="-35127.9922" r="789.131" gradientTransform="matrix(-0.3798 0.12 -0.0166 -0.0163 4552.7944 456.8215)" gradientUnits="userSpaceOnUse">
	<stop  offset="0" style="stop-color:#505052"/>
	<stop  offset="0.0149" style="stop-color:#555556"/>
	<stop  offset="0.198" style="stop-color:#888889"/>
	<stop  offset="0.3782" style="stop-color:#B3B3B4"/>
	<stop  offset="0.5517" style="stop-color:#D4D4D4"/>
	<stop  offset="0.7168" style="stop-color:#ECECEC"/>
	<stop  offset="0.8701" style="stop-color:#FAFAFA"/>
	<stop  offset="1" style="stop-color:#FFFFFF"/>
</radialGradient>
<path opacity="0.5" fill="url(#SVGID_1_)" enable-background="new    " d="M5484.797,938.736
	c64.434-20.365,123.167-40.144,170.358-57.128c-14.595-6.097-27.912-11.831-39.741-17.107
	c-46.67,13.089-100.821,29.247-157.99,47.316c-164.858,52.106-292.353,100.364-284.794,107.797
	C5180.192,1027.05,5319.937,990.842,5484.797,938.736z"/>
<radialGradient id="SVGID_2_" cx="-8621.8652" cy="84615.3828" r="1038.4711" gradientTransform="matrix(-0.2778 -0.0775 0.0147 -0.0095 1342.0764 1056.7969)" gradientUnits="userSpaceOnUse">
	<stop  offset="0" style="stop-color:#505052"/>
	<stop  offset="0.0149" style="stop-color:#555556"/>
	<stop  offset="0.198" style="stop-color:#888889"/>
	<stop  offset="0.3782" style="stop-color:#B3B3B4"/>
	<stop  offset="0.5517" style="stop-color:#D4D4D4"/>
	<stop  offset="0.7168" style="stop-color:#ECECEC"/>
	<stop  offset="0.8701" style="stop-color:#FAFAFA"/>
	<stop  offset="1" style="stop-color:#FFFFFF"/>
</radialGradient>
<path opacity="0.5" fill="url(#SVGID_2_)" enable-background="new    " d="M4968.019,930.098
	c158.486,44.234,294.135,75.481,302.955,69.778c8.816-5.701-112.542-46.188-271.03-90.422
	c-55.853-15.589-108.863-29.562-154.486-40.875c-13.164,3.83-27.772,7.948-43.624,12.295
	C4847.354,895.365,4904.721,912.432,4968.019,930.098z"/>
<g>
	<g>
		<g>
			<g>
				
					<linearGradient id="SVGID_3_" gradientUnits="userSpaceOnUse" x1="4270.7764" y1="85.9411" x2="4669.3584" y2="85.9411" gradientTransform="matrix(1 0 0 1 965.325 716.37)">
					<stop  offset="0" style="stop-color:#29CFAD"/>
					<stop  offset="0.2355" style="stop-color:#23C6AA"/>
					<stop  offset="0.6256" style="stop-color:#13ACA2"/>
					<stop  offset="1" style="stop-color:#008E98"/>
				</linearGradient>
				<path fill="url(#SVGID_3_)" d="M5236.102,988.869l398.582-115.371l-186.896-257.745l-209.664,43.954L5236.102,988.869z"/>
				<g>
					<path fill="none" stroke="#FFFFFF" stroke-width="6" stroke-miterlimit="10" d="M5344.748,638.433
						c0.876,2.843,1.314,4.262,2.19,7.096"/>
					<path fill="none" stroke="#FFFFFF" stroke-width="6" stroke-miterlimit="10" stroke-dasharray="13.1014,13.1014" d="
						M5351.714,660.936c11.751,37.7,23.692,75.339,35.66,112.971"/>
					<path fill="none" stroke="#FFFFFF" stroke-width="6" stroke-miterlimit="10" d="M5389.742,781.348
						c0.867,2.726,1.3,4.088,2.167,6.813"/>
				</g>
				<g>
					<path fill="#FFFFFF" d="M5270.763,821.203c0.698,5.582-1.408,10.251-5.428,11.319c-5.252,1.396-11.068-3.837-13.439-11.023
						c-2.268-6.871-0.834-14.31,4.611-15.688c4.959-1.254,9.605,3.491,11.516,7.064c-1.465,0.379-2.197,0.569-3.662,0.948
						c-1.12-1.633-3.634-4.135-6.374-3.446c-3.341,0.84-4.131,5.648-2.626,10.212c1.552,4.704,5.172,8.251,8.451,7.384
						c3.069-0.811,3.277-4.791,3.294-5.814C5268.568,821.777,5269.299,821.586,5270.763,821.203z"/>
					<path fill="#FFFFFF" d="M5277.015,828.899c-1.508,0.398-2.262,0.598-3.77,0.997c-0.583-11.003-0.873-16.497-1.441-27.469
						c1.225-0.312,1.838-0.468,3.064-0.78c5.078,7.936,10.157,15.87,15.238,23.803c-1.52,0.399-2.28,0.599-3.799,0.999
						c-1.16-1.871-1.741-2.807-2.903-4.679c-2.724,0.712-4.085,1.069-6.806,1.783C5276.765,825.69,5276.849,826.76,5277.015,828.899
						z M5275.188,808.17c0.385,4.407,0.578,6.611,0.965,11.022c1.987-0.518,2.98-0.777,4.968-1.294
						C5278.75,814.012,5277.563,812.066,5275.188,808.17z"/>
					<path fill="#FFFFFF" d="M5283.484,799.46c2.099-0.531,3.148-0.797,5.248-1.328c2.695-0.681,4.447-0.449,5.711,0.31
						c1.922,1.154,3.542,3.534,4.464,6.352c0.607,1.856,0.789,3.6,0.615,4.983c-0.227,1.799-0.967,2.783-1.954,3.485
						c2.777,3.371,4.164,5.055,6.934,8.415c-1.457,0.381-2.185,0.571-3.641,0.952c-3.405-4.244-5.109-6.37-8.523-10.631
						c0.271-0.07,0.407-0.105,0.678-0.175c1.146-0.295,2.376-0.728,2.806-1.73c0.418-0.976,0.39-2.45-0.116-3.998
						c-0.507-1.548-1.485-2.831-2.494-3.354c-0.821-0.425-1.735-0.417-2.719-0.167c-0.815,0.207-1.223,0.311-2.037,0.518
						c2.753,8.399,4.129,12.595,6.876,20.985c-1.39,0.365-2.085,0.547-3.475,0.912
						C5288.514,814.785,5286.837,809.679,5283.484,799.46z"/>
					<path fill="#FFFFFF" d="M5308.918,820.525c-1.514,0.395-2.27,0.593-3.784,0.988c-0.518-10.894-0.773-16.332-1.27-27.191
						c1.23-0.309,1.845-0.463,3.076-0.772c6.061,9.452,9.085,14.161,15.112,23.555c-1.525,0.396-2.287,0.594-3.811,0.991
						c-1.151-1.851-1.726-2.777-2.878-4.631c-2.733,0.706-4.099,1.059-6.83,1.766
						C5308.688,817.348,5308.765,818.407,5308.918,820.525z M5305.386,785.046c0.825,1.188,1.237,1.782,2.061,2.969
						c-1.777,2.16-2.664,3.241-4.436,5.408c-0.72-0.992-1.081-1.489-1.801-2.482C5302.878,788.579,5303.713,787.4,5305.386,785.046z
						 M5307.219,800.007c0.357,4.362,0.536,6.543,0.896,10.91c1.994-0.513,2.991-0.769,4.986-1.282
						C5310.751,805.788,5309.575,803.862,5307.219,800.007z"/>
					<path fill="#FFFFFF" d="M5336.739,804.173c0.627,5.464-1.546,10.039-5.594,11.089c-5.288,1.371-11.063-3.755-13.354-10.792
						c-2.191-6.729-0.652-14.011,4.838-15.359c5-1.227,9.6,3.415,11.47,6.911c-1.475,0.372-2.213,0.558-3.688,0.93
						c-1.102-1.598-3.592-4.046-6.355-3.372c-3.368,0.823-4.224,5.529-2.771,9.999c1.498,4.606,5.088,8.079,8.39,7.228
						c3.091-0.796,3.351-4.694,3.382-5.695C5334.53,804.737,5335.267,804.549,5336.739,804.173z"/>
					<path fill="#FFFFFF" d="M5337.498,790.729c-1.506,0.377-2.258,0.565-3.764,0.942c-0.576-1.779-0.865-2.669-1.441-4.449
						c4.407-1.096,6.611-1.643,11.021-2.736c0.572,1.773,0.859,2.66,1.431,4.432c-1.497,0.374-2.245,0.561-3.741,0.935
						c2.667,8.252,4,12.375,6.661,20.62c-1.396,0.36-2.094,0.541-3.49,0.901C5341.506,803.119,5340.17,798.991,5337.498,790.729z"/>
					<path fill="#FFFFFF" d="M5345.151,784.031c3.911-0.969,5.867-1.453,9.78-2.421c0.568,1.766,0.852,2.649,1.42,4.414
						c-2.506,0.624-3.758,0.936-6.263,1.561c0.731,2.269,1.097,3.404,1.828,5.672c2.455-0.618,3.682-0.927,6.138-1.544
						c0.568,1.765,0.851,2.647,1.419,4.412c-2.453,0.621-3.679,0.932-6.132,1.553c0.779,2.417,1.168,3.625,1.946,6.041
						c2.496-0.639,3.745-0.958,6.241-1.596c0.567,1.764,0.85,2.646,1.417,4.411c-3.892,1.002-5.837,1.503-9.727,2.506
						C5349.996,799.04,5348.381,794.041,5345.151,784.031z"/>
					<path fill="#FFFFFF" d="M5357.644,780.939c2.112-0.522,3.168-0.783,5.281-1.305c2.712-0.67,4.463-0.447,5.716,0.29
						c1.907,1.121,3.492,3.439,4.371,6.187c0.579,1.809,0.734,3.51,0.538,4.86c-0.255,1.756-1.01,2.718-2.01,3.406
						c2.728,3.283,4.09,4.922,6.811,8.194c-1.464,0.376-2.195,0.564-3.659,0.94c-3.343-4.134-5.018-6.205-8.372-10.355
						c0.273-0.069,0.409-0.103,0.682-0.172c1.152-0.291,2.391-0.715,2.837-1.695c0.433-0.953,0.429-2.391-0.055-3.9
						c-0.483-1.51-1.443-2.759-2.445-3.267c-0.816-0.413-1.732-0.403-2.721-0.157c-0.82,0.204-1.23,0.306-2.049,0.51
						c2.628,8.19,3.942,12.281,6.565,20.465c-1.398,0.359-2.096,0.539-3.494,0.899
						C5362.446,795.883,5360.847,790.906,5357.644,780.939z"/>
				</g>
				<g>
					<path fill="#FFFFFF" d="M5349.151,867.338c-2.735-8.519-0.046-15.234,5.006-16.614c5.494-1.5,11.535,3.611,13.932,11.12
						c2.398,7.51,0.375,14.869-5.14,16.423c-5.54,1.561-11.502-3.777-13.787-10.894
						C5349.159,867.359,5349.155,867.352,5349.151,867.338z M5352.726,866.109c1.555,4.848,5.28,8.423,8.797,7.437
						c3.664-1.027,4.328-6.287,2.932-10.655c-1.419-4.439-5.066-8.497-8.766-7.481c-3.627,0.996-4.472,5.994-2.975,10.663
						C5352.719,866.088,5352.722,866.095,5352.726,866.109z"/>
					<path fill="#FFFFFF" d="M5366.488,847.904c2.385-0.65,3.577-0.976,5.963-1.626c1.767-0.482,3.331-0.252,4.574,0.456
						c1.516,0.863,2.753,2.612,3.444,4.784c0.771,2.42-0.538,5.951-0.506,6.028c0.221,0.534,4.81,4.327,5.172,5.467
						c0.757,2.387,0.724,4.846-0.078,6.467c-0.958,1.937-2.001,2.583-4.565,3.304c-2.227,0.626-3.34,0.939-5.567,1.566
						C5371.559,863.755,5369.871,858.469,5366.488,847.904z M5373.517,857.465c0.813-0.224,1.219-0.337,2.032-0.561
						c0.514-0.142,1.118-0.379,1.454-0.789c0.547-0.669,0.586-1.674,0.188-2.921c-0.432-1.354-1.199-2.03-1.8-2.218
						c-0.5-0.157-1.081-0.13-1.743,0.052c-0.804,0.221-1.206,0.331-2.01,0.551C5372.39,853.932,5372.766,855.11,5373.517,857.465z
						 M5377.076,868.643c1.026-0.287,1.539-0.431,2.566-0.718c0.464-0.13,1.113-0.35,1.562-0.865
						c0.586-0.669,0.865-1.718,0.333-3.395c-0.487-1.534-1.326-2.321-2.202-2.571c-0.693-0.198-1.313-0.024-1.949,0.153
						c-0.979,0.272-1.468,0.408-2.447,0.679C5375.793,864.613,5376.222,865.956,5377.076,868.643z"/>
					<path fill="#FFFFFF" d="M5396.945,857.598c0.887,2.805,1.266,4.546,1.267,5.948c0.001,1.185-0.391,2.547-0.888,3.423
						c-0.734,1.294-1.824,2.14-2.972,2.463c-0.781,0.22-4.917,0.914-7.589-4.817c-0.239-0.512-0.46-1.113-0.676-1.712
						c1.555-0.433,2.333-0.65,3.889-1.084c0.079,0.249,0.167,0.466,0.275,0.698c0.742,1.609,1.891,2.473,2.799,2.202
						c0.979-0.293,1.271-1.258,1.22-2.2c-0.047-0.87-0.307-1.811-0.565-2.629c-2.263-7.153-3.396-10.723-5.664-17.858
						c1.463-0.398,2.195-0.597,3.658-0.995C5393.799,847.654,5394.849,850.965,5396.945,857.598z"/>
					<path fill="#FFFFFF" d="M5395.138,840.102c4.076-1.109,6.114-1.663,10.19-2.771c0.584,1.848,0.876,2.773,1.46,4.622
						c-2.61,0.714-3.915,1.071-6.526,1.785c0.752,2.377,1.128,3.566,1.879,5.945c2.558-0.705,3.837-1.058,6.395-1.763
						c0.584,1.852,0.875,2.778,1.459,4.631c-2.556,0.708-3.834,1.063-6.39,1.771c0.8,2.537,1.2,3.806,2,6.346
						c2.602-0.727,3.902-1.09,6.504-1.817c0.583,1.856,0.875,2.784,1.457,4.642c-4.055,1.138-6.083,1.708-10.138,2.846
						C5400.118,855.819,5398.459,850.575,5395.138,840.102z"/>
					<path fill="#FFFFFF" d="M5412.114,840.496c-1.57,0.43-2.355,0.644-3.926,1.074c-0.583-1.849-0.875-2.773-1.458-4.62
						c4.597-1.25,6.896-1.875,11.493-3.124c0.579,1.841,0.869,2.762,1.448,4.604c-1.56,0.427-2.341,0.64-3.901,1.067
						c2.698,8.575,4.047,12.87,6.742,21.487c-1.456,0.409-2.184,0.613-3.64,1.021C5416.17,853.38,5414.819,849.08,5412.114,840.496z
						"/>
					<path fill="#FFFFFF" d="M5420.141,833.304c1.464-0.398,2.195-0.597,3.659-0.994c3.259,10.381,4.888,15.581,8.144,26.026
						c-1.456,0.409-2.184,0.613-3.64,1.021C5425.041,848.902,5423.407,843.696,5420.141,833.304z"/>
					<path fill="#FFFFFF" d="M5425.838,831.755c1.513-0.411,2.269-0.617,3.782-1.028c4.283,7.375,6.42,11.063,10.687,18.456
						c-0.628-8.407-0.939-12.593-1.552-20.939c1.513-0.411,2.269-0.617,3.782-1.028c0.616,11.028,0.931,16.565,1.574,27.706
						c-1.476,0.414-2.213,0.621-3.689,1.035C5435.576,847.88,5430.713,839.814,5425.838,831.755z"/>
					<path fill="#FFFFFF" d="M5446.75,840.311c-2.577-8.29,0.229-14.832,5.286-16.208c5.499-1.495,11.417,3.428,13.673,10.734
						s0.123,14.517-5.396,16.068c-5.543,1.558-11.399-3.633-13.552-10.559C5446.756,840.332,5446.754,840.325,5446.75,840.311z
						 M5450.333,839.091c1.465,4.717,5.117,8.19,8.636,7.206c3.667-1.025,4.417-6.167,3.103-10.416
						c-1.335-4.318-4.893-8.243-8.596-7.229c-3.63,0.993-4.564,5.862-3.153,10.405
						C5450.328,839.071,5450.33,839.078,5450.333,839.091z"/>
					<path fill="#FFFFFF" d="M5472.475,838.245c1.193,3.446,3.034,3.652,3.816,3.433c1.393-0.39,1.976-2.293,1.42-4.1
						c-0.673-2.19-2.19-2.463-5.098-3.108c-1.542-0.342-5.236-1.043-6.737-5.902c-1.523-4.928,0.72-8.427,3.664-9.229
						c2.405-0.655,6.147,0.266,8.04,5.897c-1.44,0.396-2.161,0.595-3.601,0.991c-0.509-1.137-1.436-3.021-3.226-2.531
						c-1.201,0.329-1.853,1.796-1.333,3.522c0.573,1.898,1.736,2.107,5.31,3.087c3.268,0.896,5.406,2.375,6.525,6.021
						c1.268,4.132,0.67,8.501-3.577,9.696c-4.101,1.154-7.312-1.78-8.822-6.768C5470.303,838.85,5471.027,838.649,5472.475,838.245z
						"/>
					<path fill="#FFFFFF" d="M5347.008,900.321c3.824-1.096,5.737-1.644,9.562-2.739c0.601,1.889,0.901,2.833,1.501,4.722
						c-2.373,0.682-3.56,1.023-5.933,1.705c0.813,2.556,1.218,3.834,2.029,6.391c2.313-0.668,3.469-1.001,5.782-1.669
						c0.599,1.891,0.898,2.836,1.495,4.728c-2.312,0.669-3.467,1.004-5.779,1.673c1.377,4.35,2.064,6.526,3.435,10.881
						c-1.445,0.421-2.168,0.631-3.613,1.052C5352.676,918.146,5349.85,909.231,5347.008,900.321z"/>
					<path fill="#FFFFFF" d="M5362.646,910.631c-2.703-8.552-0.029-15.329,4.986-16.762c5.453-1.559,11.447,3.538,13.823,11.095
						s0.359,14.993-5.122,16.588c-5.505,1.602-11.417-3.739-13.676-10.884C5362.652,910.652,5362.65,910.645,5362.646,910.631z
						 M5366.196,909.368c1.538,4.869,5.231,8.447,8.726,7.432c3.64-1.057,4.306-6.364,2.923-10.757
						c-1.405-4.465-5.023-8.524-8.696-7.47c-3.6,1.033-4.445,6.07-2.964,10.758C5366.19,909.347,5366.192,909.354,5366.196,909.368z
						"/>
					<path fill="#FFFFFF" d="M5379.796,890.941c2.182-0.623,3.272-0.935,5.454-1.558c2.8-0.8,4.611-0.612,5.912,0.146
						c1.977,1.153,3.628,3.608,4.55,6.548c0.607,1.937,0.775,3.769,0.579,5.232c-0.256,1.904-1.034,2.962-2.065,3.73
						c2.836,3.477,4.252,5.216,7.082,8.699c-1.514,0.44-2.271,0.66-3.785,1.1c-3.475-4.397-5.215-6.593-8.701-10.982
						c0.282-0.081,0.423-0.122,0.704-0.203c1.191-0.344,2.471-0.834,2.928-1.903c0.445-1.04,0.433-2.592-0.074-4.207
						s-1.505-2.935-2.543-3.454c-0.845-0.422-1.792-0.386-2.815-0.093c-0.847,0.243-1.27,0.364-2.117,0.607
						c2.754,8.743,4.128,13.122,6.868,21.906c-1.446,0.42-2.169,0.63-3.614,1.051
						C5384.826,906.883,5383.152,901.562,5379.796,890.941z"/>
					<path fill="#FFFFFF" d="M5403.468,913.11c-3.314-10.66-4.975-15.969-8.304-26.558c1.958-0.559,2.937-0.838,4.895-1.397
						c4.234,7.063,6.346,10.598,10.563,17.688c-0.554-8.15-0.831-12.211-1.38-20.308c1.968-0.561,2.952-0.842,4.921-1.404
						c3.296,10.549,4.942,15.841,8.229,26.48c-1.339,0.389-2.009,0.584-3.348,0.973c-2.599-8.54-3.901-12.793-6.506-21.276
						c0.629,9.049,0.946,13.59,1.581,22.707c-0.951,0.276-1.426,0.414-2.377,0.691c-4.665-7.949-7.002-11.909-11.688-19.82
						c2.7,8.48,4.048,12.729,6.739,21.258C5405.462,912.53,5404.798,912.724,5403.468,913.11z"/>
					<path fill="#FFFFFF" d="M5428.218,905.919c-1.572,0.457-2.358,0.685-3.93,1.142c-0.31-9.519-0.615-19.038-0.914-28.557
						c1.276-0.364,1.914-0.546,3.191-0.91c5.119,8.107,10.217,16.228,15.289,24.364c-1.582,0.459-2.373,0.689-3.955,1.149
						c-1.164-1.929-1.746-2.893-2.911-4.818c-2.836,0.822-4.254,1.232-7.09,2.054
						C5428.026,902.571,5428.09,903.686,5428.218,905.919z M5426.759,884.359c0.306,4.569,0.46,6.859,0.768,11.448
						c2.07-0.598,3.105-0.897,5.175-1.495C5430.328,890.324,5429.14,888.334,5426.759,884.359z"/>
					<path fill="#FFFFFF" d="M5437.851,879.438c-1.558,0.446-2.337,0.669-3.895,1.115c-0.578-1.864-0.866-2.795-1.444-4.655
						c4.56-1.301,6.84-1.951,11.401-3.251c0.574,1.856,0.861,2.785,1.435,4.645c-1.548,0.443-2.322,0.665-3.87,1.108
						c2.675,8.651,4.012,12.994,6.688,21.725c-1.446,0.42-2.169,0.63-3.615,1.05C5441.871,892.44,5440.53,888.095,5437.851,879.438z
						"/>
					<path fill="#FFFFFF" d="M5445.813,872.104c1.452-0.414,2.178-0.621,3.63-1.035c3.234,10.474,4.851,15.735,8.088,26.334
						c-1.446,0.42-2.169,0.63-3.615,1.05C5450.673,887.851,5449.053,882.586,5445.813,872.104z"/>
					<path fill="#FFFFFF" d="M5451.465,870.492c1.5-0.428,2.25-0.642,3.751-1.07c4.25,7.431,6.373,11.157,10.616,18.65
						c-0.63-8.539-0.941-12.785-1.556-21.235c1.5-0.428,2.251-0.642,3.751-1.07c0.52,9.376,1.049,18.751,1.586,28.126
						c-1.465,0.426-2.198,0.639-3.664,1.064C5461.147,886.787,5456.318,878.633,5451.465,870.492z"/>
					<path fill="#FFFFFF" d="M5472.222,879.028c-2.567-8.409,0.213-15.055,5.229-16.487c5.455-1.557,11.334,3.399,13.588,10.827
						c2.254,7.429,0.15,14.798-5.332,16.391c-5.506,1.601-11.33-3.671-13.475-10.697
						C5472.228,879.049,5472.226,879.042,5472.222,879.028z M5475.777,877.771c1.46,4.787,5.092,8.311,8.587,7.297
						c3.641-1.056,4.376-6.301,3.065-10.619c-1.333-4.389-4.87-8.354-8.544-7.301c-3.601,1.032-4.523,5.978-3.118,10.588
						C5475.771,877.75,5475.773,877.757,5475.777,877.771z"/>
					<path fill="#FFFFFF" d="M5497.765,876.816c1.193,3.51,3.023,3.718,3.8,3.493c1.383-0.401,1.958-2.347,1.402-4.19
						c-0.674-2.233-2.182-2.507-5.073-3.153c-1.531-0.342-5.202-1.043-6.702-5.978c-1.521-5.004,0.7-8.571,3.621-9.406
						c2.386-0.682,6.102,0.226,7.994,5.952c-1.43,0.411-2.144,0.617-3.574,1.028c-0.509-1.155-1.433-3.067-3.209-2.557
						c-1.192,0.342-1.836,1.837-1.316,3.59c0.572,1.928,1.728,2.135,5.279,3.118c3.248,0.899,5.375,2.397,6.496,6.117
						c1.271,4.216,0.69,8.687-3.53,9.914c-4.074,1.185-7.272-1.808-8.783-6.888C5495.608,877.44,5496.328,877.232,5497.765,876.816z
						"/>
				</g>
				<g>
					<path fill="#FFFFFF" d="M5414.203,786.234c0.433,4.289-1.373,7.892-4.644,8.732c-4.272,1.097-8.853-2.907-10.602-8.419
						c-1.672-5.272-0.334-10.99,4.099-12.074c4.038-0.987,7.674,2.635,9.131,5.372c-1.191,0.299-1.786,0.448-2.977,0.747
						c-0.866-1.25-2.835-3.16-5.066-2.618c-2.721,0.662-3.473,4.358-2.364,7.86c1.143,3.609,3.986,6.321,6.654,5.64
						c2.498-0.638,2.758-3.699,2.796-4.486C5412.418,786.687,5413.014,786.536,5414.203,786.234z"/>
					<path fill="#FFFFFF" d="M5414.531,782.817c-1.989-6.306,0.183-11.237,4.096-12.208c4.254-1.056,8.833,2.772,10.577,8.33
						c1.743,5.558,0.087,10.96-4.184,12.057c-4.291,1.102-8.818-2.884-10.479-8.153
						C5414.537,782.833,5414.535,782.828,5414.531,782.817z M5417.305,781.945c1.131,3.589,3.953,6.256,6.677,5.561
						c2.838-0.725,3.422-4.594,2.407-7.826c-1.031-3.285-3.783-6.313-6.649-5.597c-2.808,0.701-3.533,4.38-2.444,7.836
						C5417.299,781.929,5417.301,781.934,5417.305,781.945z"/>
					<path fill="#FFFFFF" d="M5434.293,788.214c-2.453-7.829-3.679-11.741-6.135-19.573c1.526-0.379,2.289-0.569,3.816-0.949
						c3.2,5.253,4.797,7.874,7.986,13.11c-0.336-5.963-0.502-8.94-0.83-14.89c1.533-0.382,2.3-0.573,3.833-0.954
						c2.429,7.789,3.643,11.679,6.069,19.467c-1.043,0.268-1.564,0.402-2.607,0.671c-1.918-6.254-2.877-9.38-4.796-15.633
						c0.38,6.639,0.572,9.962,0.961,16.62c-0.741,0.19-1.112,0.286-1.853,0.476c-3.529-5.855-5.296-8.786-8.837-14.659
						c1.994,6.261,2.99,9.389,4.982,15.65C5435.847,787.815,5435.329,787.948,5434.293,788.214z"/>
					<path fill="#FFFFFF" d="M5449.808,763.252c2.371-0.591,3.491-0.361,4.55,0.305c1.375,0.865,2.536,2.64,3.129,4.551
						c0.593,1.912,0.618,4.052,0.044,5.272c-0.615,1.307-1.411,2.028-3.453,2.548c-0.689,0.175-1.033,0.263-1.722,0.439
						c0.83,2.667,1.245,4.001,2.075,6.669c-1.125,0.29-1.688,0.435-2.814,0.724c-2.422-7.781-3.633-11.668-6.058-19.449
						C5447.257,763.888,5448.107,763.676,5449.808,763.252z M5451.286,772.928c0.666-0.169,1-0.253,1.666-0.422
						c0.644-0.163,1.243-0.407,1.682-0.964c0.391-0.496,0.544-1.467,0.162-2.698c-0.383-1.232-1.072-1.931-1.716-2.169
						c-0.689-0.255-1.368-0.194-2.069-0.018c-0.622,0.156-0.932,0.234-1.554,0.39C5450.188,769.4,5450.553,770.576,5451.286,772.928
						z"/>
					<path fill="#FFFFFF" d="M5457.086,761.436c3.147-0.786,4.721-1.179,7.866-1.966c0.423,1.368,0.635,2.052,1.058,3.419
						c-2.015,0.507-3.022,0.76-5.038,1.267c0.545,1.757,0.817,2.635,1.361,4.392c1.976-0.5,2.963-0.75,4.938-1.251
						c0.423,1.367,0.635,2.051,1.058,3.419c-1.973,0.503-2.96,0.754-4.934,1.257c0.58,1.872,0.87,2.808,1.45,4.68
						c2.01-0.516,3.015-0.774,5.024-1.29c0.423,1.368,0.634,2.051,1.057,3.419c-3.132,0.809-4.699,1.213-7.833,2.021
						C5460.692,773.055,5459.492,769.185,5457.086,761.436z"/>
					<path fill="#FFFFFF" d="M5470.117,761.856c-1.211,0.305-1.817,0.458-3.029,0.763c-0.423-1.367-0.634-2.051-1.057-3.418
						c3.547-0.888,5.32-1.332,8.865-2.221c0.42,1.363,0.63,2.044,1.051,3.407c-1.203,0.304-1.805,0.455-3.009,0.759
						c1.958,6.341,2.936,9.51,4.893,15.853c-1.124,0.291-1.686,0.436-2.811,0.727
						C5473.059,771.376,5472.079,768.204,5470.117,761.856z"/>
					<path fill="#FFFFFF" d="M5476.37,756.609c3.143-0.789,4.714-1.183,7.854-1.974c0.418,1.358,0.626,2.038,1.044,3.396
						c-2.011,0.509-3.017,0.763-5.03,1.271c0.537,1.745,0.806,2.617,1.343,4.362c1.973-0.502,2.959-0.753,4.931-1.255
						c0.417,1.358,0.626,2.037,1.043,3.395c-1.97,0.505-2.956,0.757-4.927,1.261c0.572,1.859,0.859,2.788,1.431,4.648
						c2.007-0.517,3.01-0.776,5.016-1.294c0.417,1.358,0.626,2.037,1.043,3.396c-3.128,0.812-4.692,1.217-7.822,2.028
						C5479.926,768.147,5478.742,764.303,5476.37,756.609z"/>
					<path fill="#FFFFFF" d="M5499.454,765.061c-1.645-5.291-2.467-7.936-4.113-13.228c1.081-0.273,1.621-0.41,2.702-0.683
						c2.337,7.635,3.505,11.448,5.841,19.085c-0.994,0.259-1.491,0.388-2.485,0.647c-4.187-4.62-6.284-6.934-10.486-11.577
						c1.649,5.292,2.473,7.938,4.121,13.232c-1.078,0.28-1.616,0.42-2.694,0.7c-2.354-7.668-3.531-11.497-5.886-19.164
						c1.007-0.253,1.51-0.38,2.516-0.634C5493.171,758.103,5495.269,760.425,5499.454,765.061z"/>
					<path fill="#FFFFFF" d="M5518.098,759.654c0.348,4.143-1.505,7.651-4.758,8.502c-4.249,1.111-8.708-2.708-10.332-8.017
						c-1.553-5.076-0.118-10.618,4.288-11.72c4.012-1.004,7.538,2.452,8.927,5.081c-1.183,0.304-1.774,0.456-2.957,0.76
						c-0.833-1.198-2.743-3.021-4.96-2.469c-2.704,0.673-3.52,4.254-2.489,7.626c1.062,3.475,3.824,6.065,6.477,5.375
						c2.484-0.646,2.798-3.611,2.851-4.372C5516.326,760.114,5516.917,759.961,5518.098,759.654z"/>
					<path fill="#FFFFFF" d="M5516.173,746.55c1.124-0.286,1.685-0.429,2.809-0.716c2.306,7.579,3.458,11.364,5.764,18.945
						c-1.119,0.294-1.679,0.441-2.799,0.734C5519.638,757.925,5518.483,754.136,5516.173,746.55z"/>
					<path fill="#FFFFFF" d="M5529.231,763.601c-1.216,0.32-1.825,0.48-3.042,0.799c-0.05-8.17-0.071-12.242-0.108-20.38
						c0.987-0.253,1.48-0.379,2.466-0.632c4.499,6.988,6.743,10.471,11.225,17.433c-1.222,0.323-1.834,0.484-3.056,0.807
						c-0.854-1.373-1.281-2.059-2.135-3.432c-2.192,0.575-3.288,0.862-5.482,1.436
						C5529.152,761.219,5529.18,762.013,5529.231,763.601z M5528.558,748.229c0.14,3.267,0.211,4.901,0.353,8.172
						c1.601-0.417,2.401-0.626,4-1.043C5531.17,752.508,5530.299,751.083,5528.558,748.229z"/>
				</g>
				<path fill="none" stroke="#FFFFFF" stroke-width="6" stroke-miterlimit="10" stroke-dasharray="12" d="M5243.316,855.745
					c103.385-28.29,207.252-54.772,310.729-82.723"/>
			</g>
		</g>
		<g>
			
				<linearGradient id="SVGID_4_" gradientUnits="userSpaceOnUse" x1="3868.7366" y1="87.5386" x2="4273.0674" y2="87.5386" gradientTransform="matrix(1 0 0 1 965.325 716.37)">
				<stop  offset="0" style="stop-color:#29CFAD"/>
				<stop  offset="0.2355" style="stop-color:#23C6AA"/>
				<stop  offset="0.6256" style="stop-color:#13ACA2"/>
				<stop  offset="1" style="stop-color:#008E98"/>
			</linearGradient>
			<path fill="url(#SVGID_4_)" d="M4834.062,874.311c133.646,38.124,268.293,76.248,401.939,114.371l2.392-327.947
				c-72.226-14.054-145.709-26.749-217.779-41.6C5020.613,619.135,4834.062,873.71,4834.062,874.311z"/>
			<g>
				<path fill="#FFFFFF" d="M4962.581,790.231c-4.107-1.077-6.159-1.617-10.26-2.701c11.272-20.928,22.568-41.844,33.826-62.781
					c3.802,0.89,5.704,1.333,9.513,2.216c-2.092,23.402-4.253,46.797-6.506,70.184c-4.118-1.065-6.176-1.598-10.291-2.668
					c0.562-5.344,0.839-8.011,1.39-13.339c-4.557-1.162-6.834-1.744-11.384-2.912
					C4966.352,783.031,4965.094,785.43,4962.581,790.231z M4985.045,745.416c-3.943,8.386-5.91,12.564-9.84,20.913
					c2.526,0.634,3.789,0.95,6.317,1.582C4982.941,758.909,4983.646,754.414,4985.045,745.416z"/>
				<path fill="#FFFFFF" d="M5014.864,731.381c4.146,0.945,6.221,1.417,10.372,2.356c-5.677,18.192-11.378,36.377-17.095,54.557
					c5.214,1.309,7.823,1.962,13.042,3.265c-1.62,5.11-2.431,7.665-4.055,12.779c-9.272-2.369-13.905-3.557-23.161-5.945
					C5000.958,776.063,5007.93,753.728,5014.864,731.381z"/>
				<path fill="#FFFFFF" d="M5054.981,740.402c-4.898,15.467-9.82,30.925-14.76,46.378c-1.086,3.398-1.408,6.016-0.965,7.788
					c0.455,1.819,1.725,3.008,4.013,3.576s4.081,0.215,5.619-1.196c1.448-1.328,2.657-3.728,3.756-7.143
					c5.001-15.53,9.982-31.067,14.937-46.612c4.165,0.92,6.247,1.38,10.413,2.297c-5.258,16.382-10.537,32.756-15.835,49.125
					c-1.952,6.024-4.782,11.036-8.534,13.992c-3.815,3.006-8.625,4.221-14.591,2.703c-5.966-1.518-9.346-4.767-10.793-9.092
					c-1.41-4.216-0.895-9.715,0.995-15.659c5.135-16.152,10.252-32.309,15.343-48.474
					C5048.738,739.014,5050.819,739.477,5054.981,740.402z"/>
				<path fill="#FFFFFF" d="M5064.401,816.338c7.494-22.96,14.953-45.93,22.364-68.917c6.058,1.331,9.087,1.995,15.144,3.323
					c-2.523,15.472-5.09,30.936-7.701,46.393c7.242-14.435,14.469-28.878,21.675-43.332c6.054,1.326,9.08,1.988,15.128,3.314
					c-7.711,23.4-15.475,46.782-23.286,70.148c-3.593-0.906-5.389-1.36-8.983-2.266c6.005-18.05,11.984-36.108,17.937-54.175
					c-8.949,17.316-17.928,34.616-26.922,51.909c-2.951-0.744-4.427-1.116-7.378-1.861c2.894-18.62,5.736-37.247,8.526-55.883
					c-5.815,17.879-11.654,35.75-17.515,53.615C5069.795,817.7,5067.998,817.246,5064.401,816.338z"/>
				<path fill="#FFFFFF" d="M5149.499,806.099c4.695-13.936,9.373-27.877,14.034-41.824c3.655,0.808,5.482,1.213,9.133,2.024
					c-7.978,23.788-16.014,47.555-24.108,71.303c-3.636-0.924-5.454-1.386-9.093-2.309c0.5-16.241,0.923-32.485,1.264-48.731
					c-5.035,15.077-10.097,30.146-15.183,45.206c-3.589-0.908-5.384-1.361-8.974-2.268c7.874-23.45,15.699-46.916,23.469-70.4
					c4.212,0.925,6.317,1.387,10.524,2.314C5150.259,776.31,5149.903,791.205,5149.499,806.099z"/>
				<path fill="#FFFFFF" d="M5167.426,803.52c4.026-12.412,14.082-36.539,30.985-32.935c17.66,3.765,9.027,31.73,5.559,41.842
					c-3.975,11.591-13.751,37.162-31.053,32.866c-16.765-4.162-9.352-30.936-5.524-41.677
					C5167.407,803.578,5167.414,803.559,5167.426,803.52z M5177.872,806.228c-5.844,17.173-4.688,25.196-0.281,25.492
					c8.451,0.569,13.204-13.906,15.914-21.833c2.49-7.285,6.406-24.088,0.288-25.65c-6.357-1.623-12.706,13.685-15.888,21.893
					C5177.891,806.17,5177.884,806.19,5177.872,806.228z"/>
			</g>
		</g>
	</g>
	<polygon fill="#008185" points="5020.613,619.135 5236.102,660.291 5447.788,615.753 5238.393,573.247 	"/>
</g>
</svg>
