<?xml version="1.0" encoding="utf-8"?>
<!-- Generator: Adobe Illustrator 17.0.0, SVG Export Plug-In . SVG Version: 6.00 Build 0)  -->
<!DOCTYPE svg PUBLIC "-//W3C//DTD SVG 1.1//EN" "http://www.w3.org/Graphics/SVG/1.1/DTD/svg11.dtd">
<svg version="1.1" id="Capa_1" xmlns="http://www.w3.org/2000/svg" xmlns:xlink="http://www.w3.org/1999/xlink" x="0px" y="0px"
	 width="1845.185px" height="822.404px" viewBox="2373.586 1271.643 1845.185 822.404"
	 enable-background="new 2373.586 1271.643 1845.185 822.404" xml:space="preserve">
<radialGradient id="SVGID_1_" cx="1522.4869" cy="-41212.6602" r="789.131" gradientTransform="matrix(-0.5621 0.2093 -0.0246 -0.0285 3479.1978 336.7306)" gradientUnits="userSpaceOnUse">
	<stop  offset="0" style="stop-color:#505052"/>
	<stop  offset="0.0149" style="stop-color:#555556"/>
	<stop  offset="0.198" style="stop-color:#888889"/>
	<stop  offset="0.3782" style="stop-color:#B3B3B4"/>
	<stop  offset="0.5517" style="stop-color:#D4D4D4"/>
	<stop  offset="0.7168" style="stop-color:#ECECEC"/>
	<stop  offset="0.8701" style="stop-color:#FAFAFA"/>
	<stop  offset="1" style="stop-color:#FFFFFF"/>
</radialGradient>
<path opacity="0.5" fill="url(#SVGID_1_)" enable-background="new    " d="M3657.56,1853.527
	c95.36-35.514,182.283-70.007,252.125-99.625c-21.6-10.633-41.309-20.631-58.815-29.832c-69.07,22.826-149.212,51.003-233.82,82.513
	c-243.986,90.867-432.674,175.023-421.486,187.985C3206.754,2007.536,3413.571,1944.394,3657.56,1853.527z"/>
<radialGradient id="SVGID_2_" cx="-7630.2104" cy="38776.1914" r="1038.4711" gradientTransform="matrix(-0.3781 -0.1474 0.0201 -0.0181 -756.03 1411.358)" gradientUnits="userSpaceOnUse">
	<stop  offset="0" style="stop-color:#505052"/>
	<stop  offset="0.0149" style="stop-color:#555556"/>
	<stop  offset="0.198" style="stop-color:#888889"/>
	<stop  offset="0.3782" style="stop-color:#B3B3B4"/>
	<stop  offset="0.5517" style="stop-color:#D4D4D4"/>
	<stop  offset="0.7168" style="stop-color:#ECECEC"/>
	<stop  offset="0.8701" style="stop-color:#FAFAFA"/>
	<stop  offset="1" style="stop-color:#FFFFFF"/>
</radialGradient>
<path opacity="0.5" fill="url(#SVGID_2_)" enable-background="new    " d="M2884.81,1853.676
	c215.698,84.124,400.315,143.547,412.319,132.702c11.998-10.842-153.168-87.839-368.87-171.963
	c-76.016-29.646-148.162-56.221-210.254-77.735c-17.916,7.284-37.798,15.115-59.372,23.383
	C2720.585,1787.622,2798.662,1820.078,2884.81,1853.676z"/>
<polygon fill="none" points="3276.247,1586.119 3274.673,1859.417 3278.007,1585.651 "/>
<polygon fill="none" points="3284.783,1585.58 3286.356,1858.878 3283.023,1585.112 "/>
<g>
	
		<linearGradient id="SVGID_3_" gradientUnits="userSpaceOnUse" x1="2312.2334" y1="1000.6501" x2="2914.2185" y2="1000.6501" gradientTransform="matrix(1 0 0 1 965.325 716.37)">
		<stop  offset="0" style="stop-color:#FF3A18"/>
		<stop  offset="0.1672" style="stop-color:#FF571A"/>
		<stop  offset="0.3658" style="stop-color:#FF711C"/>
		<stop  offset="0.5691" style="stop-color:#FF841D"/>
		<stop  offset="0.7777" style="stop-color:#FF8F1E"/>
		<stop  offset="1" style="stop-color:#FF931E"/>
	</linearGradient>
	<path fill="url(#SVGID_3_)" d="M3277.917,1963.494l601.627-215.085l-203.269-277.863l-398.716,115.646L3277.917,1963.494z"/>
	<g>
		<path fill="none" stroke="#FFFFFF" stroke-width="6" stroke-miterlimit="10" d="M3277.36,1731.623
			c1.858-0.578,2.788-0.866,4.646-1.444"/>
		<path fill="none" stroke="#FFFFFF" stroke-width="6" stroke-miterlimit="10" stroke-dasharray="11.9337,11.9337" d="
			M3291.246,1727.308c152.13-47.275,304.257-94.561,456.383-141.849"/>
		<path fill="none" stroke="#FFFFFF" stroke-width="6" stroke-miterlimit="10" d="M3752.225,1584.03
			c1.849-0.575,2.773-0.862,4.622-1.437"/>
	</g>
	<g>
		<path fill="none" stroke="#FFFFFF" stroke-width="6" stroke-miterlimit="10" d="M3275.618,1809.558
			c1.849-0.61,2.774-0.915,4.622-1.526"/>
		<path fill="none" stroke="#FFFFFF" stroke-width="6" stroke-miterlimit="10" stroke-dasharray="12.1782,12.1782" d="
			M3289.618,1804.937c165.806-54.724,331.612-109.447,497.402-164.219"/>
		<path fill="none" stroke="#FFFFFF" stroke-width="6" stroke-miterlimit="10" d="M3791.669,1639.183
			c1.832-0.605,2.748-0.908,4.581-1.514"/>
	</g>
	<g>
		<path fill="#FFFFFF" d="M3338.04,1632.135c-3.385-10.483-6.729-20.977-10.03-31.488c1.855-0.54,2.783-0.81,4.639-1.35
			c5.696,9.063,8.563,13.557,14.315,22.482c-0.523-10.461-0.769-15.713-1.222-26.292c1.846-0.537,2.768-0.806,4.614-1.343
			c3.286,10.487,6.613,20.959,9.98,31.42c-1.247,0.367-1.87,0.551-3.117,0.918c-3.374-10.525-5.047-15.818-8.353-26.491
			c0.441,9.512,0.92,19.022,1.434,28.53c-0.88,0.26-1.321,0.389-2.201,0.649c-5.205-8.119-10.364-16.266-15.473-24.446
			c3.384,10.666,5.098,15.958,8.556,26.484C3339.926,1631.579,3339.297,1631.764,3338.04,1632.135z"/>
		<path fill="#FFFFFF" d="M3358.521,1609.171c-3.141-9.888-0.066-18.036,5.9-19.772c6.339-1.844,13.393,4.086,16.248,13.107
			c2.854,9.021,0.394,17.596-5.956,19.468c-6.378,1.88-13.428-4.103-16.178-12.76
			C3358.529,1609.196,3358.527,1609.188,3358.521,1609.171z M3361.818,1608.021c2.074,6.534,7.049,10.882,11.57,9.552
			c4.607-1.355,5.844-7.935,3.913-14.036c-1.945-6.143-6.823-11.054-11.468-9.7c-4.616,1.345-6.035,7.82-4.028,14.141
			C3361.81,1607.995,3361.812,1608.004,3361.818,1608.021z"/>
		<path fill="#FFFFFF" d="M3378.865,1585.848c2.628-0.765,3.943-1.148,6.572-1.913c2.841-0.827,6.569-1.101,10.312,2.579
			c2.426,2.385,4.339,5.785,5.631,9.886c2.877,9.131,1.613,16.595-5.827,18.788c-2.713,0.8-4.069,1.199-6.781,1.999
			C3385.43,1606.751,3382.128,1596.307,3378.865,1585.848z M3390.745,1611.823c1.432-0.421,2.147-0.631,3.579-1.052
			c4.982-1.465,5.781-6.794,3.728-13.306c-0.947-3.002-2.396-5.77-4.235-7.51c-1.678-1.588-3.847-2.5-6.572-1.706
			c-1.446,0.422-2.169,0.632-3.615,1.054C3386.455,1598.375,3387.878,1602.876,3390.745,1611.823z"/>
		<path fill="#FFFFFF" d="M3399.646,1579.798c4.754-1.384,7.132-2.076,11.888-3.461c0.547,1.776,0.821,2.663,1.369,4.433
			c-3.399,0.991-5.099,1.486-8.497,2.477c1.109,3.576,1.666,5.359,2.781,8.913c3.35-0.979,5.025-1.469,8.375-2.449
			c0.546,1.742,0.819,2.612,1.366,4.349c-3.349,0.981-5.023,1.471-8.372,2.452c1.166,3.696,1.75,5.538,2.921,9.213
			c3.391-0.997,5.087-1.496,8.478-2.493c0.554,1.743,0.832,2.614,1.388,4.353c-4.741,1.397-7.111,2.096-11.851,3.493
			C3406.173,1600.663,3402.891,1590.238,3399.646,1579.798z"/>
		<path fill="#FFFFFF" d="M3415.153,1575.284c1.356-0.395,2.034-0.592,3.389-0.987c2.76,8.973,5.562,17.933,8.403,26.88
			c2.991-0.88,4.486-1.319,7.477-2.199c0.552,1.741,0.828,2.61,1.38,4.346c-4.341,1.279-6.511,1.919-10.852,3.198
			C3421.648,1596.12,3418.383,1585.709,3415.153,1575.284z"/>
		<path fill="#FFFFFF" d="M3430.784,1588.025c-3.075-9.824,0.041-17.954,6.018-19.694c6.35-1.849,13.374,4.054,16.163,13.018
			c2.789,8.964,0.26,17.476-6.097,19.35c-6.385,1.883-13.378-4.032-16.071-12.633
			C3430.792,1588.05,3430.79,1588.042,3430.784,1588.025z M3434.087,1586.874c2.03,6.491,6.966,10.794,11.492,9.462
			c4.613-1.357,5.901-7.892,4.013-13.954c-1.901-6.104-6.749-10.987-11.403-9.631c-4.624,1.348-6.079,7.8-4.115,14.081
			C3434.08,1586.849,3434.083,1586.857,3434.087,1586.874z"/>
		<path fill="#FFFFFF" d="M3470.023,1593.237c-1.466,0.432-2.199,0.648-3.666,1.081c-0.326-11.224-0.634-22.448-0.924-33.672
			c1.23-0.358,1.845-0.537,3.075-0.895c6.019,9.552,12.079,19.075,18.181,28.574c-1.466,0.432-2.199,0.648-3.666,1.081
			c-1.713-2.669-2.57-4.007-4.283-6.693c-3.623,1.064-5.435,1.596-9.058,2.66
			C3469.818,1588.525,3469.885,1590.098,3470.023,1593.237z M3468.617,1566.053c0.292,6.061,0.44,9.075,0.743,15.076
			c2.891-0.848,4.336-1.271,7.227-2.119C3473.399,1573.86,3471.804,1571.27,3468.617,1566.053z"/>
		<path fill="#FFFFFF" d="M3500.845,1576.128c-2.927-9.371-4.388-14.099-7.305-23.667c1.311-0.382,1.966-0.572,3.276-0.954
			c3.143,10.351,6.316,20.692,9.518,31.025c-1.237,0.365-1.855,0.547-3.092,0.911c-7.344-8.034-11.023-12.097-18.381-20.333
			c2.936,9.527,4.407,14.237,7.356,23.583c-1.306,0.385-1.959,0.577-3.265,0.962c-3.224-10.348-6.418-20.703-9.581-31.07
			c1.276-0.372,1.914-0.557,3.19-0.929C3489.881,1563.952,3493.54,1568.043,3500.845,1576.128z"/>
		<path fill="#FFFFFF" d="M3512.292,1580.777c-1.466,0.432-2.199,0.648-3.665,1.08c-0.27-11.187-0.528-22.375-0.774-33.563
			c1.23-0.358,1.845-0.537,3.074-0.895c5.969,9.516,11.977,19.002,18.028,28.466c-1.466,0.432-2.199,0.648-3.664,1.08
			c-1.696-2.655-2.545-3.986-4.242-6.66c-3.622,1.064-5.434,1.596-9.057,2.66
			C3512.112,1576.086,3512.172,1577.652,3512.292,1580.777z M3511.013,1553.688c0.268,6.046,0.403,9.051,0.678,15.03
			c2.891-0.847,4.336-1.271,7.226-2.119C3515.758,1561.472,3514.177,1558.89,3511.013,1553.688z M3509.802,1537.054
			c0.791,1.187,1.186,1.78,1.977,2.962c-2.16,2.896-3.24,4.341-5.397,7.227c-0.701-0.999-1.051-1.499-1.752-2.502
			C3506.697,1541.672,3507.731,1540.135,3509.802,1537.054z"/>
		<path fill="#FFFFFF" d="M3531.219,1575.198c-3.184-10.308-6.313-20.633-9.429-30.962c1.356-0.395,2.034-0.592,3.39-0.987
			c1.588,5.298,2.382,7.929,3.97,13.159c3.661-1.07,5.491-1.605,9.152-2.676c-1.583-5.227-2.374-7.856-3.958-13.152
			c1.356-0.395,2.034-0.592,3.389-0.987c3.098,10.315,6.208,20.626,9.372,30.921c-1.351,0.398-2.026,0.597-3.377,0.995
			c-1.643-5.341-2.464-8.026-4.107-13.431c-3.658,1.072-5.488,1.607-9.147,2.679c1.649,5.41,2.474,8.097,4.123,13.444
			C3533.246,1574.6,3532.57,1574.8,3531.219,1575.198z"/>
		<path fill="#FFFFFF" d="M3545.2,1537.42c2.337,7.838,3.505,11.714,5.837,19.401c0.581,1.913,1.086,3.572,2.401,5.125
			c1.072,1.263,2.548,1.908,4.008,1.479s2.312-1.763,2.49-3.298c0.223-1.933-0.242-3.671-0.846-5.666
			c-2.326-7.681-3.49-11.555-5.821-19.389c1.344-0.391,2.016-0.587,3.359-0.978c2.329,7.833,3.492,11.706,5.814,19.385
			c1.26,4.063,1.656,7.328,0.561,10.063c-0.783,1.956-2.13,3.543-4.219,4.159c-1.516,0.447-3.891,0.391-5.929-1.126
			c-2.797-2.082-4.091-5.009-5.2-8.762c-2.336-7.689-3.505-11.566-5.844-19.405C3543.167,1538.012,3543.845,1537.815,3545.2,1537.42
			z"/>
		<path fill="#FFFFFF" d="M3570.799,1563.531c-1.465,0.432-2.197,0.648-3.662,1.079c-0.195-11.136-0.386-22.273-0.574-33.409
			c1.229-0.358,1.843-0.536,3.072-0.894c5.896,9.466,11.833,18.903,17.81,28.318c-1.464,0.432-2.196,0.647-3.66,1.079
			c-1.672-2.635-2.509-3.958-4.184-6.614c-3.618,1.063-5.428,1.594-9.047,2.657
			C3570.651,1558.87,3570.699,1560.426,3570.799,1563.531z M3569.688,1536.577c0.237,6.025,0.355,9.016,0.591,14.965
			c2.887-0.846,4.331-1.27,7.218-2.116C3574.378,1544.328,3572.816,1541.759,3569.688,1536.577z"/>
		<path fill="#FFFFFF" d="M3605.768,1543.162c0.351,5.959-2.283,11.359-7.085,12.774c-6.375,1.879-13.237-3.895-15.856-12.637
			c-2.532-8.451-0.264-17.426,6.287-19.306c5.693-1.634,10.847,3.312,13.143,7.277c-1.432,0.418-2.149,0.627-3.581,1.046
			c-1.284-1.807-4.58-4.98-8.293-3.922c-4.483,1.279-6.044,7.673-4.176,13.916c1.918,6.409,6.699,10.682,11.161,9.37
			c4.09-1.203,4.728-6.228,4.852-7.477C3603.638,1543.787,3604.349,1543.579,3605.768,1543.162z"/>
		<path fill="#FFFFFF" d="M3610.849,1518.311c2.625-0.764,3.937-1.146,6.562-1.91c2.836-0.826,6.547-1.1,10.189,2.518
			c2.361,2.346,4.189,5.688,5.377,9.708c2.647,8.952,1.19,16.229-6.236,18.417c-2.707,0.798-4.061,1.197-6.769,1.995
			C3616.901,1538.805,3613.87,1528.559,3610.849,1518.311z M3622.069,1543.791c1.429-0.42,2.143-0.63,3.572-1.05
			c4.972-1.462,5.904-6.668,4.015-13.052c-0.871-2.943-2.251-5.662-4.04-7.37c-1.632-1.558-3.768-2.453-6.488-1.66
			c-1.443,0.421-2.165,0.631-3.609,1.052C3618.151,1530.656,3619.46,1535.065,3622.069,1543.791z"/>
		<path fill="#FFFFFF" d="M3631.589,1512.275c4.741-1.38,7.111-2.069,11.849-3.448c0.512,1.755,0.768,2.63,1.278,4.376
			c-3.387,0.987-5.08,1.48-8.468,2.467c1.033,3.526,1.549,5.279,2.577,8.768c3.34-0.976,5.01-1.464,8.348-2.44
			c0.503,1.71,0.754,2.563,1.256,4.264c-3.337,0.977-5.006,1.466-8.345,2.443c1.07,3.62,1.604,5.42,2.669,9.004
			c3.381-0.994,5.071-1.491,8.451-2.484c0.504,1.7,0.756,2.548,1.259,4.24c-4.725,1.392-7.088,2.088-11.815,3.481
			C3637.601,1532.731,3634.59,1522.504,3631.589,1512.275z"/>
		<path fill="#FFFFFF" d="M3343.271,1651.819c4.404-1.312,6.606-1.969,11.01-3.281c0.577,1.74,0.865,2.61,1.443,4.347
			c-3.057,0.914-4.585,1.37-7.641,2.284c1.204,3.613,1.807,5.416,3.017,9.018c3.007-0.905,4.511-1.357,7.519-2.262
			c0.575,1.715,0.863,2.572,1.439,4.285c-3.006,0.907-4.509,1.36-7.514,2.267c1.779,5.279,2.672,7.913,4.461,13.172
			c-1.341,0.409-2.012,0.613-3.353,1.022C3350.167,1672.395,3346.707,1662.112,3343.271,1651.819z"/>
		<path fill="#FFFFFF" d="M3361.595,1663.503c-3.254-9.689-0.289-17.701,5.646-19.47c6.307-1.879,13.42,3.832,16.368,12.654
			c2.947,8.822,0.585,17.31-5.722,19.234c-6.336,1.932-13.429-3.894-16.277-12.377
			C3361.604,1663.528,3361.602,1663.519,3361.595,1663.503z M3364.872,1662.332c2.147,6.4,7.156,10.63,11.647,9.265
			c4.578-1.391,5.74-7.888,3.744-13.856c-2.009-6.009-6.936-10.759-11.556-9.378c-4.592,1.372-5.927,7.736-3.849,13.928
			C3364.863,1662.308,3364.865,1662.316,3364.872,1662.332z"/>
		<path fill="#FFFFFF" d="M3381.505,1640.424c2.386-0.711,3.579-1.067,5.965-1.778c3.311-0.987,5.252-0.802,6.724-0.042
			c2.242,1.156,4.395,4.02,5.532,7.454c0.712,2.151,0.982,4.36,0.738,6.187c-0.334,2.5-1.473,3.669-2.957,4.572
			c3.497,3.94,5.246,5.904,8.742,9.819c-1.421,0.433-2.131,0.65-3.552,1.083c-4.155-4.787-6.233-7.19-10.388-12.014
			c0.296-0.089,0.444-0.134,0.74-0.223c1.452-0.438,3.205-1.06,3.774-2.593c0.563-1.517,0.449-3.454-0.209-5.441
			c-0.686-2.069-2.054-3.93-3.511-4.642c-1.159-0.566-2.411-0.373-3.923,0.079c-1.152,0.344-1.729,0.517-2.881,0.861
			c3.494,10.57,5.252,15.823,8.783,26.295c-1.341,0.409-2.012,0.613-3.353,1.022
			C3388.298,1660.857,3384.888,1650.645,3381.505,1640.424z"/>
		<path fill="#FFFFFF" d="M3409.148,1665.751c-3.416-10.17-6.787-20.354-10.146-30.544c1.85-0.551,2.775-0.827,4.625-1.379
			c5.744,8.73,8.62,13.062,14.373,21.678c-0.552-10.193-0.818-15.301-1.326-25.568c1.839-0.548,2.758-0.822,4.597-1.37
			c3.312,10.153,6.661,20.294,10.041,30.424c-1.239,0.378-1.858,0.567-3.097,0.944c-3.373-10.218-5.055-15.345-8.4-25.668
			c0.583,11.149,0.889,16.694,1.524,27.764c-0.875,0.267-1.313,0.4-2.188,0.667c-5.197-7.848-10.37-15.711-15.513-23.594
			c3.438,10.329,5.167,15.461,8.637,25.69C3411.024,1665.18,3410.399,1665.37,3409.148,1665.751z"/>
		<path fill="#FFFFFF" d="M3437.225,1657.191c-1.455,0.444-2.182,0.665-3.637,1.109c-0.47-10.999-0.92-21.999-1.349-33
			c1.222-0.364,1.833-0.547,3.056-0.911c6.131,9.27,12.287,18.522,18.468,27.759c-1.455,0.443-2.182,0.665-3.637,1.109
			c-1.74-2.608-2.61-3.914-4.351-6.532c-3.596,1.09-5.394,1.635-8.99,2.726C3436.958,1652.55,3437.047,1654.098,3437.225,1657.191z
			 M3435.479,1630.536c0.365,5.914,0.551,8.864,0.929,14.751c2.87-0.867,4.305-1.301,7.174-2.168
			C3440.341,1638.105,3438.719,1635.589,3435.479,1630.536z"/>
		<path fill="#FFFFFF" d="M3471.738,1636.62c0.485,5.888-2.02,11.288-6.793,12.745c-6.335,1.933-13.353-3.759-16.171-12.357
			c-2.724-8.312-0.628-17.108,5.896-19.026c5.67-1.667,10.921,3.098,13.3,6.963c-1.426,0.428-2.139,0.642-3.565,1.07
			c-1.322-1.759-4.684-4.827-8.381-3.745c-4.463,1.307-5.898,7.588-3.889,13.726c2.063,6.302,6.954,10.502,11.389,9.153
			c4.066-1.236,4.588-6.223,4.684-7.46C3469.621,1637.261,3470.326,1637.047,3471.738,1636.62z"/>
		<path fill="#FFFFFF" d="M3467.908,1614.666c1.348-0.402,2.022-0.603,3.37-1.005c3.231,10.064,6.496,20.117,9.788,30.161
			c-1.341,0.409-2.011,0.613-3.352,1.022C3474.416,1634.795,3471.146,1624.736,3467.908,1614.666z"/>
		<path fill="#FFFFFF" d="M3479.352,1628.017c-3.077-9.489-0.004-17.391,5.937-19.161c6.312-1.881,13.307,3.704,16.086,12.345
			c2.779,8.641,0.272,16.966-6.033,18.89c-6.334,1.932-13.282-3.727-15.976-12.034
			C3479.36,1628.042,3479.356,1628.033,3479.352,1628.017z M3482.632,1626.85c2.03,6.268,6.935,10.38,11.427,9.015
			c4.577-1.391,5.851-7.764,3.968-13.61c-1.895-5.886-6.724-10.53-11.348-9.148c-4.595,1.373-6.025,7.637-4.061,13.702
			C3482.624,1626.825,3482.626,1626.833,3482.632,1626.85z M3485.639,1598.446c0.792,1.119,1.188,1.677,1.979,2.793
			c-2.131,2.829-3.195,4.243-5.32,7.07c-0.701-0.942-1.052-1.414-1.753-2.358C3482.581,1602.951,3483.6,1601.45,3485.639,1598.446z"
			/>
		<path fill="#FFFFFF" d="M3521.073,1623.808c-2.935-9.065-4.401-13.62-7.33-22.806c1.302-0.388,1.953-0.582,3.255-0.97
			c3.154,9.984,6.337,19.958,9.545,29.925c-1.227,0.374-1.84,0.561-3.067,0.935c-7.314-7.717-10.981-11.605-18.327-19.466
			c2.953,9.177,4.432,13.731,7.392,22.8c-1.295,0.395-1.943,0.592-3.238,0.987c-3.24-9.996-6.455-20-9.638-30.014
			c1.268-0.378,1.902-0.567,3.17-0.945C3510.144,1612.154,3513.792,1616.061,3521.073,1623.808z"/>
		<path fill="#FFFFFF" d="M3529.503,1596.303c1.348-0.402,2.021-0.603,3.369-1.004c3.126,9.956,6.281,19.903,9.46,29.843
			c-1.34,0.409-2.01,0.613-3.35,1.022C3535.798,1616.218,3532.635,1606.265,3529.503,1596.303z"/>
		<path fill="#FFFFFF" d="M3558.207,1612.55c-2.871-9.003-4.307-13.529-7.181-22.664c1.301-0.388,1.952-0.582,3.253-0.97
			c3.09,9.919,6.207,19.829,9.345,29.732c-1.226,0.374-1.839,0.561-3.066,0.935c-7.247-7.652-10.881-11.51-18.167-19.316
			c2.895,9.122,4.342,13.645,7.237,22.649c-1.295,0.395-1.942,0.592-3.237,0.987c-3.171-9.933-6.319-19.873-9.438-29.822
			c1.268-0.378,1.901-0.567,3.169-0.945C3547.375,1600.987,3550.991,1604.864,3558.207,1612.55z"/>
		<path fill="#FFFFFF" d="M3562.724,1590.998c-1.939,0.58-2.909,0.87-4.848,1.449c-0.525-1.682-0.787-2.525-1.312-4.212
			c5.228-1.559,7.842-2.338,13.069-3.896c0.521,1.684,0.782,2.525,1.303,4.203c-1.939,0.58-2.908,0.87-4.848,1.449
			c3.196,10.273,4.792,15.358,7.982,25.471c-1.339,0.408-2.009,0.613-3.348,1.021
			C3567.524,1606.365,3565.926,1601.277,3562.724,1590.998z"/>
		<path fill="#FFFFFF" d="M3571.886,1583.668c4.725-1.408,7.087-2.113,11.81-3.521c0.518,1.68,0.776,2.519,1.294,4.194
			c-3.375,1.009-5.063,1.514-8.438,2.523c1.049,3.386,1.574,5.074,2.622,8.441c3.325-1,4.987-1.5,8.312-2.5
			c0.512,1.649,0.768,2.472,1.279,4.117c-3.322,1.002-4.983,1.504-8.306,2.506c1.093,3.501,1.639,5.247,2.731,8.73
			c3.363-1.022,5.044-1.533,8.406-2.555c0.516,1.651,0.774,2.476,1.29,4.124c-4.699,1.433-7.049,2.149-11.748,3.582
			C3578.031,1603.435,3574.947,1593.556,3571.886,1583.668z"/>
		<path fill="#FFFFFF" d="M3606.299,1582.607c-0.873-0.918-1.824-1.688-2.797-2.223c-1.598-0.879-3.323-1.198-5.061-0.678
			c-3.99,1.192-6.409,6.583-4.28,13.449c2.203,7.106,7.235,10.077,11.18,8.878c1.93-0.587,3.342-1.941,4.179-3.652
			c0.846-1.729,1.165-3.862,0.853-5.982c-3.627,1.096-5.44,1.644-9.067,2.74c-0.473-1.527-0.71-2.292-1.184-3.823
			c5.188-1.563,7.782-2.345,12.969-3.907c0.575,1.87,1.137,4.485,1.094,6.873c-0.116,6.392-3.566,10.643-7.537,11.854
			c-6.212,1.895-13.125-3.31-15.816-11.977c-2.74-8.828,0.25-16.829,6.381-18.656c4.534-1.351,9.794,1.305,12.873,5.97
			C3608.571,1581.926,3607.813,1582.153,3606.299,1582.607z"/>
		<path fill="#FFFFFF" d="M3611.44,1571.876c2.383-0.71,3.574-1.065,5.957-1.776c3.306-0.985,5.221-0.823,6.651-0.101
			c2.18,1.1,4.215,3.85,5.223,7.153c0.631,2.07,0.821,4.198,0.516,5.961c-0.417,2.413-1.582,3.55-3.08,4.435
			c3.314,3.757,4.968,5.625,8.27,9.343c-1.418,0.432-2.126,0.648-3.544,1.081c-3.92-4.549-5.884-6.835-9.82-11.441
			c0.296-0.089,0.443-0.134,0.739-0.223c1.45-0.437,3.202-1.054,3.817-2.538c0.608-1.467,0.563-3.335-0.021-5.246
			c-0.608-1.991-1.899-3.777-3.314-4.45c-1.128-0.537-2.372-0.338-3.881,0.113c-1.151,0.344-1.726,0.516-2.877,0.86
			c3.112,10.191,4.662,15.229,7.757,25.242c-1.339,0.408-2.008,0.612-3.346,1.02
			C3617.453,1591.505,3614.436,1581.694,3611.44,1571.876z"/>
		<path fill="#FFFFFF" d="M3639.711,1595.448c-1.451,0.443-2.177,0.664-3.629,1.107c-0.106-10.644-0.207-21.288-0.308-31.932
			c1.219-0.364,1.829-0.545,3.048-0.909c5.756,8.926,11.554,17.826,17.385,26.704c-1.451,0.443-2.177,0.664-3.628,1.106
			c-1.631-2.497-2.447-3.749-4.081-6.261c-3.587,1.087-5.38,1.631-8.968,2.719
			C3639.604,1590.974,3639.639,1592.467,3639.711,1595.448z M3638.829,1569.682c0.187,5.736,0.28,8.59,0.466,14.279
			c2.863-0.865,4.294-1.298,7.157-2.163C3643.408,1576.981,3641.885,1574.559,3638.829,1569.682z"/>
		<path fill="#FFFFFF" d="M3649.674,1560.48c1.344-0.401,2.016-0.601,3.359-1.001c3.057,10.164,4.577,15.181,7.606,25.144
			c2.96-0.9,4.441-1.349,7.401-2.249c0.493,1.626,0.74,2.439,1.233,4.061c-4.295,1.31-6.443,1.964-10.739,3.274
			C3655.563,1579.971,3652.61,1570.229,3649.674,1560.48z"/>
	</g>
	<g>
		<path fill="#FFFFFF" d="M3412.917,1742.521c-3.079-8.962-6.162-17.923-9.241-26.885c1.625-0.514,2.437-0.772,4.061-1.286
			c5.161,7.592,7.739,11.377,12.884,18.944c-0.58-9.039-0.867-13.551-1.429-22.571c1.614-0.511,2.421-0.767,4.035-1.278
			c3.047,8.922,6.097,17.842,9.145,26.763c-1.087,0.353-1.631,0.529-2.718,0.882c-3.058-9.045-4.589-13.562-7.648-22.605
			c0.635,9.814,0.959,14.722,1.613,24.563c-0.768,0.249-1.152,0.374-1.921,0.623c-5.546-8.259-8.326-12.389-13.893-20.672
			c3.142,9.054,4.715,13.576,7.856,22.63C3414.563,1741.987,3414.014,1742.165,3412.917,1742.521z"/>
		<path fill="#FFFFFF" d="M3437.562,1734.525c-1.276,0.414-1.915,0.621-3.191,1.036c-0.517-9.721-1.024-19.442-1.517-29.164
			c1.072-0.34,1.609-0.509,2.681-0.849c5.512,8.089,11.026,16.178,16.535,24.27c-1.276,0.414-1.914,0.621-3.19,1.035
			c-1.555-2.297-2.333-3.445-3.889-5.742c-3.154,1.018-4.732,1.527-7.887,2.545
			C3437.287,1730.401,3437.377,1731.775,3437.562,1734.525z M3435.764,1710.952c0.384,5.204,0.578,7.806,0.969,13.016
			c2.518-0.81,3.776-1.215,6.294-2.024C3440.125,1717.551,3438.672,1715.353,3435.764,1710.952z"/>
		<path fill="#FFFFFF" d="M3445.083,1702.524c1.183-0.375,1.774-0.562,2.956-0.936c3.099,9.152,4.65,13.722,7.75,22.871
			c2.603-0.842,3.905-1.263,6.508-2.105c0.505,1.494,0.757,2.241,1.262,3.735c-3.777,1.226-5.666,1.839-9.444,3.064
			C3451.105,1720.277,3448.093,1711.401,3445.083,1702.524z"/>
		<path fill="#FFFFFF" d="M3456.558,1698.89c1.182-0.375,1.773-0.562,2.955-0.936c3.078,9.129,4.619,13.686,7.698,22.811
			c2.603-0.842,3.904-1.263,6.507-2.104c0.501,1.49,0.752,2.235,1.254,3.725c-3.776,1.225-5.664,1.838-9.441,3.064
			C3462.54,1716.596,3459.548,1707.743,3456.558,1698.89z"/>
		<path fill="#FFFFFF" d="M3478.485,1721.246c-1.275,0.414-1.913,0.621-3.188,1.035c-0.448-9.636-0.884-19.274-1.306-28.911
			c1.072-0.339,1.608-0.509,2.679-0.849c5.437,8.007,10.876,16.013,16.308,24.022c-1.275,0.414-1.912,0.62-3.187,1.034
			c-1.533-2.273-2.301-3.41-3.836-5.684c-3.151,1.017-4.727,1.525-7.879,2.542
			C3478.239,1717.158,3478.321,1718.52,3478.485,1721.246z M3476.86,1697.878c0.346,5.159,0.521,7.738,0.873,12.902
			c2.515-0.809,3.773-1.214,6.288-2.022C3481.159,1704.41,3479.727,1702.235,3476.86,1697.878z"/>
		<path fill="#FFFFFF" d="M3517.229,1699.842c0.435,5.154-1.753,9.951-5.934,11.309c-5.55,1.802-11.707-3.104-14.197-10.578
			c-2.407-7.225-0.597-14.905,5.122-16.693c4.97-1.554,9.589,2.489,11.683,5.818c-1.249,0.399-1.874,0.598-3.123,0.997
			c-1.163-1.511-4.12-4.121-7.36-3.111c-3.912,1.219-5.152,6.711-3.377,12.046c1.823,5.477,6.116,9.092,10.001,7.835
			c3.562-1.152,4.012-5.54,4.094-6.626C3515.375,1700.439,3515.992,1700.24,3517.229,1699.842z"/>
		<path fill="#FFFFFF" d="M3516.753,1679.826c2.157,6.546,3.236,9.815,5.394,16.356c0.537,1.628,1.004,3.044,2.179,4.349
			c0.957,1.062,2.257,1.581,3.527,1.17c1.27-0.411,1.995-1.589,2.126-2.917c0.165-1.675-0.267-3.159-0.825-4.855
			c-2.148-6.531-3.222-9.794-5.369-16.33c1.171-0.371,1.757-0.556,2.928-0.927c2.143,6.531,3.215,9.793,5.359,16.319
			c1.162,3.453,1.558,6.263,0.642,8.663c-0.655,1.716-1.808,3.13-3.624,3.719c-1.319,0.428-3.396,0.44-5.201-0.821
			c-2.479-1.732-3.656-4.228-4.684-7.424c-2.162-6.546-3.243-9.817-5.404-16.367
			C3514.981,1680.387,3515.573,1680.2,3516.753,1679.826z"/>
		<path fill="#FFFFFF" d="M3530.144,1675.585c2.092-0.662,3.138-0.994,5.229-1.656c2.902-0.919,4.597-0.805,5.873-0.189
			c1.946,0.939,3.793,3.341,4.745,6.262c0.597,1.83,0.805,3.721,0.569,5.297c-0.322,2.156-1.328,3.188-2.635,3.997
			c3.001,3.316,4.499,4.972,7.493,8.283c-1.244,0.404-1.866,0.605-3.109,1.009c-3.556-4.052-5.337-6.078-8.903-10.137
			c0.26-0.083,0.389-0.125,0.649-0.208c1.272-0.408,2.808-0.981,3.323-2.312c0.509-1.315,0.433-2.978-0.118-4.668
			c-0.575-1.761-1.749-3.325-3.011-3.901c-1.006-0.459-2.101-0.265-3.426,0.156c-1.01,0.321-1.515,0.481-2.525,0.802
			c2.938,8.975,4.407,13.455,7.345,22.431c-1.174,0.381-1.761,0.572-2.935,0.953
			C3535.281,1691.252,3533.569,1686.038,3530.144,1675.585z"/>
		<path fill="#FFFFFF" d="M3545.382,1670.759c2.092-0.662,3.137-0.994,5.229-1.656c2.901-0.919,4.593-0.806,5.866-0.194
			c1.941,0.934,3.779,3.327,4.721,6.237c0.59,1.823,0.793,3.708,0.553,5.279c-0.328,2.15-1.337,3.179-2.644,3.987
			c2.988,3.303,4.479,4.952,7.459,8.25c-1.244,0.404-1.865,0.605-3.109,1.009c-3.54-4.035-5.312-6.054-8.862-10.097
			c0.259-0.083,0.389-0.125,0.648-0.208c1.271-0.408,2.807-0.98,3.326-2.307c0.512-1.312,0.442-2.969-0.104-4.653
			c-0.569-1.755-1.737-3.312-2.996-3.886c-1.004-0.457-2.097-0.263-3.422,0.159c-1.01,0.321-1.515,0.481-2.524,0.802
			c2.908,8.943,4.362,13.408,7.27,22.353c-1.174,0.381-1.761,0.572-2.935,0.953
			C3550.468,1686.371,3548.772,1681.176,3545.382,1670.759z"/>
		<path fill="#FFFFFF" d="M3560.718,1665.901c1.181-0.374,1.771-0.561,2.952-0.935c3.349,10.374,5.023,15.547,8.371,25.919
			c-1.174,0.381-1.761,0.571-2.935,0.952C3565.75,1681.459,3564.073,1676.282,3560.718,1665.901z"/>
		<path fill="#FFFFFF" d="M3590.644,1676.191c0.36,5.073-1.885,9.808-6.061,11.165c-5.545,1.8-11.598-3.003-13.969-10.352
			c-2.292-7.104-0.383-14.677,5.33-16.464c4.966-1.553,9.502,2.408,11.537,5.677c-1.248,0.398-1.872,0.598-3.12,0.996
			c-1.135-1.483-4.038-4.04-7.276-3.031c-3.909,1.219-5.219,6.633-3.529,11.878c1.735,5.385,5.953,8.926,9.835,7.67
			c3.558-1.151,4.068-5.474,4.165-6.544C3588.791,1676.788,3589.408,1676.589,3590.644,1676.191z"/>
		<path fill="#FFFFFF" d="M3590.457,1656.482c2.053,6.437,3.079,9.651,5.131,16.082c0.511,1.601,0.955,2.993,2.105,4.273
			c0.936,1.041,2.222,1.546,3.491,1.136c1.269-0.411,2.007-1.575,2.156-2.883c0.189-1.65-0.22-3.109-0.751-4.777
			c-2.043-6.421-3.064-9.629-5.107-16.056c1.17-0.371,1.755-0.556,2.926-0.927c2.039,6.422,3.058,9.628,5.096,16.045
			c1.105,3.395,1.46,6.159,0.514,8.528c-0.676,1.692-1.842,3.091-3.657,3.68c-1.318,0.428-3.386,0.448-5.161-0.784
			c-2.44-1.694-3.575-4.147-4.552-7.289c-2.057-6.436-3.085-9.652-5.142-16.093
			C3588.686,1657.043,3589.277,1656.856,3590.457,1656.482z"/>
		<path fill="#FFFFFF" d="M3604.01,1652.189c1.18-0.374,1.77-0.561,2.95-0.934c2.794,8.827,4.19,13.231,6.984,22.053
			c2.598-0.84,3.896-1.26,6.494-2.101c0.455,1.44,0.682,2.161,1.137,3.602c-3.769,1.223-5.653,1.835-9.422,3.058
			C3608.896,1667.591,3607.268,1662.467,3604.01,1652.189z"/>
		<path fill="#FFFFFF" d="M3625.082,1673.671c-1.273,0.413-1.909,0.62-3.182,1.033c-0.177-9.342-0.339-18.684-0.488-28.026
			c1.07-0.339,1.605-0.508,2.675-0.847c6.203,9.283,9.294,13.9,15.464,23.145c-1.273,0.413-1.909,0.62-3.182,1.033
			c-1.454-2.191-2.181-3.286-3.636-5.477c-3.146,1.015-4.719,1.523-7.866,2.538
			C3624.951,1669.709,3624.995,1671.029,3625.082,1673.671z M3624.125,1651.025c0.198,5,0.299,7.499,0.503,12.504
			c2.511-0.808,3.766-1.212,6.277-2.019C3628.196,1657.319,3626.841,1655.223,3624.125,1651.025z"/>
		<path fill="#FFFFFF" d="M3633.437,1642.868c2.09-0.662,3.135-0.993,5.224-1.655c2.899-0.918,4.579-0.817,5.833-0.223
			c1.914,0.906,3.7,3.244,4.587,6.095c0.556,1.786,0.725,3.635,0.46,5.178c-0.363,2.112-1.383,3.128-2.695,3.928
			c2.913,3.224,4.368,4.834,7.274,8.054c-1.243,0.403-1.865,0.605-3.108,1.009c-3.45-3.941-5.177-5.911-8.637-9.859
			c0.259-0.083,0.389-0.125,0.648-0.208c1.271-0.408,2.807-0.978,3.344-2.284c0.532-1.29,0.49-2.916-0.024-4.566
			c-0.536-1.719-1.67-3.241-2.912-3.797c-0.99-0.443-2.08-0.246-3.404,0.175c-1.009,0.321-1.513,0.481-2.522,0.802
			c2.738,8.762,4.106,13.135,6.844,21.9c-1.173,0.381-1.76,0.571-2.934,0.952C3638.225,1658.164,3636.63,1653.075,3633.437,1642.868
			z"/>
	</g>
	<g>
		<path fill="#FFFFFF" d="M3348.451,1852.117c-1.431,0.493-2.146,0.739-3.578,1.233c-0.66-11.371-1.342-22.74-2.044-34.108
			c1.199-0.405,1.798-0.607,2.996-1.011c6.319,9.412,12.611,18.84,18.876,28.288c-1.428,0.492-2.143,0.738-3.572,1.231
			c-1.766-2.689-2.651-4.032-4.423-6.716c-3.53,1.211-5.296,1.817-8.83,3.029C3348.11,1847.28,3348.225,1848.891,3348.451,1852.117z
			 M3346.168,1824.532c0.509,6.072,0.76,9.114,1.256,15.212c2.818-0.964,4.227-1.446,7.044-2.41
			C3351.158,1832.207,3349.498,1829.648,3346.168,1824.532z"/>
		<path fill="#FFFFFF" d="M3356.49,1814.63c1.321-0.446,1.981-0.669,3.301-1.114c3.039,8.888,6.05,17.786,9.027,26.695
			c2.912-1.001,4.368-1.501,7.278-2.501c0.584,1.75,0.876,2.626,1.459,4.379c-4.224,1.456-6.338,2.184-10.566,3.641
			C3363.519,1835.353,3360.019,1824.988,3356.49,1814.63z"/>
		<path fill="#FFFFFF" d="M3369.216,1810.335c1.319-0.445,1.979-0.668,3.298-1.113c3.509,10.326,6.993,20.66,10.448,31.005
			c-1.315,0.453-1.972,0.679-3.287,1.133C3376.216,1831.008,3372.729,1820.667,3369.216,1810.335z"/>
		<path fill="#FFFFFF" d="M3398.248,1826.688c-3.169-9.42-4.765-14.109-7.972-23.463c1.273-0.43,1.909-0.645,3.182-1.074
			c3.483,10.286,6.942,20.58,10.372,30.884c-1.201,0.414-1.802,0.621-3.003,1.035c-7.443-7.986-11.183-11.964-18.695-19.914
			c3.214,9.409,4.813,14.126,7.984,23.605c-1.269,0.437-1.904,0.656-3.173,1.094c-3.451-10.337-6.929-20.663-10.434-30.982
			c1.24-0.419,1.861-0.628,3.101-1.047C3387.097,1814.76,3390.826,1818.727,3398.248,1826.688z"/>
		<path fill="#FFFFFF" d="M3397.448,1800.804c4.62-1.56,6.929-2.339,11.546-3.898c0.584,1.723,0.875,2.585,1.458,4.309
			c-3.299,1.117-4.949,1.676-8.249,2.794c1.181,3.489,1.77,5.235,2.946,8.732c3.252-1.108,4.878-1.662,8.128-2.77
			c0.575,1.713,0.862,2.571,1.436,4.286c-3.248,1.11-4.873,1.665-8.123,2.776c1.224,3.653,1.834,5.482,3.051,9.147
			c3.291-1.131,4.936-1.697,8.225-2.827c0.576,1.738,0.864,2.608,1.439,4.349c-4.598,1.585-6.898,2.377-11.5,3.963
			C3404.38,1821.369,3400.927,1811.082,3397.448,1800.804z"/>
		<path fill="#FFFFFF" d="M3424.524,1825.903c-1.421,0.49-2.132,0.735-3.553,1.224c-0.599-11.216-1.21-22.432-1.832-33.647
			c1.193-0.403,1.789-0.604,2.981-1.006c6.211,9.27,12.395,18.557,18.548,27.865c-1.419,0.489-2.129,0.734-3.549,1.223
			c-1.738-2.654-2.608-3.979-4.351-6.625c-3.509,1.204-5.263,1.806-8.774,3.011
			C3424.208,1821.125,3424.313,1822.716,3424.524,1825.903z M3422.416,1798.685c0.464,5.985,0.694,8.984,1.152,15.002
			c2.801-0.959,4.201-1.438,7.001-2.396C3427.315,1806.239,3425.685,1803.718,3422.416,1798.685z"/>
		<path fill="#FFFFFF" d="M3458.048,1803.958c0.568,6.026-1.809,11.663-6.463,13.268c-6.177,2.13-13.122-3.607-16.023-12.31
			c-2.804-8.414-0.92-17.337,5.438-19.457c5.525-1.842,10.762,2.817,13.161,6.679c-1.389,0.472-2.083,0.708-3.472,1.18
			c-1.326-1.752-4.678-4.766-8.28-3.569c-4.35,1.445-5.639,7.834-3.57,14.047c2.124,6.379,6.973,10.598,11.296,9.111
			c3.963-1.363,4.399-6.502,4.474-7.772C3455.986,1804.665,3456.673,1804.429,3458.048,1803.958z"/>
		<path fill="#FFFFFF" d="M3453.908,1781.742c1.313-0.443,1.969-0.665,3.281-1.108c3.401,10.165,6.756,20.345,10.098,30.53
			c-1.306,0.45-1.959,0.675-3.266,1.126C3460.675,1802.099,3457.314,1791.913,3453.908,1781.742z"/>
		<path fill="#FFFFFF" d="M3465.357,1794.975c-3.175-9.606-0.324-17.627,5.457-19.578c6.142-2.073,13.099,3.332,15.971,12.08
			c2.872,8.747,0.55,17.422-5.588,19.538c-6.166,2.126-13.046-3.589-15.826-11.999
			C3465.366,1794.999,3465.364,1794.991,3465.357,1794.975z M3468.548,1793.702c2.095,6.345,6.958,10.481,11.33,8.977
			c4.455-1.532,5.597-8.129,3.652-14.046c-1.958-5.958-6.773-10.513-11.271-8.99c-4.472,1.514-5.752,7.878-3.724,14.018
			C3468.54,1793.678,3468.542,1793.686,3468.548,1793.702z M3470.948,1764.955c0.798,1.092,1.198,1.638,1.995,2.73
			c-2.029,2.894-3.042,4.343-5.068,7.246c-0.705-0.927-1.058-1.39-1.764-2.317
			C3468.045,1769.546,3469.012,1768.014,3470.948,1764.955z"/>
		<path fill="#FFFFFF" d="M3506.093,1789.684c-3.027-9.25-4.545-13.845-7.589-22.999c1.266-0.427,1.899-0.641,3.165-1.069
			c3.324,10.087,6.618,20.184,9.876,30.293c-1.193,0.411-1.789,0.617-2.983,1.028c-7.278-7.837-10.931-11.729-18.264-19.495
			c3.062,9.216,4.588,13.843,7.629,23.161c-1.26,0.434-1.89,0.651-3.15,1.086c-3.286-10.139-6.609-20.266-9.962-30.382
			c1.233-0.416,1.85-0.625,3.083-1.041C3495.201,1778.007,3498.842,1781.884,3506.093,1789.684z"/>
		<path fill="#FFFFFF" d="M3522.176,1780.252c-5.091-6.928-7.643-10.375-12.763-17.251c1.421-0.48,2.131-0.72,3.552-1.199
			c3.757,5.328,5.632,7.998,9.374,13.357c-0.134-6.59-0.2-9.871-0.329-16.411c1.42-0.48,2.13-0.719,3.551-1.199
			c-0.054,8.591-0.077,12.905-0.122,21.586c1.39,4.302,2.084,6.459,3.471,10.788c-1.302,0.449-1.954,0.674-3.257,1.123
			C3524.263,1786.714,3523.568,1784.556,3522.176,1780.252z"/>
		<path fill="#FFFFFF" d="M3545.056,1774.408c1.672,4.453,4.111,4.619,5.187,4.249c1.821-0.627,2.717-3.295,1.858-5.986
			c-1.068-3.344-3.312-3.537-6.333-3.978c-1.801-0.263-5.972-0.783-7.805-6.4c-1.82-5.575,0.449-9.713,3.666-10.798
			c2.634-0.889,6.613,0.084,8.841,6.146c-1.285,0.436-1.927,0.654-3.211,1.091c-0.743-1.543-2.078-3.96-4.433-3.162
			c-1.662,0.563-2.566,2.707-1.741,5.26c0.943,2.916,2.839,3.039,6.567,3.794c2.981,0.604,6.042,1.805,7.602,6.695
			c1.56,4.89,0.678,9.923-3.679,11.426c-4.054,1.398-7.822-1.409-9.75-7.228C3543.117,1775.073,3543.763,1774.852,3545.056,1774.408
			z"/>
		<path fill="#FFFFFF" d="M3551.21,1748.886c1.308-0.442,1.963-0.663,3.271-1.105c3.226,9.996,6.426,20.001,9.594,30.016
			c-1.301,0.449-1.952,0.673-3.253,1.122C3557.648,1768.898,3554.444,1758.888,3551.21,1748.886z"/>
		<path fill="#FFFFFF" d="M3579.393,1764.525c-2.912-9.14-4.368-13.674-7.283-22.697c1.264-0.427,1.896-0.64,3.16-1.067
			c3.187,9.961,6.349,19.929,9.481,29.908c-1.191,0.411-1.786,0.616-2.977,1.026c-7.16-7.737-10.748-11.573-17.948-19.216
			c2.937,9.09,4.405,13.659,7.336,22.875c-1.257,0.433-1.885,0.65-3.143,1.084c-3.161-10.008-6.354-20.006-9.573-29.995
			c1.231-0.416,1.846-0.624,3.077-1.039C3568.691,1753.016,3572.264,1756.832,3579.393,1764.525z"/>
		<path fill="#FFFFFF" d="M3579.231,1739.422c4.589-1.55,6.883-2.325,11.471-3.874c0.528,1.662,0.792,2.494,1.32,4.16
			c-3.278,1.111-4.917,1.666-8.195,2.777c1.072,3.369,1.608,5.057,2.679,8.442c3.229-1.101,4.843-1.651,8.071-2.752
			c0.523,1.658,0.785,2.488,1.308,4.151c-3.226,1.103-4.839,1.655-8.065,2.758c1.118,3.539,1.676,5.313,2.794,8.873
			c3.265-1.123,4.898-1.684,8.163-2.807c0.528,1.688,0.792,2.534,1.321,4.227c-4.563,1.574-6.845,2.36-11.409,3.934
			C3585.565,1759.338,3582.412,1749.376,3579.231,1739.422z"/>
		<path fill="#FFFFFF" d="M3594,1734.434c2.316-0.782,3.474-1.174,5.791-1.956c3.214-1.086,5.088-0.98,6.498-0.298
			c2.148,1.039,4.184,3.748,5.227,7.071c0.653,2.082,0.877,4.244,0.612,6.052c-0.364,2.474-1.482,3.668-2.93,4.611
			c3.309,3.776,4.961,5.67,8.263,9.474c-1.378,0.475-2.067,0.713-3.445,1.188c-3.922-4.655-5.885-6.97-9.816-11.584
			c0.287-0.098,0.431-0.147,0.718-0.245c1.409-0.482,3.11-1.156,3.685-2.685c0.568-1.513,0.49-3.414-0.114-5.337
			c-0.629-2.004-1.922-3.771-3.317-4.411c-1.111-0.509-2.323-0.274-3.791,0.223c-1.118,0.379-1.677,0.568-2.796,0.947
			c3.217,10.175,4.826,15.293,8.046,25.638c-1.301,0.449-1.951,0.673-3.252,1.121C3600.28,1754.299,3597.153,1744.363,3594,1734.434
			z"/>
		<path fill="#FFFFFF" d="M3629.634,1731.63c-0.861-0.898-1.797-1.642-2.751-2.15c-1.568-0.833-3.252-1.099-4.941-0.527
			c-3.876,1.313-6.176,6.756-4.02,13.659c2.231,7.144,7.175,10.109,11.008,8.79c1.875-0.645,3.234-2.069,4.03-3.842
			c0.803-1.791,1.089-3.981,0.759-6.132c-3.523,1.206-5.285,1.809-8.808,3.016c-0.48-1.543-0.72-2.314-1.199-3.853
			c5.04-1.721,7.559-2.581,12.599-4.303c0.583,1.879,1.161,4.526,1.148,6.968c-0.035,6.536-3.344,11.015-7.202,12.346
			c-6.034,2.082-12.843-3.172-15.568-11.886c-2.775-8.875,0.055-16.905,6.013-18.916c4.405-1.487,9.558,0.977,12.612,5.578
			C3631.842,1730.88,3631.105,1731.13,3629.634,1731.63z"/>
		<path fill="#FFFFFF" d="M3634.646,1720.705c1.308-0.442,1.962-0.663,3.269-1.104c3.069,9.853,6.118,19.712,9.143,29.579
			c-1.301,0.449-1.951,0.673-3.252,1.122C3640.777,1740.429,3637.721,1730.564,3634.646,1720.705z"/>
		<path fill="#FFFFFF" d="M3652.792,1747.203c-1.411,0.487-2.117,0.73-3.528,1.217c-0.249-10.804-0.485-21.608-0.708-32.413
			c1.186-0.401,1.779-0.601,2.965-1.002c5.815,8.86,11.59,17.746,17.316,26.664c-1.412,0.487-2.118,0.73-3.529,1.217
			c-1.631-2.555-2.447-3.828-4.078-6.368c-3.489,1.198-5.233,1.797-8.721,2.995
			C3652.621,1742.58,3652.677,1744.118,3652.792,1747.203z M3651.592,1720.967c0.247,5.747,0.374,8.633,0.632,14.435
			c2.784-0.953,4.176-1.43,6.959-2.384C3656.146,1728.176,3654.628,1725.767,3651.592,1720.967z"/>
		<path fill="#FFFFFF" d="M3670.174,1708.704c2.539-0.858,3.809-1.287,6.348-2.145c2.744-0.927,6.339-1.392,9.866,1.864
			c2.288,2.113,4.066,5.222,5.231,9.063c2.595,8.553,1.241,15.895-5.931,18.369c-2.615,0.902-3.922,1.353-6.537,2.255
			C3676.178,1728.302,3673.185,1718.5,3670.174,1708.704z M3681.142,1732.816c1.38-0.475,2.07-0.712,3.45-1.187
			c4.802-1.652,5.67-6.856,3.816-12.958c-0.855-2.814-2.2-5.36-3.934-6.904c-1.583-1.409-3.652-2.151-6.284-1.259
			c-1.396,0.473-2.094,0.71-3.49,1.183C3677.269,1720.076,3678.556,1724.295,3681.142,1732.816z"/>
		<path fill="#FFFFFF" d="M3690.246,1701.922c4.592-1.551,6.888-2.327,11.482-3.879c0.494,1.625,0.74,2.439,1.234,4.069
			c-3.282,1.112-4.922,1.668-8.203,2.781c1.002,3.296,1.504,4.949,2.509,8.266c3.232-1.102,4.848-1.654,8.081-2.756
			c0.491,1.625,0.737,2.438,1.228,4.068c-3.231,1.105-4.846,1.657-8.075,2.762c1.05,3.47,1.575,5.211,2.628,8.707
			c3.27-1.125,4.905-1.688,8.175-2.813c0.498,1.658,0.747,2.488,1.246,4.153c-4.572,1.577-6.857,2.366-11.427,3.942
			C3696.184,1721.449,3693.222,1711.683,3690.246,1701.922z"/>
		<path fill="#FFFFFF" d="M3713.406,1694.097c1.31-0.443,1.965-0.664,3.275-1.106c2.993,9.908,4.495,14.898,7.519,25.01
			c2.886-0.993,4.329-1.489,7.215-2.483c0.493,1.651,0.74,2.479,1.234,4.137c-4.189,1.445-6.283,2.168-10.471,3.613
			C3719.27,1713.539,3716.345,1703.816,3713.406,1694.097z"/>
		<path fill="#FFFFFF" d="M3728.153,1705.223c-2.747-9.164,0.409-16.846,6.184-18.796c6.137-2.073,12.754,2.962,15.239,11.304
			c2.485,8.341-0.12,16.74-6.258,18.859c-6.165,2.128-12.748-3.303-15.153-11.327
			C3728.159,1705.246,3728.156,1705.238,3728.153,1705.223z M3731.344,1703.959c1.812,6.052,6.457,9.974,10.827,8.47
			c4.454-1.533,5.828-7.899,4.145-13.542c-1.694-5.682-6.245-9.954-10.74-8.431c-4.467,1.514-5.997,7.607-4.243,13.463
			C3731.337,1703.935,3731.341,1703.943,3731.344,1703.959z"/>
		<path fill="#FFFFFF" d="M3756.575,1701.863c1.518,4.29,3.937,4.425,5.017,4.053c1.827-0.629,2.798-3.227,2.029-5.822
			c-0.955-3.224-3.178-3.381-6.156-3.768c-1.78-0.231-5.899-0.685-7.523-6.076c-1.612-5.351,0.782-9.36,4.005-10.448
			c2.64-0.892,6.543-0.016,8.547,5.797c-1.288,0.438-1.932,0.657-3.22,1.094c-0.685-1.478-1.923-3.787-4.284-2.987
			c-1.667,0.565-2.636,2.641-1.906,5.091c0.835,2.799,2.703,2.892,6.382,3.574c2.932,0.544,5.932,1.662,7.328,6.374
			c1.396,4.713,0.37,9.612-4.003,11.121c-4.068,1.404-7.729-1.283-9.457-6.892C3754.632,1702.53,3755.28,1702.308,3756.575,1701.863
			z"/>
		<path fill="#FFFFFF" d="M3395.804,1881.805c0.545,6.23-1.871,12.048-6.541,13.691c-6.199,2.181-13.102-3.76-15.963-12.745
			c-2.766-8.686-0.868-17.89,5.49-20.076c5.525-1.899,10.763,2.914,13.157,6.908c-1.389,0.485-2.084,0.728-3.474,1.214
			c-1.323-1.812-4.673-4.926-8.276-3.693c-4.353,1.489-5.654,8.08-3.611,14.497c2.097,6.587,6.92,10.955,11.256,9.431
			c3.976-1.397,4.438-6.705,4.518-8.018C3393.739,1882.53,3394.427,1882.288,3395.804,1881.805z"/>
		<path fill="#FFFFFF" d="M3395.896,1875.074c-3.164-9.947-0.331-18.236,5.445-20.246c6.138-2.136,13.119,3.471,16,12.546
			c2.881,9.073,0.534,18.056-5.62,20.221c-6.182,2.175-13.042-3.768-15.812-12.478
			C3395.904,1875.1,3395.902,1875.092,3395.896,1875.074z M3399.091,1873.766c2.09,6.572,6.943,10.872,11.323,9.332
			c4.464-1.569,5.62-8.4,3.671-14.537c-1.963-6.179-6.791-10.905-11.289-9.337c-4.47,1.558-5.742,8.14-3.719,14.499
			C3399.083,1873.741,3399.085,1873.749,3399.091,1873.766z"/>
		<path fill="#FFFFFF" d="M3425.33,1882.14c-3.291-10.521-6.625-21.026-10.002-31.521c1.797-0.626,2.696-0.938,4.492-1.564
			c5.685,8.793,8.51,13.211,14.124,22.116c-0.558-10.68-0.853-15.982-1.461-26.524c1.783-0.621,2.675-0.931,4.458-1.552
			c3.359,10.474,6.677,20.958,9.954,31.458c-1.204,0.424-1.806,0.635-3.01,1.059c-3.284-10.722-4.947-16.036-8.301-26.598
			c0.567,9.649,1.107,19.299,1.614,28.951c-0.851,0.3-1.277,0.449-2.129,0.749c-5.01-8.107-10.074-16.18-15.188-24.222
			c3.435,10.558,5.137,15.868,8.495,26.576C3427.156,1881.498,3426.548,1881.712,3425.33,1882.14z"/>
		<path fill="#FFFFFF" d="M3446.625,1839.724c3.181-1.107,4.745-0.925,6.429,0.102c1.951,1.19,3.765,3.887,4.72,6.889
			c0.955,3.003,1.099,6.462,0.315,8.459c-0.836,2.131-2.024,3.307-4.84,4.295c-1.149,0.403-1.723,0.604-2.872,1.007
			c1.451,4.616,2.174,6.931,3.612,11.58c-1.302,0.458-1.954,0.688-3.257,1.146c-3.274-10.496-6.589-20.976-9.944-31.447
			C3443.124,1840.943,3444.291,1840.537,3446.625,1839.724z M3448.982,1856.054c1.127-0.395,1.691-0.592,2.818-0.987
			c1.298-0.455,2.213-1.057,2.84-2.173c0.562-1,0.712-2.887,0.039-5.002s-1.838-3.49-2.921-3.958
			c-1.175-0.507-2.231-0.347-3.586,0.125c-1.084,0.378-1.626,0.567-2.71,0.945C3446.875,1849.411,3447.58,1851.62,3448.982,1856.054
			z"/>
		<path fill="#FFFFFF" d="M3461.06,1852.247c-3.119-9.887-0.273-18.107,5.472-20.107c6.104-2.125,13.012,3.429,15.846,12.45
			c2.834,9.02,0.489,17.969-5.625,20.121c-6.141,2.161-12.949-3.765-15.68-12.422
			C3461.068,1852.273,3461.064,1852.264,3461.06,1852.247z M3464.235,1850.947c2.06,6.532,6.873,10.816,11.226,9.286
			c4.435-1.559,5.596-8.361,3.679-14.461c-1.931-6.142-6.707-10.83-11.18-9.27c-4.445,1.55-5.731,8.082-3.738,14.403
			C3464.227,1850.921,3464.229,1850.93,3464.235,1850.947z"/>
		<path fill="#FFFFFF" d="M3501.56,1846.947c-2.99-9.571-4.495-14.313-7.52-23.732c1.257-0.438,1.886-0.657,3.143-1.094
			c3.297,10.42,6.558,20.85,9.783,31.293c-1.187,0.418-1.781,0.627-2.968,1.045c-7.215-8.152-10.838-12.183-18.114-20.191
			c3.031,9.49,4.538,14.269,7.529,23.916c-1.254,0.441-1.881,0.662-3.136,1.104c-3.241-10.458-6.519-20.902-9.835-31.337
			c1.225-0.427,1.838-0.64,3.063-1.066C3490.757,1834.847,3494.367,1838.852,3501.56,1846.947z"/>
		<path fill="#FFFFFF" d="M3501.125,1820.748c4.564-1.589,6.845-2.384,11.407-3.972c0.551,1.738,0.826,2.608,1.375,4.35
			c-3.26,1.137-4.89,1.706-8.15,2.844c1.114,3.522,1.669,5.288,2.778,8.831c3.214-1.125,4.82-1.688,8.032-2.812
			c0.543,1.737,0.814,2.607,1.355,4.349c-3.211,1.126-4.816,1.689-8.029,2.815c1.155,3.707,1.73,5.566,2.88,9.298
			c3.253-1.144,4.879-1.716,8.131-2.859c0.544,1.771,0.816,2.659,1.36,4.437c-4.546,1.6-6.82,2.401-11.369,4.002
			C3507.675,1841.591,3504.417,1831.165,3501.125,1820.748z"/>
		<path fill="#FFFFFF" d="M3536.919,1834.524c-2.958-9.549-4.444-14.275-7.426-23.655c1.255-0.437,1.883-0.656,3.138-1.093
			c3.255,10.391,6.477,20.79,9.665,31.201c-1.185,0.417-1.777,0.626-2.962,1.043c-7.179-8.139-10.78-12.158-18.009-20.134
			c2.992,9.456,4.482,14.221,7.446,23.852c-1.251,0.441-1.877,0.661-3.129,1.101c-3.206-10.426-6.447-20.839-9.722-31.244
			c1.223-0.426,1.834-0.639,3.057-1.065C3526.179,1822.457,3529.768,1826.448,3536.919,1834.524z"/>
		<path fill="#FFFFFF" d="M3540.872,1811.717c-1.87,0.652-2.805,0.979-4.675,1.631c-0.545-1.739-0.817-2.606-1.363-4.339
			c5.041-1.756,7.561-2.634,12.601-4.389c0.543,1.73,0.814,2.597,1.356,4.333c-1.869,0.652-2.804,0.979-4.674,1.631
			c2.794,8.935,5.552,17.882,8.271,26.84c-1.294,0.455-1.941,0.683-3.235,1.139
			C3546.429,1829.603,3543.668,1820.654,3540.872,1811.717z"/>
		<path fill="#FFFFFF" d="M3549.607,1803.863c4.555-1.586,6.832-2.38,11.385-3.965c0.539,1.728,0.809,2.593,1.348,4.327
			c-3.254,1.135-4.88,1.703-8.135,2.839c1.092,3.504,1.637,5.261,2.727,8.789c3.207-1.123,4.81-1.685,8.016-2.807
			c0.533,1.73,0.799,2.596,1.332,4.332c-3.204,1.124-4.807,1.686-8.012,2.81c1.135,3.693,1.702,5.546,2.835,9.268
			c3.246-1.142,4.869-1.712,8.114-2.854c0.536,1.767,0.804,2.652,1.34,4.426c-4.537,1.597-6.806,2.396-11.344,3.994
			C3556.042,1824.625,3552.841,1814.24,3549.607,1803.863z"/>
		<path fill="#FFFFFF" d="M3573.3,1819.773c1.649,4.615,4.069,4.807,5.137,4.431c1.808-0.636,2.703-3.396,1.854-6.186
			c-1.054-3.467-3.281-3.678-6.275-4.148c-1.783-0.28-5.92-0.84-7.727-6.632c-1.793-5.748,0.46-9.991,3.65-11.101
			c2.611-0.909,6.553,0.092,8.755,6.349c-1.274,0.445-1.911,0.668-3.185,1.113c-0.735-1.593-2.054-4.084-4.39-3.27
			c-1.649,0.575-2.548,2.779-1.734,5.41c0.93,3.007,2.815,3.142,6.505,3.937c2.953,0.636,5.99,1.89,7.53,6.96
			c1.541,5.072,0.656,10.289-3.671,11.813c-4.026,1.418-7.759-1.524-9.658-7.551
			C3571.375,1820.449,3572.016,1820.223,3573.3,1819.773z"/>
		<path fill="#FFFFFF" d="M3587.545,1790.648c2.517-0.877,3.776-1.315,6.293-2.192c2.721-0.948,6.294-1.408,9.88,2.061
			c2.323,2.247,4.156,5.543,5.389,9.609c2.746,9.052,1.514,16.794-5.605,19.301c-2.596,0.914-3.894,1.371-6.489,2.285
			C3593.886,1811.348,3590.73,1800.994,3587.545,1790.648z M3598.917,1816.154c1.369-0.482,2.054-0.723,3.423-1.204
			c4.766-1.677,5.544-7.161,3.584-13.616c-0.904-2.977-2.291-5.672-4.053-7.319c-1.605-1.5-3.684-2.303-6.294-1.392
			c-1.384,0.483-2.076,0.725-3.46,1.208C3594.841,1802.672,3596.199,1807.131,3598.917,1816.154z"/>
		<path fill="#FFFFFF" d="M3607.44,1783.717c4.55-1.585,6.825-2.378,11.375-3.963c0.525,1.716,0.788,2.576,1.313,4.299
			c-3.251,1.135-4.877,1.702-8.128,2.837c1.065,3.482,1.597,5.23,2.662,8.74c3.204-1.122,4.806-1.683,8.009-2.806
			c0.521,1.721,0.781,2.583,1.302,4.312c-3.202,1.123-4.803,1.685-8.005,2.809c1.111,3.676,1.667,5.522,2.778,9.233
			c3.243-1.141,4.864-1.711,8.107-2.852c0.526,1.761,0.79,2.644,1.316,4.413c-4.534,1.597-6.8,2.395-11.334,3.991
			C3613.732,1804.384,3610.614,1794.043,3607.44,1783.717z"/>
		<path fill="#FFFFFF" d="M3630.384,1775.724c1.297-0.452,1.946-0.678,3.243-1.13c3.191,10.479,4.789,15.776,7.992,26.538
			c2.86-1.006,4.29-1.509,7.149-2.516c0.523,1.759,0.784,2.641,1.307,4.408c-4.151,1.462-6.227,2.193-10.378,3.655
			C3636.618,1796.353,3633.527,1786.031,3630.384,1775.724z"/>
		<path fill="#FFFFFF" d="M3653.938,1801.664c-1.402,0.494-2.103,0.741-3.505,1.235c-0.317-11.28-0.625-22.559-0.922-33.839
			c1.176-0.41,1.765-0.615,2.941-1.025c5.856,9.311,11.663,18.647,17.427,28.015c-1.403,0.494-2.104,0.741-3.506,1.235
			c-1.643-2.702-2.464-4.047-4.106-6.724c-3.465,1.218-5.197,1.827-8.661,3.045
			C3653.737,1796.816,3653.803,1798.428,3653.938,1801.664z M3652.563,1774.238c0.286,5.985,0.432,8.998,0.729,15.066
			c2.764-0.97,4.146-1.456,6.91-2.426C3657.146,1781.782,3655.618,1779.256,3652.563,1774.238z"/>
		<path fill="#FFFFFF" d="M3680.127,1792.439c-3.037-10.29-6.084-20.577-9.174-30.851c1.782-0.621,2.672-0.931,4.454-1.552
			c5.352,8.513,8.028,12.817,13.392,21.567c-0.349-10.514-0.514-15.697-0.822-25.947c1.772-0.617,2.658-0.926,4.43-1.544
			c3.065,10.256,6.09,20.524,9.106,30.794c-1.196,0.421-1.794,0.632-2.99,1.053c-3.063-10.593-4.584-15.797-7.612-26.073
			c0.309,9.471,0.635,18.941,0.976,28.411c-0.844,0.297-1.267,0.446-2.111,0.744c-5.79-9.639-8.678-14.369-14.45-23.711
			c3.113,10.271,4.675,15.47,7.817,26.048C3681.936,1791.802,3681.333,1792.015,3680.127,1792.439z"/>
		<path fill="#FFFFFF" d="M3707.219,1782.896c-1.405,0.495-2.107,0.742-3.512,1.237c-0.262-11.234-0.506-22.469-0.732-33.704
			c1.178-0.411,1.767-0.616,2.945-1.026c5.803,9.262,11.56,18.549,17.274,27.866c-1.406,0.495-2.109,0.743-3.515,1.238
			c-1.633-2.693-2.448-4.033-4.078-6.699c-3.472,1.221-5.207,1.831-8.677,3.051
			C3707.04,1778.06,3707.099,1779.667,3707.219,1782.896z M3705.991,1755.572c0.249,5.954,0.377,8.953,0.641,15
			c2.769-0.972,4.153-1.459,6.923-2.431C3710.527,1763.069,3709.013,1760.557,3705.991,1755.572z"/>
		<path fill="#FFFFFF" d="M3716.412,1745.746c1.3-0.453,1.95-0.68,3.25-1.133c3.075,10.37,4.623,15.625,7.747,26.331
			c2.869-1.01,4.304-1.515,7.174-2.525c0.51,1.75,0.765,2.627,1.277,4.387c-4.166,1.468-6.249,2.202-10.413,3.668
			C3722.451,1766.227,3719.449,1755.982,3716.412,1745.746z"/>
		<path fill="#FFFFFF" d="M3729.03,1741.348c1.301-0.453,1.951-0.68,3.252-1.134c3.061,10.354,4.602,15.601,7.717,26.298
			c2.871-1.01,4.307-1.516,7.18-2.527c0.508,1.748,0.763,2.625,1.273,4.384c-4.17,1.469-6.254,2.203-10.422,3.672
			C3735.047,1761.806,3732.054,1751.572,3729.03,1741.348z"/>
		<path fill="#FFFFFF" d="M3752.331,1767.003c-1.409,0.496-2.113,0.744-3.521,1.241c-0.22-11.195-0.417-22.389-0.588-33.584
			c1.181-0.412,1.771-0.617,2.953-1.029c5.77,9.217,11.496,18.457,17.18,27.727c-1.411,0.497-2.116,0.745-3.526,1.242
			c-1.627-2.685-2.439-4.02-4.062-6.676c-3.482,1.225-5.223,1.837-8.703,3.061
			C3752.167,1762.177,3752.22,1763.781,3752.331,1767.003z M3751.215,1739.77c0.22,5.927,0.335,8.914,0.576,14.941
			c2.776-0.975,4.164-1.463,6.941-2.438C3755.718,1747.225,3754.215,1744.726,3751.215,1739.77z"/>
	</g>
</g>
<g>
	
		<linearGradient id="SVGID_4_" gradientUnits="userSpaceOnUse" x1="1707.5645" y1="1001.0227" x2="2312.5913" y2="1001.0227" gradientTransform="matrix(1 0 0 1 965.325 716.37)">
		<stop  offset="0" style="stop-color:#FF3A18"/>
		<stop  offset="0.1672" style="stop-color:#FF571A"/>
		<stop  offset="0.3658" style="stop-color:#FF711C"/>
		<stop  offset="0.5691" style="stop-color:#FF841D"/>
		<stop  offset="0.7777" style="stop-color:#FF8F1E"/>
		<stop  offset="1" style="stop-color:#FF931E"/>
	</linearGradient>
	<path fill="url(#SVGID_4_)" d="M3276.8,1585.782l-401.224-114.491c-69.109,91.356-134.581,185.408-202.686,277.51
		c200.912,73.714,404.115,140.979,605.027,214.693L3276.8,1585.782z"/>
	<g>
		<path fill="#FFFFFF" d="M2922.292,1637.605c6.363-22.406,12.814-44.782,19.445-67.11c5.691,1.673,8.537,2.506,14.234,4.168
			c-2.128,15.118-4.189,30.243-6.202,45.376c6.398-13.876,12.844-27.728,19.351-41.553c5.7,1.652,8.552,2.476,14.256,4.12
			c-6.766,22.526-13.34,45.105-19.828,67.712c-3.426-1.048-5.138-1.573-8.563-2.623c5.009-17.491,10.067-34.966,15.212-52.417
			c-7.992,16.564-15.905,33.164-23.772,49.787c-2.81-0.865-4.215-1.297-7.025-2.164c2.105-18.266,4.251-36.526,6.48-54.777
			c-5.086,17.357-10.085,34.738-15.036,52.134C2927.424,1639.198,2925.712,1638.668,2922.292,1637.605z"/>
		<path fill="#FFFFFF" d="M2979.715,1618.257c3.167-11.45,12.055-34.593,28.006-30.064c16.016,4.548,10.174,29.473,6.931,40.457
			c-3.235,10.957-11.883,35.053-27.753,30.191c-15.795-4.839-10.698-29.186-7.21-40.492
			C2979.698,1618.312,2979.704,1618.294,2979.715,1618.257z M2989.684,1621.402c-4.768,16.255-4.062,23.053,0.935,24.556
			c4.996,1.503,9.172-3.852,14.003-20.255c4.831-16.403,4.236-23.185-0.793-24.637c-5.029-1.453-9.322,3.897-14.118,20.245
			C2989.699,1621.347,2989.695,1621.365,2989.684,1621.402z"/>
		<path fill="#FFFFFF" d="M3031.102,1596.265c5.505,1.568,8.258,2.352,13.764,3.918c7.044,2.005,10.466,7.226,11.696,14.336
			c1.224,7.08,0.127,16.276-2.619,25.655c-3.463,11.828-13.05,33.372-29.188,28.755c-5.579-1.691-8.368-2.536-13.947-4.228
			C3017.449,1641.852,3024.178,1619.031,3031.102,1596.265z M3024.32,1654.66c1.692,0.506,2.539,0.76,4.231,1.266
			c7.885,2.359,13.201-11.44,15.36-18.693c1.937-6.509,2.834-12.117,2.486-16.247c-0.338-4.017-1.808-6.776-5.484-7.833
			c-1.574-0.453-2.361-0.679-3.935-1.132C3032.708,1626.219,3028.495,1640.433,3024.32,1654.66z"/>
		<path fill="#FFFFFF" d="M3071.103,1607.65c9.305,2.65,13.957,3.976,23.257,6.635c-1.627,5.233-2.436,7.852-4.042,13.094
			c-5.364-1.55-8.047-2.324-13.412-3.87c-1.62,5.303-2.425,7.956-4.027,13.266c5.356,1.562,8.033,2.343,13.388,3.907
			c-1.589,5.25-2.38,7.877-3.955,13.134c-5.344-1.58-8.017-2.369-13.362-3.947c-1.99,6.663-2.978,9.997-4.95,16.666
			c5.333,1.598,7.999,2.398,13.33,3.999c-1.561,5.263-2.339,7.895-3.892,13.16c-9.209-2.801-13.815-4.198-23.027-6.991
			C3057.184,1653.648,3064.044,1630.621,3071.103,1607.65z"/>
		<path fill="#FFFFFF" d="M3103.402,1616.873c3.926,1.125,5.888,1.688,9.813,2.816c-5.866,18.782-11.561,37.617-17.179,56.476
			c4.97,1.499,7.455,2.25,12.423,3.753c-1.584,5.301-2.374,7.953-3.951,13.258c-8.844-2.71-13.268-4.06-22.118-6.756
			C3089.27,1663.199,3096.236,1640.007,3103.402,1616.873z"/>
		<path fill="#FFFFFF" d="M3116.699,1658.566c3.303-11.493,12.558-35.669,28.665-31.022c16.16,4.662,9.552,30.621,6.209,41.561
			c-3.362,11.002-12.406,36.217-28.428,31.254c-15.966-4.946-10.066-30.43-6.475-41.698
			C3116.683,1658.623,3116.688,1658.604,3116.699,1658.566z M3126.657,1661.737c-5.092,16.764-4.515,23.782,0.474,25.304
			s9.286-4.035,14.44-20.946c5.154-16.911,4.679-23.862-0.341-25.336c-5.02-1.474-9.423,4.024-14.545,20.882
			C3126.675,1661.68,3126.668,1661.699,3126.657,1661.737z"/>
		<path fill="#FFFFFF" d="M2875.041,1667.736c9.121,2.986,13.685,4.472,22.815,7.43c-1.422,5.057-2.133,7.585-3.56,12.643
			c-5.266-1.725-7.898-2.589-13.162-4.322c-1.438,5.115-2.159,7.674-3.606,12.792c5.254,1.748,7.882,2.619,13.139,4.359
			c-1.436,5.06-2.156,7.591-3.604,12.655c-5.247-1.754-7.871-2.632-13.116-4.394c-1.829,6.421-2.749,9.633-4.604,16.062
			c5.235,1.777,7.852,2.664,13.088,4.435c-1.468,5.069-2.206,7.604-3.694,12.678c-9.047-3.085-13.57-4.631-22.613-7.737
			C2862.544,1712.168,2868.82,1689.96,2875.041,1667.736z"/>
		<path fill="#FFFFFF" d="M2906.228,1677.874c5.404,1.745,8.106,2.616,13.513,4.353c6.917,2.223,10.377,7.506,11.712,14.588
			c1.329,7.051,0.363,16.141-2.192,25.295c-3.27,11.718-12.691,32.271-28.529,27.439c-5.48-1.858-8.22-2.788-13.699-4.652
			C2893.548,1722.589,2899.916,1700.241,2906.228,1677.874z M2900.309,1735.424c1.662,0.559,2.493,0.839,4.155,1.397
			c7.744,2.602,12.902-10.858,14.943-17.957c1.832-6.37,2.629-11.888,2.224-15.988c-0.393-3.986-1.879-6.768-5.49-7.941
			c-1.545-0.502-2.318-0.754-3.864-1.256C2908.322,1707.603,2904.336,1721.519,2900.309,1735.424z"/>
		<path fill="#FFFFFF" d="M2954.594,1693.369c-4.393,15.39-8.809,30.772-13.297,46.134c-0.99,3.386-1.276,6.021-0.85,7.855
			c0.436,1.879,1.629,3.158,3.77,3.873c2.141,0.714,3.814,0.464,5.239-0.872c1.342-1.259,2.451-3.618,3.447-7.013
			c4.516-15.404,8.96-30.83,13.379-46.262c3.862,1.226,5.794,1.839,9.657,3.063c-4.662,16.235-9.352,32.463-14.125,48.667
			c-1.761,5.977-4.367,10.878-7.851,13.642c-3.546,2.813-8.045,3.763-13.639,1.878c-5.594-1.885-8.771-5.376-10.141-9.857
			c-1.335-4.368-0.871-9.933,0.863-15.87c4.694-16.086,9.308-32.196,13.896-48.313
			C2948.802,1691.525,2950.732,1692.14,2954.594,1693.369z"/>
		<path fill="#FFFFFF" d="M3003.705,1754.914c-2.954,10.548-12.477,26.957-25.225,22.25c-15.326-5.659-9.74-29.501-6.376-41.01
			c3.251-11.125,11.478-34.547,27.277-30.001c13.401,3.855,12.226,22.996,8.708,33.908c-3.949-1.28-5.923-1.919-9.872-3.199
			c3.329-12.313,1.744-15.959-1.935-17.136c-4.44-1.42-9.531,3.308-14.318,19.649c-4.786,16.342-3.139,23.279,1.27,24.744
			c4.977,1.654,8.207-5.206,10.622-12.438C2997.794,1752.974,2999.764,1753.621,3003.705,1754.914z"/>
		<path fill="#FFFFFF" d="M3005.971,1784.959c-3.873-1.299-5.81-1.948-9.683-3.247c11.171-21.488,22.192-43.052,33.16-64.644
			c3.559,1.125,5.339,1.687,8.897,2.812c-2.316,24.505-4.729,48.998-7.35,73.473c-3.873-1.3-5.81-1.95-9.683-3.249
			c0.652-5.57,0.972-8.356,1.602-13.928c-4.284-1.423-6.427-2.134-10.711-3.556
			C3009.719,1777.561,3008.472,1780.029,3005.971,1784.959z M3028.089,1738.774c-3.848,8.649-5.776,12.968-9.649,21.591
			c2.374,0.78,3.561,1.17,5.934,1.949C3025.882,1752.899,3026.622,1748.19,3028.089,1738.774z"/>
		<path fill="#FFFFFF" d="M3052.46,1738.715c-3.145-1.008-4.718-1.512-7.864-2.52c1.545-5.246,2.315-7.87,3.855-13.119
			c10.167,3.217,15.251,4.827,25.415,8.054c-1.56,5.282-2.34,7.922-3.906,13.201c-3.145-1.011-4.717-1.516-7.862-2.525
			c-5.559,18.794-11.18,37.57-16.955,56.299c-3.823-1.285-5.734-1.927-9.557-3.211
			C3041.333,1776.205,3046.928,1757.469,3052.46,1738.715z"/>
		<path fill="#FFFFFF" d="M3079.266,1732.846c3.862,1.228,5.793,1.842,9.654,3.072c-6.921,23.308-13.91,46.593-21.081,69.825
			c-3.822-1.288-5.733-1.932-9.555-3.219C3065.419,1779.341,3072.376,1756.105,3079.266,1732.846z"/>
		<path fill="#FFFFFF" d="M3093.491,1737.376c3.759,1.199,5.639,1.799,9.397,3.001c-2.201,16.949-4.442,33.893-6.75,50.828
			c7.559-15.23,15.031-30.503,22.49-45.782c3.604,1.158,5.406,1.738,9.009,2.9c-11.283,22.083-22.631,44.13-34.156,66.088
			c-3.368-1.141-5.053-1.711-8.421-2.851C3088.04,1786.85,3090.812,1762.119,3093.491,1737.376z"/>
		<path fill="#FFFFFF" d="M3118.425,1783.977c3.193-11.079,12.389-36.153,28.261-30.965c15.963,5.218,9.472,31.289,6.037,42.515
			c-3.313,10.829-12.614,36.283-28.493,30.81c-15.725-5.42-9.451-30.946-5.834-42.265
			C3118.407,1784.034,3118.414,1784.015,3118.425,1783.977z M3128.215,1787.44c-5.148,16.884-4.726,23.941,0.182,25.604
			c4.907,1.663,9.278-3.786,14.487-20.815s4.7-24.175-0.236-25.794c-4.937-1.619-9.226,3.929-14.403,20.909
			C3128.231,1787.382,3128.226,1787.401,3128.215,1787.44z"/>
	</g>
</g>
<polygon fill="#DC3421" points="2875.575,1471.291 3276.8,1585.782 3676.274,1470.546 3287.178,1398.492 "/>
</svg>
