<?xml version="1.0" encoding="utf-8"?>
<!-- Generator: Adobe Illustrator 17.0.0, SVG Export Plug-In . SVG Version: 6.00 Build 0)  -->
<!DOCTYPE svg PUBLIC "-//W3C//DTD SVG 1.1//EN" "http://www.w3.org/Graphics/SVG/1.1/DTD/svg11.dtd">
<svg version="1.1" id="Capa_1" xmlns="http://www.w3.org/2000/svg" xmlns:xlink="http://www.w3.org/1999/xlink" x="0px" y="0px"
	 width="1845.185px" height="822.404px" viewBox="4311.78 1271.447 1845.185 822.404"
	 enable-background="new 4311.78 1271.447 1845.185 822.404" xml:space="preserve">
<radialGradient id="SVGID_1_" cx="-89.1732" cy="-54101.4453" r="789.131" gradientTransform="matrix(-0.7169 0.295 -0.0314 -0.0402 3935.73 -353.0401)" gradientUnits="userSpaceOnUse">
	<stop  offset="0" style="stop-color:#505052"/>
	<stop  offset="0.0149" style="stop-color:#555556"/>
	<stop  offset="0.198" style="stop-color:#888889"/>
	<stop  offset="0.3782" style="stop-color:#B3B3B4"/>
	<stop  offset="0.5517" style="stop-color:#D4D4D4"/>
	<stop  offset="0.7168" style="stop-color:#ECECEC"/>
	<stop  offset="0.8701" style="stop-color:#FAFAFA"/>
	<stop  offset="1" style="stop-color:#FFFFFF"/>
</radialGradient>
<path opacity="0.5" fill="url(#SVGID_1_)" enable-background="new    " d="M5722.979,1826.939
	c121.61-50.053,232.459-98.667,321.526-140.41c-27.546-14.986-52.68-29.077-75.005-42.045
	c-88.083,32.171-190.286,71.883-298.183,116.292c-311.147,128.066-551.775,246.674-537.508,264.942
	C5148.08,2043.996,5411.828,1955.005,5722.979,1826.939z"/>
<radialGradient id="SVGID_2_" cx="-9894.9385" cy="56253.5859" r="1038.4711" gradientTransform="matrix(-0.4864 -0.2033 0.0258 -0.025 -1516.7526 1173.5504)" gradientUnits="userSpaceOnUse">
	<stop  offset="0" style="stop-color:#505052"/>
	<stop  offset="0.0149" style="stop-color:#555556"/>
	<stop  offset="0.198" style="stop-color:#888889"/>
	<stop  offset="0.3782" style="stop-color:#B3B3B4"/>
	<stop  offset="0.5517" style="stop-color:#D4D4D4"/>
	<stop  offset="0.7168" style="stop-color:#ECECEC"/>
	<stop  offset="0.8701" style="stop-color:#FAFAFA"/>
	<stop  offset="1" style="stop-color:#FFFFFF"/>
</radialGradient>
<path opacity="0.5" fill="url(#SVGID_2_)" enable-background="new    " d="M4719.428,1807.832
	c277.487,116.014,514.99,197.964,530.432,183.007c15.435-14.952-197.044-121.137-474.536-237.151
	c-97.791-40.885-190.604-77.534-270.484-107.203c-23.048,10.046-48.625,20.845-76.38,32.247
	C4508.159,1716.738,4608.603,1761.498,4719.428,1807.832z"/>
<linearGradient id="SVGID_3_" gradientUnits="userSpaceOnUse" x1="4271.3584" y1="1006.0923" x2="5021.6396" y2="1006.0923" gradientTransform="matrix(1 0 0 1 965.325 716.37)">
	<stop  offset="0" style="stop-color:#9643D7"/>
	<stop  offset="0.9944" style="stop-color:#BF459E"/>
</linearGradient>
<path fill="url(#SVGID_3_)" d="M5236.684,1977.674c251.798-98.484,499.206-207.711,750.281-307.981l-147.703-202.443
	l-601.46,214.646L5236.684,1977.674z"/>
<g>
	<path fill="none" stroke="#FFFFFF" stroke-width="6" stroke-miterlimit="10" stroke-dasharray="12.0984,12.0984" d="
		M5247.161,1779.773c208.631-77.039,415.224-162.47,620.523-238.782"/>
	<path fill="none" stroke="#FFFFFF" stroke-width="6" stroke-miterlimit="10" d="M5872.033,1539.374
		c1.725-0.641,2.586-0.961,4.309-1.601"/>
</g>
<g>
	<path fill="none" stroke="#FFFFFF" stroke-width="6" stroke-miterlimit="10" stroke-dasharray="12.0984,12.0984" d="
		M5246.805,1873.428c228.256-84.085,456.027-182.045,684.102-266.62"/>
</g>
<g>
	<path fill="#FFFFFF" d="M5349.681,1670.826c1.537-0.545,2.305-0.818,3.843-1.362c3.447,10.514,6.747,21.075,9.934,31.67
		c3.392-1.224,5.09-1.836,8.487-3.063c0.617,2.051,0.923,3.075,1.532,5.121c-4.931,1.787-7.395,2.679-12.314,4.461
		C5357.456,1695.336,5353.638,1683.065,5349.681,1670.826z"/>
	<path fill="#FFFFFF" d="M5367.791,1685.182c-2.665-7.945-2.12-20.806,6.462-23.851c8.488-3.011,16.401,6.862,18.786,14.602
		c2.459,7.985,1.504,20.354-6.982,23.461c-8.354,3.058-16.015-6.489-18.251-14.163
		C5367.8,1685.211,5367.796,1685.201,5367.791,1685.182z M5371.542,1683.62c2.373,7.639,7.936,12.496,13.089,10.635
		c5.251-1.896,6.769-9.773,4.562-16.892c-2.223-7.168-7.916-12.715-13.213-10.834c-5.265,1.869-6.749,9.65-4.452,17.041
		C5371.533,1683.589,5371.537,1683.6,5371.542,1683.62z"/>
	<path fill="#FFFFFF" d="M5438.076,1680.474c-0.638,0.179-1.257,0.335-1.896,0.474c-2.884,0.625-5.792-1.093-6.146-0.992
		c-0.873,0.249-3.737,4.922-6.182,5.732c-8.905,2.951-16.081-6.415-18.43-14.072c-2.43-7.922-1.862-20.619,6.64-23.669
		c8.41-3.019,16.439,6.458,18.808,14.301c2.066,6.837,0.384,12.538,0.686,13.179c0.297,0.629,2.985,0.859,5.128,0.354
		C5437.244,1677.66,5437.522,1678.599,5438.076,1680.474z M5413.738,1653.132c-4.474,1.586-6.618,7.862-4.872,14.899
		c0.404,1.629,1.189,3.475,1.261,3.487c0.217,0.035,2.081-2.109,4.117-2.837c2.166-0.775,4.371-0.728,6.86,0.38
		c1.762,0.783,5.936,3.95,6.331,3.802c0.508-0.189,0.616-5.903-0.414-9.24c-2.482-8.048-8.382-12.228-13.25-10.501
		C5413.757,1653.125,5413.75,1653.128,5413.738,1653.132z M5422.35,1680.634c1.87-0.675,3.89-2.912,3.792-3.364
		c-0.11-0.513-3.58-2.465-4.067-2.752c-2.333-1.371-4.717-1.506-6.718-0.788c-1.641,0.589-3.213,1.9-3.229,2.301
		c-0.106,2.625,8.025,5.396,10.189,4.615C5422.33,1680.641,5422.337,1680.639,5422.35,1680.634z"/>
	<path fill="#FFFFFF" d="M5433.054,1641.298c2.447,7.568,4.825,15.157,7.139,22.767c0.682,2.243,1.269,4.188,2.783,5.953
		c1.232,1.437,2.926,2.109,4.604,1.503s2.66-2.25,2.862-4.087c0.255-2.319-0.285-4.353-0.995-6.688
		c-2.307-7.597-4.677-15.175-7.115-22.73c1.546-0.547,2.319-0.82,3.866-1.368c2.435,7.55,4.801,15.124,7.105,22.715
		c1.48,4.752,1.93,8.601,0.66,11.935c-0.908,2.383-2.463,4.359-4.864,5.23c-1.742,0.632-4.465,0.719-6.797-0.957
		c-3.197-2.298-4.687-5.712-5.992-10.115c-2.317-7.615-4.698-15.209-7.149-22.782
		C5430.718,1642.124,5431.496,1641.849,5433.054,1641.298z"/>
	<path fill="#FFFFFF" d="M5450.859,1635c5.475-1.936,8.215-2.905,13.697-4.843c0.664,2.066,0.992,3.095,1.643,5.149
		c-3.917,1.388-5.875,2.083-9.789,3.469c1.318,4.152,1.962,6.214,3.229,10.319c3.856-1.376,5.785-2.063,9.645-3.44
		c0.619,2.01,0.925,3.012,1.533,5.01c-3.856,1.381-5.784,2.071-9.638,3.45c1.298,4.259,1.935,6.376,3.188,10.594
		c3.901-1.409,5.853-2.114,9.757-3.523c0.593,1.998,0.887,2.995,1.472,4.984c-5.457,1.979-8.184,2.969-13.635,4.946
		C5458.369,1659.041,5454.676,1647.006,5450.859,1635z"/>
	<path fill="#FFFFFF" d="M5485.261,1622.837c3.812-1.347,5.684-1.15,7.683,0.034c2.317,1.371,4.441,4.499,5.51,7.957
		c1.07,3.459,1.14,7.425,0.149,9.729c-1.059,2.462-2.508,3.834-5.88,5.043c-1.375,0.493-2.062,0.74-3.438,1.233
		c1.574,5.223,2.342,7.816,3.851,12.974c-1.557,0.565-2.336,0.848-3.892,1.412c-3.552-12.005-7.205-23.971-10.978-35.91
		C5481.064,1624.32,5482.463,1623.827,5485.261,1622.837z M5487.762,1641.808c1.349-0.482,2.024-0.724,3.374-1.206
		c1.554-0.555,2.66-1.271,3.435-2.57c0.698-1.167,0.925-3.339,0.17-5.777c-0.754-2.437-2.12-4.022-3.405-4.55
		c-1.393-0.572-2.657-0.369-4.281,0.206c-1.299,0.46-1.948,0.69-3.247,1.15C5485.431,1634.203,5486.22,1636.749,5487.762,1641.808z"
		/>
	<path fill="#FFFFFF" d="M5507.823,1654.479c-1.69,0.614-2.535,0.92-4.225,1.533c-0.07-13.125-0.319-26.249-0.825-39.364
		c1.42-0.502,2.13-0.753,3.55-1.254c6.941,10.682,13.845,21.386,20.719,32.111c-1.691,0.614-2.537,0.921-4.227,1.534
		c-1.886-2.965-2.834-4.456-4.748-7.456c-4.18,1.505-6.269,2.258-10.447,3.762
		C5507.713,1649.01,5507.754,1650.836,5507.823,1654.479z M5506.523,1622.811c0.379,7.107,0.534,10.623,0.798,17.606
		c3.334-1.196,5.001-1.794,8.336-2.991C5512.066,1631.652,5510.244,1628.734,5506.523,1622.811z"/>
	<path fill="#FFFFFF" d="M5529.256,1635.238c1.833,5.187,4.702,5.277,5.992,4.812c2.181-0.789,3.352-3.918,2.425-7.049
		c-1.151-3.89-3.822-4.073-7.396-4.523c-2.135-0.269-7.053-0.755-9.152-7.49c-2.083-6.686,0.615-11.809,4.466-13.17
		c3.154-1.114,7.948,0.091,10.518,7.361c-1.539,0.547-2.309,0.82-3.847,1.367c-0.865-1.848-2.437-4.764-5.257-3.765
		c-1.99,0.705-3.083,3.328-2.138,6.391c1.082,3.5,3.329,3.604,7.751,4.427c3.529,0.657,7.157,2.037,8.84,7.727
		c1.683,5.689,0.41,11.524-4.809,13.42c-4.856,1.764-9.174-1.326-11.264-8.113
		C5526.934,1636.073,5527.708,1635.795,5529.256,1635.238z"/>
	<path fill="#FFFFFF" d="M5549.906,1639.205c-1.692,0.614-2.537,0.921-4.229,1.535c-0.044-13.021-0.239-26.024-0.611-39.04
		c1.421-0.502,2.131-0.754,3.552-1.256c6.862,10.578,13.698,21.173,20.515,31.78c-1.691,0.614-2.537,0.922-4.228,1.535
		c-1.865-2.924-2.804-4.394-4.697-7.356c-4.181,1.506-6.271,2.259-10.452,3.765
		C5549.828,1633.798,5549.858,1635.604,5549.906,1639.205z M5548.781,1607.823c0.343,7.063,0.479,10.55,0.703,17.468
		c3.336-1.197,5.005-1.796,8.341-2.992C5554.272,1616.589,5552.468,1613.699,5548.781,1607.823z"/>
	<path fill="#FFFFFF" d="M5570.96,1592.548c5.495-1.943,8.243-2.913,13.734-4.855c0.634,2.036,0.946,3.048,1.566,5.063
		c-3.924,1.391-5.886,2.087-9.812,3.479c1.256,4.076,1.869,6.095,3.071,10.098c3.867-1.38,5.8-2.07,9.666-3.449
		c0.587,1.96,0.878,2.935,1.453,4.88c-3.863,1.383-5.794,2.076-9.66,3.46c1.229,4.142,1.831,6.195,3.013,10.275
		c3.912-1.414,5.867-2.12,9.777-3.534c0.559,1.932,0.835,2.894,1.384,4.813c-5.465,1.984-8.198,2.977-13.667,4.963
		C5578.076,1615.977,5574.571,1604.25,5570.96,1592.548z"/>
	<path fill="#FFFFFF" d="M5613.19,1607.211c-2.641-8.93-5.333-17.839-8.079-26.737c1.51-0.534,2.266-0.802,3.776-1.336
		c3.545,11.605,6.988,23.234,10.339,34.896c-1.424,0.517-2.136,0.776-3.559,1.293c-6.882-7.259-13.735-14.546-20.56-21.859
		c2.67,8.81,5.291,17.63,7.865,26.469c-1.504,0.546-2.256,0.819-3.761,1.366c-3.383-11.715-6.858-23.396-10.438-35.052
		c1.472-0.521,2.208-0.781,3.68-1.301C5599.337,1592.397,5606.249,1599.818,5613.19,1607.211z"/>
	<path fill="#FFFFFF" d="M5623.385,1574.009c5.477-1.938,8.214-2.906,13.683-4.842c0.621,2.022,0.927,3.027,1.533,5.026
		c-3.908,1.387-5.863,2.08-9.775,3.469c1.228,4.043,1.827,6.041,3,10.001c3.854-1.376,5.78-2.064,9.631-3.439
		c0.573,1.938,0.856,2.903,1.418,4.823c-3.848,1.379-5.772,2.069-9.624,3.449c1.198,4.091,1.784,6.115,2.934,10.135
		c3.899-1.409,5.847-2.114,9.742-3.522c0.543,1.903,0.812,2.851,1.347,4.739c-5.444,1.978-8.167,2.967-13.618,4.947
		C5630.325,1597.169,5626.905,1585.578,5623.385,1574.009z"/>
	<path fill="#FFFFFF" d="M5641.229,1567.695c1.559-0.552,2.338-0.828,3.895-1.378c3.041,9.934,5.978,19.899,8.825,29.89
		c3.432-1.241,5.146-1.861,8.575-3.1c0.539,1.894,0.806,2.837,1.335,4.716c-4.975,1.807-7.464,2.712-12.445,4.521
		C5648.111,1590.763,5644.719,1579.217,5641.229,1567.695z"/>
	<path fill="#FFFFFF" d="M5676.744,1593.139c-1.677,0.61-2.516,0.914-4.194,1.524c0.149-12.684,0.128-25.347-0.083-38.03
		c1.407-0.499,2.11-0.748,3.516-1.246c6.591,10.284,13.191,20.562,19.8,30.834c-1.672,0.608-2.509,0.912-4.183,1.52
		c-1.793-2.802-2.697-4.215-4.521-7.069c-4.138,1.492-6.208,2.24-10.352,3.734
		C5676.748,1587.921,5676.75,1589.666,5676.744,1593.139z M5676.059,1562.638c0.253,6.925,0.343,10.323,0.469,17.04
		c3.306-1.188,4.958-1.782,8.261-2.969C5681.365,1571.193,5679.623,1568.385,5676.059,1562.638z"/>
	<path fill="#FFFFFF" d="M5691.05,1550.046c2.701,8.925,3.969,13.245,6.4,21.708c0.605,2.106,1.125,3.926,2.557,5.552
		c1.168,1.324,2.81,1.916,4.474,1.314c1.664-0.602,2.678-2.164,2.93-3.888c0.319-2.182-0.152-4.084-0.781-6.277
		c-2.422-8.445-3.684-12.757-6.376-21.673c1.532-0.543,2.297-0.815,3.827-1.357c2.689,8.912,3.949,13.22,6.367,21.658
		c1.314,4.463,1.644,8.049,0.297,11.195c-0.961,2.242-2.547,4.119-4.928,4.984c-1.729,0.629-4.41,0.77-6.643-0.74
		c-3.072-2.078-4.431-5.244-5.584-9.381c-2.436-8.472-3.705-12.794-6.41-21.724
		C5688.729,1550.87,5689.503,1550.595,5691.05,1550.046z"/>
	<path fill="#FFFFFF" d="M5708.791,1543.755c1.543-0.547,2.313-0.821,3.855-1.367c2.951,9.801,5.805,19.631,8.574,29.484
		c3.397-1.229,5.095-1.844,8.487-3.071c0.521,1.859,0.78,2.783,1.292,4.624c-4.922,1.789-7.388,2.685-12.322,4.478
		C5715.499,1566.484,5712.175,1555.112,5708.791,1543.755z"/>
	<path fill="#FFFFFF" d="M5735.576,1571.76c-1.661,0.604-2.492,0.906-4.155,1.51c0.207-12.53,0.234-25.04,0.063-37.571
		c1.392-0.495,2.088-0.741,3.479-1.236c6.462,10.165,12.939,20.32,19.458,30.448c-1.654,0.601-2.482,0.902-4.139,1.504
		c-1.759-2.751-2.646-4.139-4.437-6.947c-4.094,1.478-6.144,2.218-10.246,3.698
		C5735.604,1566.628,5735.599,1568.346,5735.576,1571.76z M5735.019,1541.658c0.23,6.863,0.306,10.223,0.404,16.848
		c3.273-1.177,4.908-1.766,8.175-2.94C5740.235,1550.127,5738.524,1547.355,5735.019,1541.658z"/>
</g>
<g>
	
		<linearGradient id="SVGID_4_" gradientUnits="userSpaceOnUse" x1="3519.9136" y1="1005.5787" x2="4272.4766" y2="1005.5787" gradientTransform="matrix(1 0 0 1 965.325 716.37)">
		<stop  offset="0" style="stop-color:#9643D7"/>
		<stop  offset="0.9944" style="stop-color:#BF459E"/>
	</linearGradient>
	<path fill="url(#SVGID_4_)" d="M5237.801,1681.896l-604.817-215.584l-147.746,202.381c0,0,501.365,205.194,751.595,308.892
		L5237.801,1681.896z"/>
	<g>
		<path fill="#FFFFFF" d="M4790.385,1614.305c4.347,1.583,7.624,4.765,9.282,9.269c1.658,4.503,1.696,10.329-0.217,16.961
			c-1.938,6.719-4.978,11.312-8.646,13.844c-3.668,2.531-7.94,2.913-12.245,1.281c-1.426-0.541-2.139-0.812-3.566-1.353
			c-2.539,8.847-3.812,13.272-6.369,22.138c-3.717-1.442-5.576-2.163-9.291-3.606c6.042-21.086,12.048-42.181,18.017-63.287
			C4782.561,1611.455,4785.167,1612.406,4790.385,1614.305z M4778.43,1642.308c1.381,0.518,2.072,0.777,3.453,1.294
			c1.85,0.693,3.386,0.525,4.662-0.536c1.246-1.036,2.346-2.929,3.257-6.108c0.936-3.264,1.061-5.504,0.558-7.203
			c-0.491-1.661-1.665-2.796-3.523-3.48c-1.387-0.511-2.081-0.767-3.468-1.278
			C4781.398,1631.923,4780.411,1635.384,4778.43,1642.308z"/>
		<path fill="#FFFFFF" d="M4811.451,1621.961c4.775,1.732,7.163,2.597,11.941,4.326c6.532,2.364,10.043,6.225,11.048,10.237
			c1.21,4.83,1.209,9.964-0.633,16.227c-1.023,3.479-2.455,6.718-4.228,9.237c-2.582,3.668-5.209,5.583-7.853,6.422
			c0.363,9.649,0.698,19.3,1.005,28.951c-4.166-1.606-6.248-2.409-10.413-4.016c-0.105-12.14-0.251-24.28-0.44-36.42
			c1.05,0.392,1.611,0.596,2.371,0.79c1.71,0.436,3.69,0.481,5.342-0.699c2.116-1.512,3.463-4.099,4.199-6.615
			c0.914-3.123,1.211-5.994,0.11-8.603c-0.651-1.545-2.039-2.664-4.334-3.505c-0.868-0.318-1.303-0.477-2.171-0.795
			c-5.036,17.322-10.098,34.637-15.181,51.946c-3.722-1.438-5.583-2.157-9.305-3.596
			C4799.126,1664.564,4805.311,1643.269,4811.451,1621.961z"/>
		<path fill="#FFFFFF" d="M4834.723,1665.935c3.206-11.534,11.892-32.177,26.759-27.25c14.925,4.946,10.229,28.56,6.832,39.857
			c-3.358,11.167-12.136,32.649-26.896,27.391c-14.559-5.186-10.289-28.439-6.721-39.91
			C4834.708,1665.987,4834.712,1665.97,4834.723,1665.935z M4844.309,1669.702c-4.599,15.465-3.998,22.132,0.795,23.957
			c4.794,1.825,8.885-3.087,13.567-18.705c4.683-15.618,4.034-22.259-0.812-24.024c-4.846-1.765-8.899,3.133-13.524,18.685
			C4844.324,1669.649,4844.318,1669.667,4844.309,1669.702z"/>
		<path fill="#FFFFFF" d="M4883.803,1648.073c8.526,3.067,12.79,4.6,21.318,7.665c-1.497,4.955-2.249,7.433-3.756,12.394
			c-4.724-1.719-7.085-2.579-11.809-4.298c-1.493,4.944-2.241,7.417-3.742,12.364c4.708,1.736,7.063,2.604,11.772,4.34
			c-1.515,4.964-2.275,7.448-3.797,12.416c-4.694-1.753-7.041-2.629-11.734-4.383c-2.872,9.437-5.752,18.871-8.637,28.304
			c-3.728-1.434-5.591-2.15-9.319-3.584C4870.705,1691.563,4877.284,1669.828,4883.803,1648.073z"/>
		<path fill="#FFFFFF" d="M4912.226,1658.293c8.977,3.227,13.465,4.84,22.44,8.068c-1.531,4.993-2.301,7.492-3.844,12.493
			c-5.17-1.882-7.756-2.823-12.927-4.705c-1.549,5.054-2.326,7.583-3.885,12.643c5.155,1.9,7.732,2.851,12.886,4.752
			c-1.552,5.007-2.331,7.512-3.89,12.523c-5.138-1.92-7.707-2.879-12.845-4.799c-1.961,6.347-2.945,9.522-4.913,15.872
			c5.117,1.943,7.676,2.915,12.793,4.858c-1.564,5.013-2.347,7.52-3.913,12.533c-8.828-3.396-13.243-5.093-22.073-8.488
			C4898.816,1702.137,4905.556,1680.225,4912.226,1658.293z"/>
		<path fill="#FFFFFF" d="M4936.416,1717.615c-2.052,6.971-1.474,10.817,2.582,12.362c3.441,1.311,6.284-1.145,7.796-5.926
			c1.911-6.044-2.622-9.346-6.63-13.976c-4.04-4.667-7.375-10.862-4.214-21.884c2.49-8.681,10.05-19.072,20.51-15.485
			c10.145,3.479,10.987,15.486,8.655,24.376c-3.672-1.347-5.508-2.02-9.18-3.366c1.4-4.907,0.432-8.462-2.613-9.57
			c-2.984-1.085-5.79,1.489-7.05,5.529c-1.959,6.284,2.632,9.277,6.676,13.994c4.043,4.717,7.233,11.253,3.509,23.831
			c-2.679,9.049-11.116,18.274-21.452,14.474c-11.688-4.296-11.38-18.037-7.955-27.89
			C4930.795,1715.498,4932.669,1716.203,4936.416,1717.615z"/>
		<path fill="#FFFFFF" d="M4965.213,1714.484c3.522-11.73,12.787-33.407,27.844-28.489c15.126,4.941,9.313,29.952,5.714,41.124
			c-3.663,11.37-13.058,33.898-27.998,28.659c-14.765-5.178-9.365-29.853-5.589-41.203
			C4965.196,1714.538,4965.203,1714.52,4965.213,1714.484z M4974.792,1718.259c-5.122,16.065-4.717,22.955,0.073,24.784
			c4.79,1.828,9.073-3.304,14.28-19.524c5.207-16.22,4.744-23.071-0.097-24.84c-4.842-1.769-9.077,3.335-14.227,19.49
			C4974.81,1718.205,4974.804,1718.223,4974.792,1718.259z"/>
		<path fill="#FFFFFF" d="M5015.61,1695.575c4.774,1.733,7.161,2.6,11.931,4.335c6.523,2.373,9.909,6.372,10.747,10.57
			c1.01,5.057,0.773,10.457-1.388,17.085c-1.201,3.683-2.807,7.121-4.727,9.809c-2.795,3.914-5.554,5.982-8.279,6.917
			c-0.092,10.161-0.208,20.322-0.338,30.483c-4.156-1.614-6.234-2.421-10.392-4.033c0.451-12.79,0.883-25.581,1.269-38.373
			c1.049,0.393,1.609,0.597,2.373,0.787c1.717,0.427,3.726,0.438,5.462-0.839c2.221-1.634,3.711-4.386,4.577-7.05
			c1.074-3.307,1.508-6.339,0.513-9.062c-0.591-1.616-1.946-2.768-4.239-3.611c-0.867-0.319-1.301-0.479-2.168-0.798
			c-5.929,18.355-11.9,36.695-17.877,55.034c-3.719-1.44-5.579-2.16-9.3-3.599C5001.09,1740.692,5008.397,1718.149,5015.61,1695.575
			z"/>
	</g>
</g>
<polygon fill="#7D2A86" points="4632.984,1466.312 5237.801,1681.896 5839.262,1467.25 5238.393,1362.955 "/>
<text transform="matrix(0.9368 -0.35 0.35 0.9368 5348.96 1797.7059)" fill="#FFFFFF" font-family="'ITCAvantGardeStd-MdCn'" font-size="38.1835">TÉCNICA: PRÁCTICAS PEDAGÓGICAS</text>
<text transform="matrix(0.9306 -0.3661 0.3661 0.9306 5373.5664 1885.6061)" fill="#FFFFFF" font-family="'ITCAvantGardeStd-MdCn'" font-size="38.1835">ESTRATEGIA: PRINCIPIO PEDAGÓGICO</text>
</svg>
