<?xml version="1.0" encoding="utf-8"?>
<!-- Generator: Adobe Illustrator 17.0.0, SVG Export Plug-In . SVG Version: 6.00 Build 0)  -->
<!DOCTYPE svg PUBLIC "-//W3C//DTD SVG 1.1//EN" "http://www.w3.org/Graphics/SVG/1.1/DTD/svg11.dtd">
<svg version="1.1" id="Capa_1" xmlns="http://www.w3.org/2000/svg" xmlns:xlink="http://www.w3.org/1999/xlink" x="0px" y="0px"
	 width="1845.185px" height="822.404px" viewBox="2373.586 2195.115 1845.185 822.404"
	 enable-background="new 2373.586 2195.115 1845.185 822.404" xml:space="preserve">
<radialGradient id="SVGID_1_" cx="2502.0051" cy="-55180.5625" r="789.131" gradientTransform="matrix(-0.7654 0.3621 -0.0335 -0.0493 3854.6975 -896.3663)" gradientUnits="userSpaceOnUse">
	<stop  offset="0" style="stop-color:#505052"/>
	<stop  offset="0.0149" style="stop-color:#555556"/>
	<stop  offset="0.198" style="stop-color:#888889"/>
	<stop  offset="0.3782" style="stop-color:#B3B3B4"/>
	<stop  offset="0.5517" style="stop-color:#D4D4D4"/>
	<stop  offset="0.7168" style="stop-color:#ECECEC"/>
	<stop  offset="0.8701" style="stop-color:#FAFAFA"/>
	<stop  offset="1" style="stop-color:#FFFFFF"/>
</radialGradient>
<path opacity="0.5" fill="url(#SVGID_1_)" enable-background="new    " d="M3815.751,2770.632
	c129.839-61.431,248.19-121.096,343.284-172.328c-29.41-18.393-56.245-35.687-80.081-51.603
	c-94.043,39.484-203.162,88.223-318.361,142.728c-332.202,157.178-589.113,302.748-573.881,325.169
	C3201.949,3037.03,3483.544,2927.81,3815.751,2770.632z"/>
<radialGradient id="SVGID_2_" cx="-8429.9922" cy="12554.5771" r="1038.4711" gradientTransform="matrix(-0.5148 -0.255 0.0273 -0.0313 -1911.8384 962.4835)" gradientUnits="userSpaceOnUse">
	<stop  offset="0" style="stop-color:#505052"/>
	<stop  offset="0.0149" style="stop-color:#555556"/>
	<stop  offset="0.198" style="stop-color:#888889"/>
	<stop  offset="0.3782" style="stop-color:#B3B3B4"/>
	<stop  offset="0.5517" style="stop-color:#D4D4D4"/>
	<stop  offset="0.7168" style="stop-color:#ECECEC"/>
	<stop  offset="0.8701" style="stop-color:#FAFAFA"/>
	<stop  offset="1" style="stop-color:#FFFFFF"/>
</radialGradient>
<path opacity="0.5" fill="url(#SVGID_2_)" enable-background="new    " d="M2741.277,2752.269
	c293.687,145.514,545.055,248.303,561.399,229.542c16.336-18.754-208.548-151.94-502.24-297.455
	c-103.5-51.281-201.732-97.249-286.275-134.463c-24.394,12.6-51.464,26.146-80.839,40.447
	C2517.674,2638.012,2623.981,2694.153,2741.277,2752.269z"/>
<linearGradient id="SVGID_3_" gradientUnits="userSpaceOnUse" x1="2325.1299" y1="1998.3428" x2="3160.9238" y2="1998.3428" gradientTransform="matrix(1 0 0 1 965.325 716.37)">
	<stop  offset="0" style="stop-color:#5A8573"/>
	<stop  offset="0.9944" style="stop-color:#74CF49"/>
</linearGradient>
<polygon fill="url(#SVGID_3_)" points="3290.455,2771.091 3290.455,2967.522 4126.249,2578.16 4041.288,2461.904 "/>
<g>
	<g>
		<g>
			<path fill="#FFFFFF" d="M3319.368,2801.465c2.041-0.885,3.06-1.327,5.094-2.209c1.264,13.158,2.522,26.317,3.78,39.476
				c4.961-2.206,7.425-3.301,12.322-5.477c0.321,2.55,0.482,3.825,0.804,6.376c-7.214,3.217-10.857,4.841-18.216,8.126
				C3321.891,2832.326,3320.632,2816.895,3319.368,2801.465z"/>
			<path fill="#FFFFFF" d="M3338.272,2817.33c-1.406-11.487,2.671-25.827,13.441-30.774c10.141-4.658,19.139,5.896,20.985,15.382
				c2.274,11.686-2.116,25.243-13.281,30.552c-10.848,5.158-20.211-4.494-21.137-15.098
				C3338.277,2817.367,3338.275,2817.355,3338.272,2817.33z M3343.513,2814.766c1.297,9.356,7.703,14.66,14.99,11.424
				c7.426-3.298,10.706-13.433,9.029-21.918c-1.688-8.545-7.798-14.559-14.729-11.547c-6.889,2.994-10.553,12.929-9.298,21.981
				C3343.508,2814.73,3343.51,2814.742,3343.513,2814.766z"/>
			<path fill="#FFFFFF" d="M3430.881,2800.63c-0.84,0.309-1.654,0.592-2.496,0.855c-3.814,1.192-7.467-0.437-8.025-0.248
				c-1.349,0.457-5.079,6.398-8.43,7.877c-10.83,4.78-20.443-4.068-22.822-14.252c-2.435-10.422,0.219-24.386,10.405-28.953
				c9.807-4.397,19.632,4.849,22.537,14.199c2.399,7.721,0.141,14.881,0.458,15.483c0.329,0.623,3.854,0.577,6.646-0.341
				C3429.844,2797.4,3430.19,2798.477,3430.881,2800.63z M3401.172,2771.735c-5.615,2.433-8.877,10.11-7.323,18.313
				c0.358,1.89,1.204,4.002,1.282,4.015c0.292,0.051,2.848-2.84,5.496-4.001c2.819-1.236,5.611-1.491,8.721-0.529
				c2.204,0.681,7.14,3.938,7.928,3.611c0.785-0.325,1.025-7.102-0.139-10.887c-2.808-9.13-9.814-13.188-15.925-10.54
				C3401.197,2771.725,3401.189,2771.728,3401.172,2771.735z M3410.26,2803.233c2.491-1.103,5.255-4.152,5.138-4.626
				c-0.126-0.512-4.516-2.421-5.125-2.69c-2.942-1.301-5.981-1.112-8.616,0.047c-2.159,0.951-4.339,2.746-4.361,3.257
				c-0.117,2.813,10.036,5.309,12.921,4.031C3410.234,2803.245,3410.243,2803.241,3410.26,2803.233z"/>
			<path fill="#FFFFFF" d="M3425.295,2755.671c3.403,10.059,5.106,15.121,8.519,25.266c0.85,2.526,1.586,4.726,3.526,6.584
				c1.58,1.511,3.772,2.058,5.928,1.105c2.156-0.953,3.394-3.028,3.62-5.191c0.288-2.746-0.44-5.029-1.372-7.635
				c-3.587-10.032-5.376-15.037-8.952-24.982c1.87-0.805,2.804-1.207,4.669-2.01c3.643,9.9,5.465,14.882,9.12,24.87
				c1.979,5.278,2.691,9.68,1.133,13.773c-1.107,2.908-3.088,5.467-6.199,6.848c-2.259,1.002-5.835,1.503-8.837-0.128
				c-4.145-2.251-6.005-6.074-7.587-11.058c-3.335-10.195-4.998-15.282-8.324-25.391
				C3422.445,2756.899,3423.396,2756.489,3425.295,2755.671z"/>
			<path fill="#FFFFFF" d="M3446.845,2746.392c6.578-2.83,9.851-4.238,16.367-7.039c0.883,2.184,1.324,3.278,2.207,5.468
				c-4.688,2.025-7.041,3.041-11.765,5.082c1.719,4.468,2.579,6.707,4.301,11.194c4.727-2.061,7.079-3.086,11.764-5.126
				c0.875,2.179,1.313,3.269,2.19,5.451c-4.714,2.062-7.082,3.098-11.841,5.181c1.797,4.687,2.696,7.035,4.498,11.734
				c4.896-2.161,7.33-3.235,12.17-5.37c0.887,2.209,1.331,3.315,2.219,5.526c-6.812,3.016-10.246,4.537-17.176,7.608
				C3456.807,2772.863,3451.834,2759.624,3446.845,2746.392z"/>
			<path fill="#FFFFFF" d="M3494.332,2758.063c2.803,5.657,6.429,5.431,7.988,4.744c2.64-1.163,3.719-4.866,2.214-8.29
				c-1.871-4.254-5.167-4.129-9.617-4.204c-2.663-0.045-8.787-0.038-11.87-7.251c-3.062-7.161-0.144-13.027,4.358-14.958
				c3.687-1.581,9.473-0.903,13.305,6.76c-1.807,0.782-2.712,1.173-4.525,1.957c-1.222-1.928-3.371-4.924-6.685-3.496
				c-2.339,1.008-3.457,4.006-2.05,7.276c1.608,3.737,4.343,3.589,9.855,3.979c4.388,0.31,8.958,1.391,11.718,7.597
				s1.95,13.019-4.396,15.827c-5.905,2.612-11.727-0.429-14.974-7.889C3491.528,2759.293,3492.464,2758.883,3494.332,2758.063z"/>
			<path fill="#FFFFFF" d="M3505.349,2721.262c4.29,9.4,6.436,14.133,10.742,23.627c1.072,2.364,2.004,4.423,4.068,6.168
				c1.681,1.421,3.856,1.945,5.854,1.066s3.005-2.814,3.031-4.845c0.032-2.566-0.874-4.722-2.009-7.172
				c-4.369-9.432-6.546-14.133-10.899-23.47c1.792-0.768,2.687-1.151,4.476-1.918c4.374,9.311,6.562,14.001,10.954,23.408
				c2.368,4.972,3.424,9.13,2.288,12.948c-0.81,2.721-2.482,5.104-5.351,6.372c-2.083,0.92-5.47,1.364-8.55-0.183
				c-4.246-2.133-6.441-5.7-8.484-10.355c-4.276-9.522-6.407-14.27-10.667-23.698
				C3502.623,2722.431,3503.533,2722.041,3505.349,2721.262z"/>
			<path fill="#FFFFFF" d="M3565.254,2726.65c1.543,7.531-1.216,15.302-7.562,17.912c-9.899,4.07-19.984-4.193-24.133-12.99
				c-3.982-8.443-4.052-21.294,5.557-25.617c7.294-3.281,15.396,1.876,19.229,6.375c-1.889,0.816-2.834,1.224-4.728,2.042
				c-2.07-2.005-7.116-5.292-12.038-3.208c-5.942,2.516-7.079,10.849-3.488,18.436c3.687,7.789,11.067,12.343,17.04,9.719
				c5.475-2.406,5.467-8.991,5.419-10.614C3562.435,2727.881,3563.375,2727.47,3565.254,2726.65z"/>
			<path fill="#FFFFFF" d="M3556.717,2699.268c6.235-2.666,9.343-3.994,15.543-6.643c1.01,2.046,1.515,3.07,2.526,5.122
				c-4.433,1.902-6.654,2.856-11.106,4.767c2.039,4.161,3.059,6.247,5.103,10.429c4.396-1.904,6.588-2.853,10.961-4.746
				c1.003,2.043,1.505,3.065,2.509,5.113c-4.372,1.901-6.564,2.854-10.963,4.767c2.134,4.37,3.202,6.561,5.343,10.947
				c4.463-1.958,6.686-2.933,11.118-4.877c1.018,2.074,1.527,3.112,2.547,5.19c-6.198,2.729-9.312,4.101-15.578,6.861
				C3568.726,2723.884,3562.739,2711.568,3556.717,2699.268z"/>
			<path fill="#FFFFFF" d="M3576.863,2690.658c3.425-1.463,5.134-2.193,8.55-3.651c3.691-1.576,8.659-2.667,14.213,1.035
				c3.61,2.407,6.62,6.321,9.018,10.934c4.218,8.113,5.322,20.194-4.93,24.456c-3.518,1.548-5.281,2.324-8.819,3.881
				C3588.891,2715.091,3582.894,2702.866,3576.863,2690.658z M3596.747,2720.203c1.861-0.816,2.791-1.223,4.647-2.037
				c6.46-2.831,6.701-9.625,2.969-17.216c-1.721-3.5-4.081-6.591-6.802-8.338c-2.489-1.597-5.529-2.264-9.068-0.746
				c-1.878,0.805-2.817,1.208-4.698,2.015C3588.121,2702.651,3592.435,2711.427,3596.747,2720.203z"/>
			<path fill="#FFFFFF" d="M3603.823,2679.149c6.143-2.621,9.208-3.928,15.329-6.537c0.99,2.019,1.484,3.03,2.475,5.056
				c-4.368,1.87-6.554,2.807-10.935,4.683c2.016,4.099,3.024,6.156,5.045,10.277c4.307-1.862,6.457-2.79,10.749-4.644
				c0.984,2.017,1.476,3.027,2.461,5.049c-4.283,1.858-6.429,2.789-10.73,4.656c2.111,4.308,3.168,6.468,5.287,10.793
				c4.345-1.903,6.512-2.851,10.837-4.744c0.999,2.049,1.499,3.075,2.5,5.127c-6.037,2.653-9.065,3.984-15.147,6.658
				C3615.741,2703.397,3609.799,2691.265,3603.823,2679.149z"/>
			<path fill="#FFFFFF" d="M3652.826,2701.842c-1.854,0.814-2.782,1.222-4.639,2.038c-2.161-13.642-4.281-27.289-6.315-40.95
				c1.575-0.671,2.363-1.006,3.937-1.677c9.391,10.411,18.722,20.872,28.016,31.37c-1.841,0.808-2.763,1.213-4.606,2.022
				c-2.641-2.995-3.962-4.491-6.606-7.478c-4.577,1.995-6.868,2.995-11.46,4.997
				C3651.815,2696.029,3652.149,2697.965,3652.826,2701.842z M3646.86,2668.796c1.266,7.25,1.909,10.893,3.219,18.205
				c3.669-1.594,5.501-2.39,9.162-3.979C3654.297,2677.31,3651.822,2674.462,3646.86,2668.796z"/>
			<path fill="#FFFFFF" d="M3659.814,2655.289c1.733-0.738,2.6-1.107,4.333-1.844c4.834,10.305,9.658,20.615,14.48,30.925
				c3.76-1.643,5.638-2.464,9.391-4.104c0.941,2.035,1.413,3.054,2.357,5.093c-5.432,2.383-8.151,3.577-13.6,5.968
				C3671.122,2679.315,3665.484,2667.295,3659.814,2655.289z"/>
			<path fill="#FFFFFF" d="M3676.366,2648.245c3.066-1.305,4.599-1.957,7.664-3.26c4.253-1.809,6.82-1.941,8.818-1.284
				c3.051,1.002,6.122,4.109,7.925,8.128c1.129,2.517,1.688,5.197,1.547,7.497c-0.193,3.149-1.554,4.799-3.39,6.179
				c4.937,4.269,7.398,6.411,12.307,10.704c-1.787,0.784-2.681,1.176-4.469,1.96c-5.865-5.268-8.805-7.896-14.709-13.126
				c0.376-0.163,0.564-0.244,0.941-0.407c1.845-0.798,4.061-1.877,4.65-3.872c0.582-1.971,0.247-4.343-0.802-6.669
				c-1.093-2.423-3.058-4.456-5.03-5.062c-1.574-0.484-3.193-0.019-5.129,0.808c-1.476,0.631-2.214,0.946-3.691,1.577
				c4.73,10.318,9.454,20.638,14.183,30.957c-1.689,0.741-2.535,1.112-4.225,1.854
				C3687.424,2672.234,3681.91,2660.233,3676.366,2648.245z"/>
			<path fill="#FFFFFF" d="M3698.842,2638.685c6.07-2.581,9.105-3.872,15.179-6.453c0.874,1.997,1.311,2.997,2.186,5.001
				c-4.327,1.847-6.489,2.771-10.814,4.618c1.798,4.049,2.699,6.08,4.504,10.153c4.236-1.825,6.353-2.738,10.59-4.563
				c0.87,1.996,1.306,2.996,2.178,4.998c-4.222,1.827-6.332,2.74-10.552,4.566c1.887,4.259,2.832,6.394,4.731,10.672
				c4.246-1.854,6.369-2.781,10.616-4.635c0.886,2.03,1.33,3.047,2.219,5.081c-5.918,2.595-8.876,3.892-14.794,6.487
				C3709.532,2662.637,3704.201,2650.654,3698.842,2638.685z"/>
			<path fill="#FFFFFF" d="M3718.533,2630.314c3.36-1.428,5.041-2.143,8.403-3.572c3.634-1.544,8.487-2.618,13.588,1.016
				c3.316,2.363,6.023,6.055,7.984,10.753c4.366,10.462,3.344,19.888-5.958,23.967c-3.392,1.487-5.086,2.23-8.475,3.716
				C3728.888,2654.237,3723.724,2642.269,3718.533,2630.314z M3736.107,2659.266c1.794-0.783,2.692-1.175,4.487-1.959
				c6.248-2.728,6.845-9.403,3.709-16.865c-1.446-3.44-3.526-6.481-6.03-8.197c-2.29-1.569-5.173-2.224-8.648-0.741
				c-1.843,0.787-2.765,1.18-4.608,1.967C3728.716,2642.068,3732.408,2650.668,3736.107,2659.266z"/>
			<path fill="#FFFFFF" d="M3745.126,2619.013c6.091-2.588,9.14-3.883,15.246-6.477c0.808,1.989,1.213,2.985,2.023,4.982
				c-4.351,1.857-6.525,2.784-10.868,4.638c1.665,4.035,2.499,6.059,4.171,10.119c4.254-1.832,6.384-2.749,10.647-4.585
				c0.806,1.99,1.209,2.986,2.018,4.981c-4.25,1.838-6.372,2.756-10.612,4.59c1.749,4.246,2.626,6.375,4.387,10.642
				c4.267-1.863,6.403-2.795,10.681-4.662c0.822,2.024,1.234,3.038,2.06,5.066c-5.964,2.615-8.939,3.919-14.881,6.524
				C3755.031,2642.894,3750.091,2630.948,3745.126,2619.013z"/>
			<path fill="#FFFFFF" d="M3764.91,2610.608c3.381-1.436,5.072-2.155,8.459-3.593c3.66-1.555,8.524-2.644,13.501,0.952
				c3.237,2.339,5.834,6.005,7.656,10.682c4.058,10.411,2.751,19.838-6.654,23.961c-3.429,1.503-5.14,2.254-8.559,3.753
				C3774.5,2634.448,3769.717,2622.523,3764.91,2610.608z M3781.54,2639.432c1.811-0.791,2.718-1.186,4.532-1.978
				c6.313-2.756,7.109-9.427,4.198-16.856c-1.342-3.425-3.331-6.448-5.775-8.146c-2.236-1.553-5.089-2.194-8.591-0.7
				c-1.858,0.793-2.786,1.189-4.642,1.981C3775.345,2623.935,3777.392,2629.085,3781.54,2639.432z"/>
			<path fill="#FFFFFF" d="M3797.451,2617.667c-3.576-8.712-2.1-20.57,7.174-24.701c8.032-3.578,17.538,1.962,21.402,12.139
				c3.312,8.722,1.736,20.557-7.315,24.775c-7.907,3.685-17.423-2.334-21.241-12.165
				C3797.462,2617.696,3797.458,2617.686,3797.451,2617.667z M3801.681,2615.616c2.865,7.416,9.4,11.712,15.204,9.176
				c5.914-2.584,7.39-10.838,4.776-17.746c-2.633-6.956-9.078-11.719-15.104-9.149c-5.989,2.554-7.666,10.497-4.894,17.671
				C3801.67,2615.587,3801.673,2615.596,3801.681,2615.616z"/>
			<path fill="#FFFFFF" d="M3823.31,2585.802c3.135-1.331,4.704-1.998,7.847-3.333c4.361-1.853,6.926-2.025,8.853-1.413
				c2.95,0.937,5.755,3.946,7.222,7.883c0.919,2.466,1.254,5.107,0.918,7.386c-0.461,3.124-1.966,4.787-3.921,6.191
				c4.574,4.133,6.863,6.204,11.459,10.347c-1.874,0.823-2.81,1.233-4.678,2.053c-5.453-5.1-8.169-7.649-13.597-12.729
				c0.389-0.168,0.583-0.252,0.972-0.42c1.906-0.825,4.211-1.934,4.97-3.924c0.749-1.964,0.616-4.305-0.235-6.586
				c-0.886-2.376-2.677-4.351-4.582-4.914c-1.525-0.451-3.17,0.036-5.16,0.885c-1.517,0.647-2.275,0.971-3.79,1.617
				c3.807,10.153,7.617,20.305,11.44,30.452c-1.753,0.769-2.628,1.153-4.376,1.92
				C3832.185,2609.419,3827.757,2597.607,3823.31,2585.802z"/>
			<path fill="#FFFFFF" d="M3857.575,2571.246c3.48-1.479,5.223-2.219,8.717-3.704c3.775-1.604,8.763-2.77,13.722,0.639
				c3.231,2.222,5.725,5.872,7.49,10.307c3.518,8.843,1.925,19.823-7.848,23.851c-3.615,1.588-5.417,2.379-9.008,3.956
				C3866.269,2594.62,3861.93,2582.93,3857.575,2571.246z M3873.264,2599.368c1.901-0.831,2.853-1.247,4.76-2.081
				c6.637-2.902,7.736-9.519,5.019-16.76c-1.253-3.339-3.188-6.264-5.623-7.875c-2.231-1.476-5.117-2.041-8.741-0.494
				c-1.922,0.821-2.883,1.231-4.801,2.05C3867.599,2584.186,3869.466,2589.228,3873.264,2599.368z"/>
			<path fill="#FFFFFF" d="M3885.252,2559.483c6.371-2.708,9.569-4.068,15.991-6.798c0.736,1.906,1.105,2.861,1.843,4.775
				c-4.599,1.965-6.891,2.945-11.461,4.897c1.478,3.889,2.218,5.841,3.705,9.758c4.518-1.949,6.785-2.927,11.337-4.891
				c0.736,1.91,1.104,2.866,1.843,4.782c-4.559,1.977-6.829,2.961-11.353,4.921c1.557,4.099,2.339,6.155,3.914,10.279
				c4.596-2.011,6.904-3.021,11.543-5.052c0.754,1.946,1.132,2.921,1.891,4.872c-6.499,2.858-9.725,4.276-16.136,7.093
				C3893.974,2582.582,3889.622,2571.029,3885.252,2559.483z"/>
			<path fill="#FFFFFF" d="M3906.136,2550.604c1.835-0.78,2.754-1.171,4.593-1.953c3.828,9.767,7.645,19.538,11.482,29.301
				c4.123-1.806,6.194-2.712,10.354-4.535c0.772,1.923,1.159,2.886,1.936,4.814c-6.058,2.665-9.065,3.988-15.041,6.616
				C3914.997,2573.441,3910.576,2562.019,3906.136,2550.604z"/>
			<path fill="#FFFFFF" d="M3950.324,2571.266c-2.077,0.914-3.112,1.37-5.179,2.28c-0.578-12.928-1.142-25.858-1.775-38.783
				c1.699-0.723,2.549-1.085,4.252-1.81c8.761,9.36,17.602,18.646,26.583,27.795c-2.126,0.937-3.186,1.404-5.301,2.336
				c-2.549-2.652-3.814-3.979-6.328-6.633c-5.167,2.259-7.734,3.381-12.842,5.613
				C3949.969,2565.731,3950.086,2567.572,3950.324,2571.266z M3947.912,2540.032c0.53,6.801,0.788,10.234,1.305,17.152
				c4.064-1.768,6.104-2.656,10.203-4.441C3954.767,2547.652,3952.469,2545.108,3947.912,2540.032z"/>
			<path fill="#FFFFFF" d="M3965.989,2525.132c3.672,8.047,5.512,12.113,9.238,20.302c0.928,2.039,1.734,3.819,3.73,5.238
				c1.625,1.155,3.828,1.472,5.962,0.535s3.331-2.768,3.507-4.576c0.224-2.306-0.561-4.163-1.559-6.266
				c-3.844-8.096-5.742-12.115-9.531-20.066c1.896-0.808,2.846-1.213,4.749-2.023c3.842,7.91,5.767,11.908,9.664,19.963
				c2.109,4.253,2.915,7.881,1.428,11.421c-1.048,2.497-2.987,4.792-6.06,6.147c-2.23,0.984-5.775,1.62-8.808,0.447
				c-4.219-1.631-6.183-4.681-7.934-8.706c-3.681-8.227-5.499-12.312-9.127-20.396
				C3963.142,2526.344,3964.09,2525.941,3965.989,2525.132z"/>
			<path fill="#FFFFFF" d="M3987.95,2515.775c1.926-0.821,2.89-1.232,4.822-2.055c4.607,9.073,9.196,18.157,13.797,27.234
				c4.461-1.96,6.704-2.945,11.215-4.928c0.947,1.778,1.422,2.669,2.374,4.453c-6.601,2.914-9.872,4.358-16.36,7.221
				C3998.501,2537.065,3993.24,2526.412,3987.95,2515.775z"/>
			<path fill="#FFFFFF" d="M4026.317,2537.758c-2.244,0.991-3.362,1.485-5.593,2.47c-1.208-12.243-2.539-24.475-4.108-36.677
				c1.78-0.759,2.671-1.14,4.456-1.901c10.2,8.436,20.556,16.686,31.105,24.682c-2.307,1.02-3.457,1.528-5.75,2.542
				c-3.003-2.349-4.489-3.527-7.435-5.886c-5.557,2.438-8.316,3.647-13.798,6.05
				C4025.651,2532.507,4025.875,2534.251,4026.317,2537.758z M4021.878,2508.294c1.031,6.38,1.523,9.611,2.481,16.141
				c4.345-1.896,6.528-2.85,10.918-4.767C4029.83,2515.127,4027.155,2512.85,4021.878,2508.294z"/>
			<path fill="#FFFFFF" d="M4061.782,2522.085c-1.985,0.878-2.975,1.316-4.949,2.189c-1.348-2.125-2.019-3.186-3.358-5.302
				c1.951-0.858,2.928-1.288,4.889-2.15C4059.727,2518.922,4060.41,2519.975,4061.782,2522.085z"/>
			<path fill="#FFFFFF" d="M3580.376,2761.878c4.559,9.326,6.852,13.993,11.477,23.296c1.151,2.316,2.155,4.328,4.273,6.016
				c1.725,1.372,3.905,1.857,5.854,0.966s2.875-2.804,2.828-4.805c-0.059-2.525-1.031-4.643-2.237-7.05
				c-4.644-9.267-6.946-13.916-11.521-23.204c1.769-0.792,2.651-1.188,4.413-1.976c4.58,9.274,6.883,13.916,11.533,23.169
				c2.504,4.89,3.692,8.975,2.709,12.737c-0.701,2.683-2.261,5.039-5.053,6.319c-2.027,0.929-5.368,1.413-8.494-0.059
				c-4.309-2.028-6.637-5.492-8.846-10.048c-4.614-9.319-6.901-13.995-11.45-23.338
				C3577.671,2763.09,3578.574,2762.685,3580.376,2761.878z"/>
			<path fill="#FFFFFF" d="M3633.233,2772.545c-4.762-9.31-9.472-18.646-14.146-28c1.683-0.753,2.522-1.129,4.2-1.879
				c6.105,12.3,12.272,24.568,18.544,36.784c-1.581,0.724-2.373,1.087-3.96,1.814c-9.542-7.16-19.054-14.359-28.546-21.586
				c4.713,9.398,9.47,18.773,14.284,28.119c-1.703,0.78-2.557,1.171-4.269,1.956c-6.28-12.291-12.46-24.633-18.58-37.004
				c1.663-0.745,2.494-1.117,4.151-1.859C3614.332,2758.133,3623.771,2765.354,3633.233,2772.545z"/>
			<path fill="#FFFFFF" d="M3649.412,2775.976c-1.859,0.851-2.79,1.278-4.658,2.134c-2.545-13.898-5.015-27.806-7.416-41.73
				c1.558-0.697,2.336-1.045,3.891-1.74c9.673,10.61,19.367,21.2,29.101,31.755c-1.823,0.835-2.736,1.253-4.566,2.091
				c-2.765-2.995-4.145-4.495-6.903-7.498c-4.539,2.068-6.819,3.107-11.405,5.197
				C3648.231,2770.103,3648.622,2772.062,3649.412,2775.976z M3642.491,2742.379c1.47,7.424,2.218,11.141,3.741,18.569
				c3.656-1.661,5.477-2.489,9.106-4.137C3650.188,2751.048,3647.62,2748.159,3642.491,2742.379z"/>
			<path fill="#FFFFFF" d="M3680.986,2748.245c3.007,5.348,6.303,5.175,7.672,4.549c2.318-1.059,3.039-4.531,1.431-7.785
				c-1.997-4.042-5.008-3.96-9.127-4.067c-2.455-0.064-8.143-0.086-11.524-6.929c-3.357-6.795-0.954-12.398,3.186-14.247
				c3.39-1.514,8.846-0.84,12.791,6.517c-1.641,0.738-2.463,1.108-4.108,1.848c-1.242-1.848-3.409-4.721-6.435-3.365
				c-2.136,0.958-3.006,3.815-1.484,6.927c1.739,3.557,4.297,3.426,9.409,3.834c4.087,0.326,8.342,1.404,11.252,7.318
				c2.91,5.914,2.649,12.318-2.888,14.855c-5.152,2.36-10.722-0.547-14.315-7.573
				C3678.505,2749.373,3679.332,2748.997,3680.986,2748.245z"/>
			<path fill="#FFFFFF" d="M3692.745,2734.038c-4.191-8.067-4.633-21.225,4.493-25.262c9.018-3.989,18.685,4.661,22.519,12.797
				c3.737,7.929,4.419,21.04-4.41,25.045c-8.786,3.985-18.686-4.378-22.577-12.531
				C3692.76,2734.068,3692.755,2734.058,3692.745,2734.038z M3696.759,2731.981c3.677,7.593,10.709,11.98,16.189,9.477
				c5.584-2.551,6.078-10.88,2.72-17.974c-3.382-7.143-10.267-12.159-15.979-9.6c-5.677,2.544-6.511,10.702-2.953,18.048
				C3696.745,2731.951,3696.75,2731.961,3696.759,2731.981z"/>
			<path fill="#FFFFFF" d="M3715.206,2701.587c1.662-0.742,2.494-1.113,4.155-1.855c4.806,10.46,9.654,20.896,14.555,31.312
				c3.6-1.644,5.399-2.465,8.995-4.107c0.958,2.046,1.439,3.068,2.404,5.113c-5.205,2.384-7.808,3.577-13.023,5.966
				C3726.486,2725.924,3720.807,2713.774,3715.206,2701.587z"/>
			<path fill="#FFFFFF" d="M3750.155,2729.832c-1.757,0.805-2.636,1.208-4.394,2.013c-2.177-13.71-4.246-27.429-6.065-41.192
				c1.505-0.672,2.258-1.008,3.764-1.681c8.87,10.587,17.745,21.169,26.676,31.705c-1.76,0.806-2.639,1.209-4.398,2.015
				c-2.54-3-3.807-4.501-6.337-7.504c-4.365,1.988-6.546,2.982-10.908,4.969C3749.144,2724.029,3749.476,2725.964,3750.155,2729.832
				z M3744.411,2696.622c1.168,7.34,1.775,11.014,3.042,18.357c3.49-1.585,5.235-2.377,8.726-3.962
				C3751.46,2705.259,3749.109,2702.378,3744.411,2696.622z"/>
			<path fill="#FFFFFF" d="M3762.131,2680.638c1.721-0.769,2.582-1.153,4.305-1.922c6.693,8.655,13.397,17.299,20.121,25.929
				c-1.736-10.892-3.38-21.788-4.942-32.706c1.731-0.773,2.597-1.16,4.331-1.934c1.702,13.628,3.601,27.233,5.736,40.8
				c-1.619,0.742-2.428,1.113-4.044,1.853C3779.085,2702.024,3770.601,2691.337,3762.131,2680.638z"/>
			<path fill="#FFFFFF" d="M3793.733,2688.331c-3.789-8.442-3.366-20.849,5.831-25.218c7.631-3.625,17.206,2.227,21.508,12.606
				c3.475,8.385,3.096,20.707-5.851,25.118c-7.488,3.692-17.222-2.428-21.467-12.458
				C3793.745,2688.361,3793.741,2688.351,3793.733,2688.331z M3797.763,2686.272c3.185,7.57,9.831,11.947,15.379,9.411
				c5.653-2.584,6.649-10.943,3.746-18.011c-2.924-7.117-9.442-12.064-15.217-9.476c-5.739,2.572-7.009,10.703-3.928,18.027
				C3797.751,2686.243,3797.755,2686.253,3797.763,2686.272z"/>
			<path fill="#FFFFFF" d="M3833.546,2685.539c4.649-2.125,6.984-3.192,11.679-5.338c0.839,2.036,1.26,3.055,2.107,5.091
				c-6.743,3.093-10.086,4.626-16.732,7.673c-0.629-1.491-0.943-2.237-1.567-3.728c0.09-10.925,0.283-21.833,0.574-32.755
				c-4.826,2.164-7.228,3.242-12.016,5.389c-0.815-2.037-1.222-3.056-2.031-5.091c6.717-3,10.091-4.508,16.881-7.541
				c0.702,1.796,1.055,2.695,1.762,4.492C3833.843,2664.33,3833.62,2674.934,3833.546,2685.539z"/>
			<path fill="#FFFFFF" d="M3855.126,2681.717c-1.579,0.724-2.367,1.086-3.94,1.807c-1.056-2.544-1.58-3.816-2.622-6.36
				c1.576-0.72,2.366-1.08,3.948-1.803C3853.55,2677.903,3854.073,2679.175,3855.126,2681.717z"/>
		</g>
		<path fill="none" d="M4126.249,2578.16c-278.466,129.386-557.121,258.358-835.855,387.166c0-64.009,0-128.019,0-192.028
			c249.813-104.967,500.316-208.271,750.894-311.394C4041.288,2462.904,4126.249,2578.16,4126.249,2578.16z"/>
	</g>
</g>
<g>
	
		<linearGradient id="SVGID_4_" gradientUnits="userSpaceOnUse" x1="1489.2748" y1="1998.2117" x2="2326.4739" y2="1998.2117" gradientTransform="matrix(1 0 0 1 965.325 716.37)">
		<stop  offset="0" style="stop-color:#5A8573"/>
		<stop  offset="0.9944" style="stop-color:#74CF49"/>
	</linearGradient>
	<path fill="url(#SVGID_4_)" d="M2539.562,2461.904l-84.962,116.469c278.814,130.173,558.385,258.714,837.199,388.887v-0.001
		c0,0.001-0.075-196.297-0.075-196.297L2539.562,2461.904z"/>
	<g>
		<path fill="#FFFFFF" d="M2654.351,2588.149c-0.943,4.998,0.004,8.138,3.893,9.873c3.299,1.471,5.626-0.111,6.386-3.559
			c0.961-4.358-3.615-7.422-7.911-11.45c-4.32-4.052-8.492-8.963-6.997-16.84c1.675-8.824,8.003-12.86,16.427-9.318
			c8.185,3.442,11.801,10.04,11.272,19.959c-3.524-1.507-5.285-2.26-8.808-3.769c0.55-3.498-0.831-6.361-3.751-7.602
			c-2.861-1.216-5.038,0.395-5.587,3.257c-0.854,4.452,3.745,7.289,8.094,11.358c4.349,4.069,8.551,9.139,6.503,18.347
			c-2.019,9.077-9.776,12.586-18.061,8.849c-9.929-4.479-12.555-13.094-10.437-23.071
			C2648.964,2585.769,2650.76,2586.563,2654.351,2588.149z"/>
		<path fill="#FFFFFF" d="M2686.623,2566.574c3.635,1.525,5.453,2.286,9.089,3.809c-3.28,16.382-6.637,32.701-10.602,48.933
			c-3.576-1.607-5.364-2.411-8.939-4.019C2680.087,2599.135,2683.388,2582.885,2686.623,2566.574z"/>
		<path fill="#FFFFFF" d="M2703.649,2609.858c-1.031,5.12-0.122,8.311,3.773,10.039c3.304,1.466,5.672-0.172,6.493-3.704
			c1.038-4.465-3.527-7.547-7.794-11.616c-4.291-4.093-8.416-9.07-6.783-17.143c1.829-9.042,8.253-13.216,16.694-9.697
			c8.202,3.42,11.764,10.094,11.073,20.245c-3.529-1.499-5.294-2.249-8.822-3.749c0.61-3.583-0.741-6.491-3.666-7.725
			c-2.866-1.209-5.085,0.461-5.683,3.394c-0.931,4.562,3.661,7.41,7.98,11.52c4.319,4.111,8.468,9.258,6.257,18.693
			c-2.18,9.3-10.095,12.776-18.327,9.208c-9.276-4.02-12.63-14.017-10.185-23.415
			C2698.254,2607.489,2700.052,2608.279,2703.649,2609.858z"/>
		<path fill="#FFFFFF" d="M2739.472,2599.101c-2.962-1.249-4.442-1.874-7.403-3.124c0.78-3.738,1.174-5.635,2.004-9.574
			c9.581,3.99,14.373,5.983,23.96,9.965c-0.858,3.98-1.266,5.898-2.077,9.68c-2.963-1.248-4.444-1.871-7.407-3.12
			c-2.861,13.612-6.027,27.119-9.475,40.593c-3.58-1.603-5.37-2.404-8.949-4.008
			C2733.533,2626.098,2736.654,2612.652,2739.472,2599.101z"/>
		<path fill="#FFFFFF" d="M2763.545,2598.656c8.629,3.582,12.945,5.372,21.577,8.949c-0.89,4.026-1.315,5.968-2.16,9.801
			c-4.972-2.089-7.458-3.134-12.43-5.225c-0.841,3.863-1.252,5.749-2.092,9.521c4.955,2.115,7.432,3.172,12.388,5.285
			c-0.845,3.744-1.269,5.598-2.157,9.361c-4.939-2.138-7.408-3.207-12.345-5.346c-1.108,4.753-1.68,7.14-2.938,12.12
			c4.916,2.169,7.375,3.254,12.292,5.422c-1.006,3.939-1.536,5.952-2.684,10.15c-8.482-3.791-12.723-5.688-21.203-9.481
			C2756.129,2632.443,2759.893,2615.586,2763.545,2598.656z"/>
		<path fill="#FFFFFF" d="M2781.007,2662.274c4.503-17.013,8.452-34.114,12.268-51.292c5.3,2.195,7.95,3.292,13.251,5.485
			c-0.508,11.811-0.861,23.629-1.529,35.433c4.687-10.085,9.271-20.199,13.763-30.372c5.301,2.193,7.952,3.289,13.254,5.48
			c-4.033,17.506-8.223,34.929-12.947,52.263c-3.158-1.41-4.738-2.115-7.896-3.525c3.628-13.369,7.028-26.77,10.11-40.276
			c-5.821,12.339-11.909,24.546-18.005,36.751c-2.592-1.158-3.889-1.737-6.481-2.894c1.062-14.461,1.6-28.862,1.903-43.357
			c-2.978,13.357-6.27,26.609-9.797,39.831C2785.744,2664.39,2784.165,2663.685,2781.007,2662.274z"/>
		<path fill="#FFFFFF" d="M2832.15,2685.112c-3.63-1.62-5.445-2.43-9.074-4.051c8.548-15.704,17.017-31.427,25.133-47.359
			c3.359,1.388,5.038,2.082,8.397,3.47c-0.04,19.5,0.029,38.927-1.003,58.407c-3.63-1.62-5.445-2.43-9.074-4.05
			c0.356-4.758,0.489-7.052,0.701-11.551c-4.02-1.77-6.031-2.655-10.051-4.425C2835.23,2679.263,2834.231,2681.158,2832.15,2685.112
			z M2848.879,2650.995c-2.729,6.27-4.076,9.299-6.913,15.577c2.231,0.968,3.346,1.451,5.577,2.419
			C2848.163,2661.726,2848.395,2658.214,2848.879,2650.995z"/>
		<path fill="#FFFFFF" d="M2871.5,2683.196c-1.348,5.568-0.578,8.952,3.322,10.673c3.309,1.46,5.819-0.376,6.857-4.216
			c1.313-4.854-3.195-8.025-7.338-12.264c-4.169-4.266-8.104-9.515-5.972-18.311c2.388-9.853,9.136-14.503,17.593-11.011
			c8.218,3.393,11.566,10.381,10.295,21.378c-3.534-1.491-5.301-2.237-8.835-3.728c0.825-3.896-0.407-6.976-3.338-8.202
			c-2.871-1.2-5.231,0.675-6.008,3.868c-1.209,4.966,3.336,7.88,7.532,12.169c4.195,4.29,8.138,9.74,5.347,19.996
			c-2.751,10.11-10.982,14.043-19.233,10.468c-9.82-4.255-12.136-15.25-9.229-24.746
			C2866.096,2680.84,2867.897,2681.625,2871.5,2683.196z"/>
		<path fill="#FFFFFF" d="M2923.042,2664.651c5.106,2.115,7.659,3.173,12.764,5.29c6.531,2.708,10.008,7.737,11.638,13.938
			c1.62,6.164,1.269,13.641-0.624,20.945c-2.756,10.633-12.141,26.028-25.466,20.119c-5.136-2.296-7.704-3.443-12.841-5.738
			C2913.751,2701.111,2918.503,2682.931,2923.042,2664.651z M2920.627,2712.389c1.56,0.688,2.34,1.032,3.9,1.72
			c7.268,3.205,11.515-7.625,13.026-13.279c1.356-5.074,1.77-9.557,1.16-13.045c-0.593-3.386-2.126-5.927-5.531-7.358
			c-1.458-0.613-2.186-0.919-3.644-1.532C2926.677,2690.096,2923.719,2701.25,2920.627,2712.389z"/>
		<path fill="#FFFFFF" d="M2960.125,2680.035c8.623,3.583,12.933,5.377,21.55,8.967c-1.119,4.365-1.665,6.488-2.76,10.689
			c-4.964-2.096-7.447-3.143-12.413-5.237c-1.096,4.238-1.639,6.319-2.746,10.482c4.95,2.117,7.425,3.177,12.373,5.296
			c-1.107,4.128-1.666,6.178-2.82,10.327c-4.932-2.143-7.399-3.214-12.333-5.355c-1.448,5.245-2.192,7.878-3.781,13.325
			c4.914,2.171,7.37,3.257,12.282,5.429c-1.266,4.307-1.923,6.498-3.315,11.034c-8.476-3.797-12.715-5.695-21.194-9.488
			C2950.413,2717.107,2955.386,2698.624,2960.125,2680.035z"/>
		<path fill="#FFFFFF" d="M2991.704,2756.443c-3.624-1.626-5.436-2.439-9.061-4.065c9.464-17.017,18.977-34.01,27.86-51.341
			c3.347,1.4,5.021,2.101,8.367,3.503c-0.876,20.849-1.859,41.632-3.758,62.417c-3.622-1.629-5.433-2.443-9.056-4.07
			c0.555-5.035,0.793-7.476,1.218-12.278c-4.011-1.779-6.017-2.669-10.03-4.447
			C2995.086,2750.172,2993.984,2752.213,2991.704,2756.443z M3010.392,2719.489c-3.086,6.801-4.623,10.109-7.83,16.927
			c2.225,0.973,3.338,1.46,5.563,2.434C3009.119,2731.041,3009.544,2727.246,3010.392,2719.489z"/>
		<path fill="#FFFFFF" d="M3048.25,2716.881c4.177,1.759,7.367,4.985,9.059,9.3c1.692,4.315,1.891,9.696,0.245,15.588
			c-1.668,5.969-4.467,9.888-7.925,11.913c-3.458,2.025-7.543,2.059-11.679,0.238c-1.371-0.604-2.056-0.905-3.427-1.508
			c-2.33,7.925-3.544,11.928-6.242,20.471c-3.574-1.609-5.361-2.413-8.936-4.021c5.858-18.977,11.312-38.047,16.369-57.254
			C3040.731,2713.715,3043.238,2714.77,3048.25,2716.881z M3037.599,2741.751c1.328,0.577,1.992,0.865,3.319,1.442
			c1.778,0.772,3.244,0.735,4.428-0.123c1.162-0.842,2.163-2.472,2.947-5.293c0.805-2.897,0.862-4.934,0.338-6.53
			c-0.512-1.557-1.659-2.686-3.444-3.448c-1.333-0.568-2-0.852-3.333-1.421C3040.168,2732.599,3039.333,2735.63,3037.599,2741.751z"
			/>
		<path fill="#FFFFFF" d="M3058.749,2753.273c2.579-10.012,10.849-28.881,24.444-22.883c13.605,6.002,11.011,25.696,7.707,37.052
			c-2.861,9.833-11.886,29.891-25.457,23.546c-13.243-6.191-10.234-26.242-6.716-37.638
			C3058.736,2753.319,3058.741,2753.304,3058.749,2753.273z M3067.936,2757.462c-3.946,13.595-3.448,19.971,1.142,22.025
			c4.59,2.054,8.585-2.348,12.601-16.093c4.016-13.745,3.113-19.875-1.522-21.863c-4.635-1.988-8.232,2.182-12.199,15.853
			C3067.949,2757.416,3067.945,2757.432,3067.936,2757.462z"/>
		<path fill="#FFFFFF" d="M3099.993,2777.97c-0.034-13.147-0.344-26.292-0.616-39.436c3.713,1.582,5.568,2.373,9.279,3.958
			c-0.332,10.841-0.45,15.984-0.843,26.412c5.029-8.397,7.479-12.548,12.493-21.429c3.707,1.588,5.56,2.383,9.265,3.974
			c-6.671,10.299-13.599,20.428-20.615,30.494c-2.807,9.303-4.265,13.973-7.518,23.999c-3.565-1.618-5.348-2.427-8.914-4.044
			C3095.759,2791.898,3097.207,2787.243,3099.993,2777.97z"/>
		<path fill="#FFFFFF" d="M3121.454,2780.814c2.666-9.983,11.142-29.598,24.815-23.468c13.685,6.135,10.635,26.382,7.228,37.766
			c-2.944,9.839-11.994,30.481-25.843,24.126c-13.54-6.213-9.726-27.08-6.223-38.346
			C3121.44,2780.861,3121.445,2780.845,3121.454,2780.814z M3130.609,2785.042c-4.159,13.915-3.745,20.408,0.834,22.476
			c4.578,2.068,8.641-2.432,12.865-16.491c4.224-14.058,3.398-20.307-1.219-22.317s-8.275,2.259-12.456,16.252
			C3130.623,2784.994,3130.618,2785.01,3130.609,2785.042z"/>
	</g>
</g>
<polygon fill="#4A8A55" points="2539.562,2461.904 3291.724,2770.962 4041.288,2461.904 3290.394,2312.647 "/>
</svg>
