<?xml version="1.0" encoding="utf-8"?>
<!-- Generator: Adobe Illustrator 17.0.0, SVG Export Plug-In . SVG Version: 6.00 Build 0)  -->
<!DOCTYPE svg PUBLIC "-//W3C//DTD SVG 1.1//EN" "http://www.w3.org/Graphics/SVG/1.1/DTD/svg11.dtd">
<svg version="1.1" id="Capa_1" xmlns="http://www.w3.org/2000/svg" xmlns:xlink="http://www.w3.org/1999/xlink" x="0px" y="0px"
	 width="566.929px" height="566.929px" viewBox="0 0 566.929 566.929" enable-background="new 0 0 566.929 566.929"
	 xml:space="preserve">
<g>
	<polygon fill="#70A5D4" stroke="#7C96CD" stroke-width="7" stroke-miterlimit="10" points="395.238,195.11 362.055,378.488 
		203.128,347.052 203.128,217.019 272.113,211.273 285.895,184.631 339.351,182.885 349.83,201.26 	"/>
	<polyline fill="#FFFFFF" points="343.12,365.726 370.022,218.125 190.12,240.125 209.12,337.379 339.12,365.726 	"/>
	<polyline fill="#FFFFFF" points="349.465,373.368 376.367,225.767 196.465,247.767 215.465,345.021 345.465,373.368 	"/>
	<polyline fill="#FFFFFF" points="336.154,360.62 363.057,213.019 183.154,235.019 202.154,332.274 332.154,360.62 	"/>
	<polygon fill="#70A5D4" stroke="#7C96CD" stroke-width="7" stroke-miterlimit="10" points="171.692,228.293 203.128,347.052 
		362.055,378.488 335.858,213.019 	"/>
	<g>
		<g>
			<path fill="#7C96CD" d="M246.121,379.976c4.25-13.701,14.342-24.52,18.591-38.222c0.127-0.465,0.176-0.945,0.169-1.431
				c19.255,3.861,39.225-6.31,46.975-25.136c8.795-21.368-1.433-45.907-22.8-54.702c-21.367-8.795-45.906,1.433-54.702,22.8
				c-7.749,18.826-0.725,40.108,15.668,50.922c-0.347,0.34-0.65,0.716-0.887,1.135c-6.627,12.723-7.076,27.511-13.703,40.234
				c-1.693,2.998-0.637,6.428,2.99,7.921C242.048,384.99,245.212,383.297,246.121,379.976z"/>
		</g>
		<g>
			<path fill="#FFFFFF" d="M244.673,287.533c6.453-15.678,24.457-23.182,40.135-16.729c15.678,6.453,23.182,24.457,16.729,40.135
				c-6.453,15.678-24.457,23.182-40.135,16.729C245.724,321.215,238.22,303.211,244.673,287.533z"/>
		</g>
	</g>
</g>
</svg>
