<?xml version="1.0" encoding="utf-8"?>
<!-- Generator: Adobe Illustrator 17.0.0, SVG Export Plug-In . SVG Version: 6.00 Build 0)  -->
<!DOCTYPE svg PUBLIC "-//W3C//DTD SVG 1.1//EN" "http://www.w3.org/Graphics/SVG/1.1/DTD/svg11.dtd">
<svg version="1.1" id="Capa_1" xmlns="http://www.w3.org/2000/svg" xmlns:xlink="http://www.w3.org/1999/xlink" x="0px" y="0px"
	 width="566.929px" height="566.929px" viewBox="0 0 566.929 566.929" enable-background="new 0 0 566.929 566.929"
	 xml:space="preserve">
<g>
	<path fill="#7C96CD" fill-opacity="0.4" d="M456.677,150.728c0.971,14.559,2.491,29.106,2.803,43.678
		c0.701,32.687-32.105,55.652-64.046,46.11c-6.113-1.826-14.464-1.113-20.213,1.672c-22.334,10.814-46.264,5.793-62.351-13.5
		c-3.683-4.416-9.745-8.249-15.33-9.436c-23.066-4.904-39.52-22.65-40.947-45.798c-1.345-21.809,12.89-42.478,35.088-48.482
		c9.124-2.468,13.691-6.749,17.807-15.273c13.766-28.506,50.746-34.028,75.7-12.986c4.39,3.702,12.058,6.049,17.715,5.293
		C432.399,98.057,459.83,120.973,456.677,150.728z"/>
	<g>
		<path fill="#7C96CD" d="M270.319,452.422c-0.762-17.79-1.168-35.979-5.242-53.168c-8.634-36.438-29.514-56.387-63.212-61.365
			c20.738-6.064,36.474-25.251,37.166-47.872c0.853-27.858-22.417-51.81-50.589-52.07c-27.938-0.256-50.582,21.775-51.089,49.706
			c-0.428,23.594,14.611,43.513,35.716,49.999c-17.461,2.672-32.767,11.059-44.645,26.792
			c-11.258,14.911-17.601,32.06-19.686,50.289c-1.638,14.327-1.644,29.032-0.485,43.417c0.721,8.963,10.29,14.124,19.027,12.86
			c8.378-1.211,12.191-6.211,12.233-16.204c0.038-8.806-0.786-17.698,0.166-26.4c1.147-10.475,3.77-20.79,5.754-31.174
			c0.755,0.175,1.509,1.473,2.263,1.648c0,39.034,1.146,55.678,1.593,84.066h80.125c-0.891-23.158-1.739-47.958-2.233-79.6
			c-0.048-3.033-0.007-6.629-0.007-9.663c0.83-0.081,1.659-0.44,2.489-0.521c1.574,4.803,4.07,9.376,4.551,14.286
			c1.596,16.243,2.596,32.479,3.563,48.777c0.58,9.784,6.203,15.457,15.444,14.97C263.154,470.676,270.795,463.521,270.319,452.422z
			"/>
	</g>
	<path fill="none" stroke="#7C96CD" stroke-width="12" stroke-miterlimit="10" d="M452.818,150.728
		c0.971,14.559,2.491,29.106,2.803,43.678c0.701,32.687-32.105,55.652-64.046,46.11c-6.113-1.826-14.464-1.113-20.213,1.672
		c-22.334,10.814-46.264,5.793-62.351-13.5c-3.683-4.416-9.745-8.249-15.33-9.436c-23.066-4.904-39.52-22.65-40.947-45.798
		c-1.345-21.809,12.89-42.478,35.088-48.482c9.124-2.468,13.691-6.749,17.807-15.273c13.766-28.506,50.745-34.028,75.7-12.986
		c4.39,3.702,12.058,6.049,17.715,5.293C428.54,98.057,455.971,120.973,452.818,150.728z"/>
	<path fill="none" stroke="#7C96CD" stroke-width="12" stroke-miterlimit="10" d="M416.904,156.245
		c0.618,9.26,1.584,18.513,1.783,27.781c0.446,20.791-20.421,35.398-40.737,29.328c-3.888-1.161-9.2-0.708-12.856,1.064
		c-14.206,6.878-29.426,3.685-39.658-8.586c-2.342-2.809-6.198-5.247-9.751-6.002c-14.672-3.119-25.137-14.406-26.044-29.13
		c-0.856-13.872,8.199-27.018,22.318-30.837c5.803-1.57,8.708-4.293,11.326-9.714c8.756-18.131,32.277-21.643,48.149-8.26
		c2.793,2.355,7.669,3.848,11.268,3.366C401.462,122.743,418.91,137.319,416.904,156.245z"/>
	<path fill="none" stroke="#7C96CD" stroke-width="12" stroke-miterlimit="10" d="M383.024,161.449
		c0.284,4.261,0.729,8.52,0.821,12.785c0.205,9.568-9.398,16.29-18.747,13.497c-1.789-0.534-4.234-0.326-5.916,0.489
		c-6.537,3.165-13.542,1.696-18.251-3.951c-1.078-1.293-2.852-2.415-4.487-2.762c-6.752-1.435-11.568-6.63-11.985-13.405
		c-0.394-6.384,3.773-12.434,10.271-14.191c2.671-0.722,4.007-1.975,5.212-4.471c4.029-8.344,14.854-9.96,22.158-3.801
		c1.285,1.084,3.529,1.771,5.185,1.549C375.918,146.032,383.947,152.739,383.024,161.449z"/>
	<circle fill="#7C96CD" cx="357.999" cy="166.624" r="9"/>
	<circle fill="#7C96CD" cx="281.175" cy="247.79" r="18.172"/>
	<circle fill="#7C96CD" cx="252.648" cy="274.291" r="8.333"/>
</g>
</svg>
