<?xml version="1.0" encoding="utf-8"?>
<!-- Generator: Adobe Illustrator 17.0.0, SVG Export Plug-In . SVG Version: 6.00 Build 0)  -->
<!DOCTYPE svg PUBLIC "-//W3C//DTD SVG 1.1//EN" "http://www.w3.org/Graphics/SVG/1.1/DTD/svg11.dtd">
<svg version="1.1" id="Capa_1" xmlns="http://www.w3.org/2000/svg" xmlns:xlink="http://www.w3.org/1999/xlink" x="0px" y="0px"
	 width="566.929px" height="566.929px" viewBox="0 0 566.929 566.929" enable-background="new 0 0 566.929 566.929"
	 xml:space="preserve">
<g>
	<g>
		<g id="NavVlQ_1_">
			<g>
				<path fill="#7C96CD" d="M176.607,416.447c-0.503,2.918-1.391,5.829-1.451,8.757c-0.736,35.826,0.664,33.799-0.565,69.608
					c-0.206,6-2.885,13.032-6.802,17.5c-4.708,5.37-12.283,5.556-19.198,2.363c-7.377-3.406-9.029-9.924-8.892-17.13
					c0.442-23.217,1.397-46.43,1.512-69.648c0.241-48.678-1.648-59.491-1.648-108.17c-0.712-0.166-1.424-0.332-2.136-0.498
					c-1.873,9.8-4.348,19.534-5.431,29.42c-0.899,8.212-0.122,16.603-0.157,24.914c-0.04,9.432-3.638,14.15-11.545,15.293
					c-8.245,1.192-17.275-3.679-17.956-12.137c-1.093-13.576-1.088-27.454,0.458-40.975c1.967-17.204,7.953-33.388,18.578-47.46
					c15.21-20.145,36.369-27.543,60.49-25.997c37.014,2.373,59.597,21.381,68.475,58.846c3.844,16.221,4.228,33.387,4.947,50.176
					c0.448,10.474-6.763,17.194-16.134,17.688c-8.721,0.46-14.028-4.928-14.575-14.161c-0.912-15.381-1.856-30.77-3.362-46.099
					c-0.455-4.634-2.81-9.081-4.295-13.614c-0.783,0.076-1.566,0.151-2.349,0.227c0,2.864-0.039,5.728,0.006,8.591
					c1.06,67.928,3.85,97.989,4.915,165.917c0.036,2.293,0.084,4.587,0.071,6.88c-0.074,12.462-5.271,19.014-15.597,19.695
					c-10.921,0.721-18.963-6.035-19.37-18.255c-1.183-35.526-3.404-33.21-4.145-68.75c-0.087-4.179-0.012-8.362-0.012-12.543
					C179.163,416.739,177.885,416.593,176.607,416.447z"/>
				<path fill="#7C96CD" d="M129.801,215.812c0.478-26.359,21.848-47.151,48.214-46.909c26.587,0.244,48.549,22.849,47.743,49.14
					c-0.798,26.068-22.759,47.317-48.644,47.066C150.392,264.85,129.31,242.885,129.801,215.812z"/>
			</g>
		</g>
	</g>
	<g>
		<g id="NavVlQ_2_">
			<g>
				<path fill="#7C96CD" d="M352.425,446.537c-0.39,2.264-1.079,4.522-1.126,6.794c-0.571,27.794,0.515,26.221-0.438,54.001
					c-0.16,4.655-2.238,10.11-5.277,13.576c-3.652,4.166-9.529,4.31-14.894,1.833c-5.723-2.642-7.005-7.699-6.898-13.289
					c0.343-18.012,1.084-36.02,1.173-54.032c0.187-37.764-1.279-46.153-1.279-83.918c-0.552-0.129-1.105-0.258-1.657-0.386
					c-1.453,7.603-3.373,15.154-4.213,22.824c-0.697,6.371-0.095,12.88-0.122,19.328c-0.031,7.317-2.822,10.977-8.957,11.864
					c-6.396,0.925-13.402-2.854-13.93-9.416c-0.848-10.532-0.844-21.299,0.355-31.788c1.526-13.347,6.17-25.902,14.413-36.819
					c11.8-15.628,28.215-21.368,46.928-20.168c28.715,1.841,46.235,16.587,53.122,45.652c2.982,12.584,3.28,25.901,3.838,38.926
					c0.348,8.126-5.247,13.339-12.517,13.722c-6.766,0.357-10.883-3.823-11.307-10.986c-0.708-11.932-1.44-23.871-2.608-35.763
					c-0.353-3.595-2.18-7.045-3.332-10.562c-0.607,0.059-1.215,0.117-1.822,0.176c0,2.222-0.03,4.444,0.005,6.665
					c0.822,52.698,2.987,76.019,3.813,128.717c0.028,1.779,0.065,3.559,0.055,5.337c-0.057,9.668-4.089,14.751-12.1,15.279
					c-8.472,0.559-14.711-4.682-15.027-14.162c-0.918-27.561-2.641-25.764-3.216-53.336c-0.068-3.242-0.009-6.487-0.009-9.731
					C354.408,446.764,353.417,446.65,352.425,446.537z"/>
				<path fill="#7C96CD" d="M316.113,290.886c0.371-20.449,16.95-36.579,37.404-36.392c20.626,0.189,37.664,17.726,37.039,38.122
					c-0.619,20.223-17.656,36.708-37.738,36.513C332.088,328.929,315.733,311.889,316.113,290.886z"/>
			</g>
		</g>
	</g>
	<path fill="#7C96CD" d="M372.601,83.393c0.594,8.907,1.524,17.807,1.715,26.722c0.429,19.998-19.642,34.048-39.183,28.21
		c-3.74-1.117-8.849-0.681-12.366,1.023c-13.664,6.616-28.304,3.544-38.146-8.259c-2.253-2.702-5.962-5.047-9.379-5.773
		c-14.112-3-24.178-13.857-25.051-28.019c-0.823-13.343,7.886-25.988,21.467-29.661c5.582-1.51,8.376-4.129,10.894-9.344
		c8.422-17.44,31.046-20.818,46.313-7.945c2.686,2.265,7.377,3.701,10.838,3.238C357.748,51.169,374.53,65.189,372.601,83.393z"/>
	<ellipse fill="#7C96CD" cx="258.847" cy="151.256" rx="20.999" ry="19.032"/>
	<ellipse fill="#7C96CD" cx="233.215" cy="185.506" rx="11.585" ry="10.5"/>
	<path fill="#7C96CD" d="M530.102,144.002c0.594,8.907,1.524,17.807,1.715,26.722c0.429,19.998-19.642,34.048-39.183,28.21
		c-3.74-1.117-8.849-0.681-12.366,1.023c-13.664,6.616-28.304,3.544-38.146-8.259c-2.253-2.702-5.962-5.047-9.379-5.773
		c-14.112-3-24.178-13.857-25.051-28.019c-0.823-13.343,7.886-25.988,21.467-29.661c5.582-1.51,8.376-4.129,10.894-9.344
		c8.422-17.44,31.046-20.818,46.313-7.945c2.686,2.265,7.377,3.701,10.838,3.238C515.249,111.778,532.031,125.798,530.102,144.002z"
		/>
	<ellipse fill="#7C96CD" cx="423.036" cy="217.006" rx="20.999" ry="19.032"/>
	<ellipse fill="#7C96CD" cx="390.716" cy="256.615" rx="11.585" ry="10.5"/>
	<g>
		<path fill="#FFFFFF" d="M327.008,89.028c3.454,0,6.782,0.007,10.108-0.003c1.694-0.005,3.388-0.083,5.082-0.054
			c2.105,0.036,3.07,1.062,3.094,3.166c0.019,1.704,0.224,3.483-1.976,4.388c1.443,0.816,2.112,1.908,1.992,3.46
			c-0.117,1.525-0.889,2.505-1.966,2.92c0.181,1.409,0.463,2.693,0.481,3.98c0.022,1.586-1.174,2.298-2.085,2.62
			c0.323,1.324,0.802,2.51,0.864,3.716c0.106,2.039-1.047,3.134-3.121,3.146c-10.601,0.063-21.203,0.1-31.805,0.143
			c-0.283,0.001-0.567-0.042-0.999-0.076c-0.033-0.494-0.091-0.955-0.091-1.417c-0.005-8.133,0.016-16.267-0.022-24.401
			c-0.006-1.422,0.4-2.226,1.857-2.766c3.443-1.277,6.108-3.513,8.384-6.512c3.08-4.059,3.994-8.827,5.406-13.464
			c0.566-1.859,0.6-1.889,2.51-1.455c1.877,0.427,3.181,1.602,3.635,3.38c0.41,1.606,0.648,3.354,0.484,4.99
			c-0.431,4.282-1.126,8.538-1.709,12.805C327.068,88.058,327.049,88.528,327.008,89.028z"/>
		<path fill="#FFFFFF" d="M286.897,102.667c0.001-4.648-0.005-9.295,0.004-13.943c0.004-1.973,0.528-2.505,2.499-2.494
			c3.969,0.022,7.939,0.008,11.904,0.137c1.889,0.061,2.433,0.738,2.505,2.649c0.057,1.499,0.013,3.003,0.013,4.504
			c0,7.748-0.003,15.497,0.001,23.244c0.001,1.716-0.606,2.36-2.367,2.367c-4.068,0.016-8.136,0.015-12.205,0
			c-1.747-0.007-2.344-0.605-2.35-2.371C286.885,112.063,286.895,107.364,286.897,102.667z"/>
	</g>
	<g>
		<path fill="#FFFFFF" d="M484.151,149.637c3.454,0,6.782,0.007,10.108-0.003c1.694-0.005,3.388-0.083,5.082-0.054
			c2.105,0.036,3.07,1.062,3.094,3.166c0.019,1.704,0.224,3.483-1.976,4.388c1.443,0.816,2.112,1.908,1.992,3.46
			c-0.117,1.525-0.889,2.505-1.966,2.92c0.181,1.409,0.463,2.693,0.481,3.98c0.022,1.586-1.174,2.298-2.085,2.62
			c0.323,1.324,0.802,2.51,0.864,3.716c0.106,2.039-1.047,3.134-3.121,3.146c-10.601,0.063-21.203,0.1-31.805,0.143
			c-0.283,0.001-0.567-0.042-0.999-0.076c-0.033-0.494-0.091-0.955-0.091-1.417c-0.005-8.133,0.016-16.267-0.022-24.401
			c-0.006-1.422,0.4-2.226,1.857-2.766c3.443-1.277,6.108-3.513,8.384-6.512c3.08-4.059,3.994-8.827,5.406-13.464
			c0.566-1.859,0.6-1.889,2.51-1.455c1.877,0.427,3.181,1.602,3.635,3.38c0.41,1.606,0.648,3.354,0.484,4.99
			c-0.431,4.282-1.126,8.538-1.709,12.805C484.211,148.667,484.192,149.137,484.151,149.637z"/>
		<path fill="#FFFFFF" d="M444.04,163.276c0.001-4.648-0.005-9.295,0.004-13.943c0.004-1.973,0.528-2.505,2.499-2.494
			c3.969,0.022,7.939,0.008,11.904,0.137c1.889,0.061,2.433,0.738,2.505,2.649c0.057,1.499,0.013,3.003,0.013,4.504
			c0,7.748-0.003,15.497,0.001,23.244c0.001,1.716-0.606,2.36-2.367,2.367c-4.068,0.016-8.136,0.015-12.205,0
			c-1.747-0.007-2.344-0.605-2.35-2.371C444.028,172.672,444.038,167.973,444.04,163.276z"/>
	</g>
	<path fill="#7C96CD" d="M395.313,90.52c8.026-3.479,16.071-2.587,23.789,1.091c2.49,1.186,4.243,1.452,6.043-0.937
		c0.536-0.711,1.772-0.895,2.687-1.321c0.445,1.018,1.188,2.006,1.287,3.057c0.517,5.481,0.909,10.974,1.267,16.468
		c0.328,5.036-1.326,6.892-6.436,7.208c-6.142,0.38-12.286,0.742-18.435,0.953c-1.235,0.042-2.494-0.63-3.742-0.973
		c0.569-1.086,1.11-2.186,1.722-3.247c0.209-0.362,0.565-0.657,0.901-0.924c1.564-1.246,1.623-2.445,0.383-4.107
		c-3.762-5.046-7.648-6.525-13.799-5.089c-2.073,0.484-4.899,2.381-5.978-0.434c-0.656-1.71,0.967-4.294,1.497-6.235
		C389.884,93.878,392.416,91.776,395.313,90.52z"/>
</g>
</svg>
