<?xml version="1.0" encoding="utf-8"?>
<!-- Generator: Adobe Illustrator 17.0.0, SVG Export Plug-In . SVG Version: 6.00 Build 0)  -->
<!DOCTYPE svg PUBLIC "-//W3C//DTD SVG 1.1//EN" "http://www.w3.org/Graphics/SVG/1.1/DTD/svg11.dtd">
<svg version="1.1" id="Capa_1" xmlns="http://www.w3.org/2000/svg" xmlns:xlink="http://www.w3.org/1999/xlink" x="0px" y="0px"
	 width="566.929px" height="566.929px" viewBox="0 0 566.929 566.929" enable-background="new 0 0 566.929 566.929"
	 xml:space="preserve">
<g>
	<g>
		<rect x="274.09" y="163.485" fill="#7C96CD" width="18.749" height="29.178"/>
		<rect x="209.968" y="300.492" fill="#7C96CD" width="146.993" height="11.075"/>
		
			<rect x="227.217" y="257.447" fill="none" stroke="#7C96CD" stroke-width="12" stroke-miterlimit="10" width="112.494" height="44.248"/>
		
			<rect x="243.717" y="219.689" fill="none" stroke="#7C96CD" stroke-width="12" stroke-miterlimit="10" width="79.496" height="31.268"/>
		
			<rect x="255.716" y="193.14" fill="none" stroke="#7C96CD" stroke-width="12" stroke-miterlimit="10" width="55.497" height="21.829"/>
	</g>
	<g>
		<rect x="142.835" y="255.363" fill="#7C96CD" width="18.749" height="29.178"/>
		<rect x="78.713" y="392.369" fill="#7C96CD" width="146.993" height="11.075"/>
		
			<rect x="95.962" y="349.325" fill="none" stroke="#7C96CD" stroke-width="12" stroke-miterlimit="10" width="112.494" height="44.248"/>
		
			<rect x="112.461" y="311.566" fill="none" stroke="#7C96CD" stroke-width="12" stroke-miterlimit="10" width="79.496" height="31.268"/>
		
			<rect x="124.461" y="285.018" fill="none" stroke="#7C96CD" stroke-width="12" stroke-miterlimit="10" width="55.497" height="21.829"/>
		<rect x="405.345" y="255.363" fill="#7C96CD" width="18.749" height="29.178"/>
		<rect x="341.224" y="392.369" fill="#7C96CD" width="146.993" height="11.075"/>
		
			<rect x="358.473" y="349.325" fill="none" stroke="#7C96CD" stroke-width="12" stroke-miterlimit="10" width="112.494" height="44.248"/>
		
			<rect x="374.972" y="311.566" fill="none" stroke="#7C96CD" stroke-width="12" stroke-miterlimit="10" width="79.496" height="31.268"/>
		
			<rect x="386.971" y="285.018" fill="none" stroke="#7C96CD" stroke-width="12" stroke-miterlimit="10" width="55.497" height="21.829"/>
	</g>
</g>
</svg>
