<?xml version="1.0" encoding="utf-8"?>
<!-- Generator: Adobe Illustrator 17.0.0, SVG Export Plug-In . SVG Version: 6.00 Build 0)  -->
<!DOCTYPE svg PUBLIC "-//W3C//DTD SVG 1.1//EN" "http://www.w3.org/Graphics/SVG/1.1/DTD/svg11.dtd">
<svg version="1.1" id="Capa_1" xmlns="http://www.w3.org/2000/svg" xmlns:xlink="http://www.w3.org/1999/xlink" x="0px" y="0px"
	 width="566.929px" height="566.929px" viewBox="0 0 566.929 566.929" enable-background="new 0 0 566.929 566.929"
	 xml:space="preserve">
<g>
	<rect x="164.418" y="327.712" fill="#7C96CD" width="69.379" height="69.379"/>
	<rect x="248.775" y="327.712" fill="#7C96CD" width="69.379" height="69.379"/>
	<rect x="333.132" y="327.712" fill="#7C96CD" width="69.379" height="69.379"/>
	<rect x="164.418" y="248.775" fill="#7C96CD" width="69.379" height="69.379"/>
	<rect x="248.775" y="248.775" opacity="0.8" fill="#7C96CD" width="69.379" height="69.379"/>
	<rect x="333.132" y="248.775" opacity="0.8" fill="#7C96CD" width="69.379" height="69.379"/>
	<rect x="164.418" y="169.838" fill="#7C96CD" width="69.379" height="69.379"/>
	<rect x="248.775" y="169.838" opacity="0.8" fill="#7C96CD" width="69.379" height="69.379"/>
	<rect x="333.132" y="169.838" opacity="0.6" fill="#7C96CD" width="69.379" height="69.379"/>
	<polygon fill="#FFFFFF" points="199.107,183.243 178.092,201.281 178.092,214.2 195.95,198.872 195.95,225.812 205.753,225.812 
		205.753,201.864 220.124,214.2 220.124,201.281 199.108,183.243 199.108,183.243 	"/>
	<polygon fill="#FFFFFF" points="214.158,344.657 186.542,342.552 177.407,351.687 200.874,353.476 181.824,372.525 
		188.756,379.457 205.689,362.524 207.129,381.408 216.264,372.273 214.159,344.658 214.158,344.658 	"/>
	<polygon fill="#FFFFFF" points="389.201,359.707 371.162,338.692 358.243,338.692 373.572,356.55 346.632,356.55 346.632,366.353 
		370.579,366.353 358.243,380.724 371.162,380.724 389.201,359.708 389.2,359.708 	"/>
</g>
</svg>
