<?xml version="1.0" encoding="utf-8"?>
<!-- Generator: Adobe Illustrator 17.0.0, SVG Export Plug-In . SVG Version: 6.00 Build 0)  -->
<!DOCTYPE svg PUBLIC "-//W3C//DTD SVG 1.1//EN" "http://www.w3.org/Graphics/SVG/1.1/DTD/svg11.dtd">
<svg version="1.1" id="Capa_1" xmlns="http://www.w3.org/2000/svg" xmlns:xlink="http://www.w3.org/1999/xlink" x="0px" y="0px"
	 width="566.929px" height="566.929px" viewBox="0 0 566.929 566.929" enable-background="new 0 0 566.929 566.929"
	 xml:space="preserve">
<g>
	<g>
		<g id="NavVlQ_3_">
			<g>
				<path fill="#7C96CD" d="M418.356,350.882c-0.39,2.264-1.079,4.522-1.126,6.794c-0.571,27.794,0.515,26.221-0.438,54.001
					c-0.16,4.655-2.238,10.11-5.277,13.576c-3.652,4.166-9.529,4.31-14.894,1.833c-5.723-2.642-7.005-7.699-6.898-13.289
					c0.343-18.012,1.084-36.02,1.173-54.032c0.187-37.764-1.279-46.153-1.279-83.918c-0.552-0.129-1.105-0.258-1.657-0.386
					c-1.453,7.603-3.373,15.154-4.213,22.824c-0.697,6.371-0.095,12.88-0.122,19.328c-0.031,7.317-2.822,10.977-8.957,11.864
					c-6.396,0.925-13.402-2.854-13.93-9.416c-0.848-10.532-0.844-21.299,0.355-31.788c1.526-13.347,6.17-25.902,14.413-36.819
					c11.8-15.628,28.215-21.368,46.928-20.168c28.715,1.841,46.235,16.587,53.122,45.652c2.982,12.584,3.28,25.901,3.838,38.926
					c0.348,8.126-5.247,13.339-12.517,13.722c-6.766,0.357-10.883-3.823-11.307-10.986c-0.708-11.932-1.44-23.871-2.608-35.763
					c-0.353-3.595-2.18-7.045-3.332-10.562c-0.607,0.059-1.215,0.117-1.822,0.176c0,2.222-0.03,4.444,0.005,6.665
					c0.822,52.698,2.987,76.019,3.813,128.717c0.028,1.779,0.065,3.559,0.055,5.337c-0.057,9.668-4.089,14.751-12.1,15.279
					c-8.472,0.559-14.711-4.682-15.027-14.162c-0.918-27.561-2.641-25.764-3.216-53.336c-0.068-3.242-0.009-6.487-0.009-9.731
					C420.339,351.108,419.347,350.995,418.356,350.882z"/>
				<path fill="#7C96CD" d="M382.044,195.231c0.371-20.449,16.95-36.579,37.404-36.392c20.626,0.189,37.664,17.726,37.039,38.122
					c-0.619,20.223-17.656,36.708-37.738,36.513C398.018,233.274,381.663,216.234,382.044,195.231z"/>
			</g>
		</g>
	</g>
	<g>
		<g id="NavVlQ_4_">
			<g>
				<path fill="#7C96CD" d="M145.733,350.882c-0.39,2.264-1.079,4.522-1.126,6.794c-0.571,27.794,0.515,26.221-0.438,54.001
					c-0.16,4.655-2.238,10.11-5.277,13.576c-3.652,4.166-9.529,4.31-14.894,1.833c-5.723-2.642-7.005-7.699-6.898-13.289
					c0.343-18.012,1.084-36.02,1.173-54.032c0.187-37.764-1.279-46.153-1.279-83.918c-0.552-0.129-1.105-0.258-1.657-0.386
					c-1.453,7.603-3.373,15.154-4.213,22.824c-0.697,6.371-0.095,12.88-0.122,19.328c-0.031,7.317-2.822,10.977-8.957,11.864
					c-6.396,0.925-13.402-2.854-13.93-9.416c-0.848-10.532-0.844-21.299,0.355-31.788c1.526-13.347,6.17-25.902,14.413-36.819
					c11.8-15.628,28.215-21.368,46.928-20.168c28.715,1.841,46.235,16.587,53.122,45.652c2.982,12.584,3.28,25.901,3.838,38.926
					c0.348,8.126-5.247,13.339-12.517,13.722c-6.766,0.357-10.883-3.823-11.307-10.986c-0.708-11.932-1.44-23.871-2.608-35.763
					c-0.353-3.595-2.18-7.045-3.332-10.562c-0.607,0.059-1.215,0.117-1.822,0.176c0,2.222-0.03,4.444,0.005,6.665
					c0.822,52.698,2.987,76.019,3.813,128.717c0.028,1.779,0.065,3.559,0.055,5.337c-0.057,9.668-4.089,14.751-12.1,15.279
					c-8.472,0.559-14.711-4.682-15.027-14.162c-0.918-27.561-2.641-25.764-3.216-53.336c-0.067-3.242-0.009-6.487-0.009-9.731
					C147.716,351.108,146.724,350.995,145.733,350.882z"/>
				<path fill="#7C96CD" d="M109.421,195.231c0.371-20.449,16.95-36.579,37.404-36.392c20.626,0.189,37.664,17.726,37.039,38.122
					c-0.619,20.223-17.656,36.708-37.738,36.513C125.395,233.274,109.04,216.234,109.421,195.231z"/>
			</g>
		</g>
	</g>
	<g>
		<path fill="#7C96CD" d="M238.809,181.675c3.454,0,6.782,0.007,10.108-0.003c1.694-0.005,3.388-0.083,5.082-0.054
			c2.105,0.036,3.07,1.062,3.094,3.166c0.019,1.704,0.224,3.483-1.976,4.388c1.443,0.816,2.112,1.908,1.992,3.46
			c-0.117,1.525-0.889,2.505-1.966,2.92c0.181,1.409,0.463,2.693,0.481,3.98c0.022,1.586-1.174,2.298-2.085,2.62
			c0.323,1.324,0.802,2.51,0.864,3.716c0.106,2.039-1.047,3.134-3.121,3.146c-10.601,0.063-21.203,0.1-31.805,0.143
			c-0.283,0.001-0.567-0.042-0.999-0.076c-0.033-0.494-0.091-0.955-0.091-1.417c-0.005-8.133,0.016-16.267-0.022-24.401
			c-0.006-1.422,0.4-2.226,1.857-2.766c3.443-1.277,6.108-3.513,8.384-6.512c3.08-4.059,3.994-8.827,5.406-13.464
			c0.566-1.859,0.6-1.889,2.51-1.455c1.877,0.427,3.181,1.602,3.635,3.38c0.41,1.606,0.648,3.354,0.484,4.99
			c-0.431,4.282-1.126,8.538-1.709,12.805C238.87,180.705,238.851,181.175,238.809,181.675z"/>
		<path fill="#7C96CD" d="M198.699,195.314c0.001-4.648-0.005-9.295,0.004-13.943c0.004-1.973,0.528-2.505,2.499-2.494
			c3.969,0.022,7.939,0.008,11.904,0.137c1.889,0.061,2.433,0.738,2.505,2.649c0.057,1.499,0.013,3.003,0.013,4.504
			c0,7.748-0.003,15.497,0.001,23.244c0.001,1.716-0.606,2.36-2.367,2.367c-4.068,0.016-8.136,0.015-12.205,0
			c-1.747-0.007-2.344-0.605-2.35-2.371C198.687,204.71,198.697,200.012,198.699,195.314z"/>
	</g>
	<g>
		<path fill="#7C96CD" d="M345.912,184.171c3.454,0,6.782,0.007,10.108-0.003c1.694-0.005,3.388-0.083,5.082-0.054
			c2.105,0.036,3.07,1.062,3.094,3.165c0.019,1.704,0.224,3.483-1.976,4.388c1.443,0.816,2.112,1.908,1.992,3.46
			c-0.117,1.525-0.889,2.505-1.966,2.92c0.181,1.409,0.463,2.693,0.481,3.98c0.022,1.586-1.174,2.298-2.085,2.62
			c0.323,1.324,0.802,2.51,0.864,3.716c0.106,2.039-1.047,3.134-3.121,3.146c-10.601,0.063-21.203,0.1-31.805,0.143
			c-0.283,0.001-0.567-0.042-0.999-0.076c-0.033-0.494-0.091-0.955-0.091-1.417c-0.005-8.133,0.016-16.267-0.022-24.401
			c-0.006-1.422,0.4-2.226,1.857-2.766c3.443-1.277,6.108-3.513,8.384-6.512c3.08-4.059,3.994-8.827,5.406-13.464
			c0.566-1.859,0.6-1.889,2.51-1.455c1.877,0.427,3.181,1.602,3.635,3.38c0.41,1.606,0.648,3.354,0.484,4.99
			c-0.431,4.282-1.126,8.538-1.709,12.805C345.973,183.201,345.954,183.671,345.912,184.171z"/>
		<path fill="#7C96CD" d="M305.802,197.81c0.001-4.648-0.005-9.295,0.004-13.943c0.004-1.973,0.528-2.505,2.499-2.494
			c3.969,0.022,7.939,0.008,11.904,0.137c1.889,0.061,2.433,0.738,2.505,2.649c0.057,1.499,0.013,3.003,0.013,4.504
			c0,7.748-0.003,15.497,0.001,23.244c0.001,1.716-0.606,2.36-2.367,2.367c-4.068,0.016-8.136,0.015-12.205,0
			c-1.747-0.007-2.344-0.605-2.35-2.371C305.79,207.206,305.8,202.507,305.802,197.81z"/>
	</g>
	<path fill="#7C96CD" d="M267.587,140.401c8.026-3.479,16.071-2.587,23.789,1.091c2.49,1.186,4.243,1.452,6.043-0.937
		c0.536-0.711,1.772-0.895,2.687-1.321c0.445,1.018,1.188,2.006,1.287,3.057c0.517,5.481,0.909,10.974,1.267,16.468
		c0.328,5.036-1.326,6.892-6.436,7.208c-6.142,0.38-12.286,0.742-18.435,0.953c-1.235,0.042-2.494-0.63-3.742-0.973
		c0.569-1.086,1.11-2.186,1.722-3.247c0.209-0.362,0.565-0.657,0.901-0.924c1.564-1.246,1.623-2.445,0.383-4.107
		c-3.762-5.046-7.648-6.525-13.799-5.089c-2.073,0.484-4.899,2.381-5.978-0.434c-0.656-1.71,0.967-4.294,1.498-6.235
		C262.158,143.759,264.689,141.657,267.587,140.401z"/>
	<path fill="#7C96CD" d="M297.583,240.902c-8.026,3.479-16.071,2.587-23.789-1.091c-2.49-1.186-4.243-1.452-6.043,0.937
		c-0.536,0.711-1.772,0.895-2.687,1.321c-0.445-1.018-1.188-2.006-1.287-3.057c-0.517-5.481-0.909-10.974-1.267-16.468
		c-0.329-5.036,1.326-6.892,6.436-7.208c6.142-0.38,12.286-0.742,18.435-0.953c1.235-0.042,2.494,0.63,3.742,0.973
		c-0.569,1.086-1.11,2.186-1.722,3.247c-0.209,0.362-0.565,0.657-0.901,0.924c-1.564,1.246-1.623,2.445-0.383,4.107
		c3.762,5.046,7.648,6.525,13.799,5.089c2.073-0.484,4.899-2.381,5.978,0.434c0.656,1.71-0.967,4.294-1.497,6.235
		C303.012,237.545,300.481,239.646,297.583,240.902z"/>
</g>
</svg>
