<?xml version="1.0" encoding="utf-8"?>
<!-- Generator: Adobe Illustrator 17.0.0, SVG Export Plug-In . SVG Version: 6.00 Build 0)  -->
<!DOCTYPE svg PUBLIC "-//W3C//DTD SVG 1.1//EN" "http://www.w3.org/Graphics/SVG/1.1/DTD/svg11.dtd">
<svg version="1.1" id="Capa_1" xmlns="http://www.w3.org/2000/svg" xmlns:xlink="http://www.w3.org/1999/xlink" x="0px" y="0px"
	 width="566.929px" height="566.929px" viewBox="0 0 566.929 566.929" enable-background="new 0 0 566.929 566.929"
	 xml:space="preserve">
<g>
	<polygon fill="#7C96CD" points="208.275,368.504 185.598,425.197 412.37,425.197 389.693,368.504 	"/>
	<polygon opacity="0.9" fill="#7C96CD" points="208.275,368.504 389.693,368.504 367.015,311.811 230.952,311.811 	"/>
	<polygon opacity="0.8" fill="#7C96CD" points="230.952,311.811 367.015,311.811 344.338,255.118 253.63,255.118 	"/>
	<polygon opacity="0.7" fill="#7C96CD" points="253.63,255.118 344.338,255.118 321.661,198.425 276.307,198.425 	"/>
	<polygon opacity="0.6" fill="#7C96CD" points="321.661,198.425 298.984,141.732 276.307,198.425 	"/>
	<polygon fill="#7C96CD" points="184.995,340.158 159.033,349.802 154.559,361.922 176.62,353.726 167.291,378.999 176.488,382.394 
		184.78,359.928 193.991,376.477 198.464,364.358 184.996,340.158 184.995,340.158 	"/>
	<polygon opacity="0.9" fill="#7C96CD" points="206.948,285.96 180.986,295.605 176.512,307.724 198.573,299.528 189.244,324.802 
		198.44,328.196 206.733,305.731 215.943,322.28 220.417,310.16 206.948,285.96 206.948,285.961 	"/>
	<polygon opacity="0.8" fill="#7C96CD" points="228.9,231.762 202.938,241.407 198.464,253.527 220.525,245.331 211.196,270.604 
		220.392,273.999 228.685,251.533 237.895,268.082 242.369,255.963 228.901,231.763 228.9,231.763 	"/>
	<polygon opacity="0.7" fill="#7C96CD" points="250.852,177.565 224.891,187.21 220.417,199.329 242.478,191.133 233.149,216.407 
		242.345,219.801 250.638,197.336 259.848,213.885 264.322,201.765 250.853,177.565 250.853,177.566 	"/>
</g>
</svg>
